<svg width="24" height="24" viewBox="0 0 24 24" fill="none" xmlns="http://www.w3.org/2000/svg">
                                <path d="M12.6312 11.2991C12.913 11.0172 13.3699 11.0172 13.6518 11.2991C13.9336 11.5809 13.9336 12.0378 13.6518 12.3196L12.6312 13.3402L13.6518 14.3608C13.9336 14.6426 13.9336 15.0995 13.6518 15.3813C13.3699 15.6632 12.913 15.6632 12.6312 15.3813L11.6106 14.3608L10.5901 15.3813C10.3082 15.6632 9.85133 15.6632 9.5695 15.3813C9.28768 15.0995 9.28768 14.6426 9.5695 14.3608L10.5901 13.3402L9.5695 12.3196C9.28768 12.0378 9.28768 11.5809 9.5695 11.2991C9.85133 11.0172 10.3082 11.0172 10.5901 11.2991L11.6106 12.3196L12.6312 11.2991Z" fill="#222E3A"></path>
                                <path fill-rule="evenodd" clip-rule="evenodd" d="M17.023 2.0968C16.6779 1.89753 16.2365 2.01579 16.0372 2.36095L14.3116 5.34987C13.5057 4.92249 12.5864 4.68041 11.6107 4.68041C10.6027 4.68041 9.65506 4.93873 8.83034 5.39277L7.18409 2.54137C6.98481 2.19621 6.54345 2.07795 6.19829 2.27723C5.85313 2.4765 5.73487 2.91786 5.93415 3.26302L7.65684 6.2468C6.66142 7.18271 5.99823 8.46794 5.86303 9.90671L3.90848 9.38299C3.52351 9.27984 3.1278 9.5083 3.02465 9.89328C2.92149 10.2783 3.14995 10.674 3.53493 10.7771L5.83747 11.3941V16.008L3.53493 16.6249C3.14995 16.7281 2.92149 17.1238 3.02465 17.5088C3.1278 17.8938 3.52351 18.1222 3.90848 18.0191L5.97088 17.4664C6.53816 20.0591 8.84776 22 11.6107 22C14.3736 22 16.6832 20.0591 17.2505 17.4664L19.3129 18.0191C19.6978 18.1222 20.0935 17.8938 20.1967 17.5088C20.2999 17.1238 20.0714 16.7281 19.6864 16.6249L17.3839 16.008V11.3941L19.6864 10.7771C20.0714 10.674 20.2999 10.2783 20.1967 9.89328C20.0935 9.5083 19.6978 9.27984 19.3129 9.38299L17.3583 9.90672C17.2201 8.43548 16.5297 7.12478 15.4966 6.18397L17.2872 3.0826C17.4865 2.73744 17.3682 2.29608 17.023 2.0968ZM7.28075 10.4536C7.28075 8.06226 9.21931 6.1237 11.6107 6.1237C14.002 6.1237 15.9405 8.06226 15.9405 10.4536V16.2268C15.9405 18.6181 14.002 20.5567 11.6107 20.5567C9.21931 20.5567 7.28075 18.6181 7.28075 16.2268V10.4536Z" fill="#222E3A"></path>
                            </svg>