<svg width="32" height="32" viewBox="0 0 32 32" fill="white" xmlns="http://www.w3.org/2000/svg"><path d="M10.526 14.975a.828.828 0 1 0 1.656 0 .828.828 0 0 0-1.656 0ZM20.422 15.803a.828.828 0 1 1 .001-1.656.828.828 0 0 1 0 1.656ZM15.065 23.267c0-.42-.293-.912-.853-.912-.478 0-.84.385-.84.906 0 .577.42.918.841.918.504 0 .852-.444.852-.912ZM7.493 22.355c.56 0 .853.492.853.912 0 .468-.349.912-.852.912-.42 0-.842-.341-.842-.918 0-.52.362-.906.84-.906ZM25.183 23.267c0-.42-.294-.912-.854-.912-.478 0-.84.385-.84.906 0 .577.42.918.842.918.503 0 .852-.444.852-.912ZM19.687 22.366c.492 0 .86.397.86.898 0 .51-.39.903-.859.903a.87.87 0 0 1-.857-.894c0-.55.402-.907.856-.907Z"></path><path fill-rule="evenodd" clip-rule="evenodd" d="M25 2H7a5 5 0 0 0-5 5v18a5 5 0 0 0 5 5h18a5 5 0 0 0 5-5V7a5 5 0 0 0-5-5Zm-2.653 5.999-1.639 2.839c2.828 1.53 4.742 4.391 5.058 7.74H6.012c.316-3.349 2.23-6.21 5.056-7.74L9.429 7.999a.331.331 0 0 1 .12-.454.331.331 0 0 1 .454.12l1.66 2.876a10.125 10.125 0 0 1 4.226-.901c1.533 0 2.96.322 4.226.9l1.66-2.874a.329.329 0 0 1 .452-.12.333.333 0 0 1 .12.453Zm.089 12.794a.424.424 0 1 1-.848 0 .424.424 0 0 1 .848 0Zm-9.716 2.474c0-.953.698-1.498 1.378-1.498.629 0 .912.43.912.43v-1.797h.64V24.7h-.455c-.103 0-.185-.097-.185-.184v-.185s-.281.424-.912.424c-.764 0-1.379-.616-1.379-1.488ZM9.82 24.7a.18.18 0 0 1-.184-.184v-2.681h.64v.354c.145-.218.429-.42.864-.42.711 0 1.09.567 1.09 1.097V24.7h-.445a.196.196 0 0 1-.195-.195v-1.498c0-.294-.18-.651-.597-.651-.45 0-.717.425-.717.825v1.52h-.456ZM7.38 21.77c-.68 0-1.379.544-1.379 1.497 0 .872.615 1.488 1.379 1.488.63 0 .912-.424.912-.424v.185c0 .087.082.184.184.184h.456v-2.866h-.64v.364s-.284-.429-.912-.429Zm9.162 2.93a.18.18 0 0 1-.185-.184v-2.681h.64v.477a.79.79 0 0 1 .771-.51c.118 0 .228.022.228.022v.662s-.137-.055-.304-.055c-.45 0-.694.425-.694.825V24.7h-.456Zm5.34 0a.18.18 0 0 1-.184-.184v-2.681h.64V24.7h-.456Zm.956-1.433c0-.953.699-1.498 1.378-1.498.629 0 .912.43.912.43v-1.797h.64V24.7h-.455c-.102 0-.185-.097-.185-.184v-.185s-.28.424-.912.424c-.764 0-1.378-.616-1.378-1.488Zm-3.153-1.499c-.712 0-1.494.532-1.494 1.494 0 .878.667 1.493 1.493 1.493 1.018 0 1.515-.819 1.515-1.487 0-.82-.64-1.5-1.514-1.5Z"></path></svg>