<svg width="32" height="32" viewBox="0 0 32 32" fill="white" xmlns="http://www.w3.org/2000/svg"><path d="M28.712 8.864a.23.23 0 0 1-.197.347H17.279l-.02-.001a6.817 6.817 0 0 0-7.194 5.088.23.23 0 0 1-.42.057L5.702 7.53a.23.23 0 0 1 .02-.258 13.939 13.939 0 0 1 10.944-5.27c2.473 0 4.904.654 7.03 1.891a14.087 14.087 0 0 1 5.015 4.972Z"></path><path d="M16.667 21.233a5.238 5.238 0 0 1-5.233-5.232 5.238 5.238 0 0 1 5.233-5.232A5.238 5.238 0 0 1 21.899 16a5.238 5.238 0 0 1-5.232 5.232Z"></path><path d="M18.735 22.65a.229.229 0 0 0-.242-.08 6.809 6.809 0 0 1-1.826.248 6.852 6.852 0 0 1-6.183-3.946L4.862 9.135a.23.23 0 0 0-.199-.115h-.001a.23.23 0 0 0-.199.117 14.007 14.007 0 0 0 1.631 16.041 13.997 13.997 0 0 0 8.484 4.668.23.23 0 0 0 .233-.112l3.942-6.829a.23.23 0 0 0-.018-.255Z"></path><path d="M21.597 10.742h7.892a.23.23 0 0 1 .214.146c.64 1.629.964 3.349.964 5.113 0 3.712-1.438 7.208-4.049 9.846A13.915 13.915 0 0 1 16.826 30h-.003a.23.23 0 0 1-.199-.344l5.632-9.755a6.769 6.769 0 0 0 1.228-3.9c0-1.842-.727-3.57-2.048-4.865a.23.23 0 0 1 .16-.393Z"></path></svg>