<svg width="24" height="24" viewBox="0 0 24 24" fill="#222e3a" xmlns="http://www.w3.org/2000/svg" class="svg-close js-search-delete-close">
                            <path d="M19.6921 5.79467C20.1026 5.38411 20.1026 4.71847 19.6921 4.30792C19.2815 3.89736 18.6159 3.89736 18.2053 4.30792L12 10.5133L5.79467 4.30792C5.38411 3.89736 4.71847 3.89736 4.30792 4.30792C3.89736 4.71847 3.89736 5.38411 4.30792 5.79467L10.5133 12L4.30792 18.2053C3.89736 18.6159 3.89736 19.2815 4.30792 19.6921C4.71847 20.1026 5.38411 20.1026 5.79467 19.6921L12 13.4867L18.2053 19.6921C18.6159 20.1026 19.2815 20.1026 19.6921 19.6921C20.1026 19.2815 20.1026 18.6159 19.6921 18.2053L13.4867 12L19.6921 5.79467Z" fill="#222E3A"></path>
                        </svg>