<svg width="32" height="32" viewBox="0 0 32 32" fill="white" xmlns="http://www.w3.org/2000/svg"><path d="M27.164 22.884c-.373.195-.758.368-1.151.516a11.08 11.08 0 0 1-3.92.709c-5.168 0-9.669-3.57-9.669-8.152a3.465 3.465 0 0 1 .492-1.743c.316-.526.742-.959 1.28-1.253-4.674.198-5.852 5.09-5.852 7.956 0 8.103 7.435 8.925 9.037 8.925.863 0 2.166-.252 2.948-.5l.143-.048a14.025 14.025 0 0 0 7.272-5.792.44.44 0 0 0-.301-.668.434.434 0 0 0-.28.05Z"></path><path d="m13.255 28.79.03.019.009.004c.351.218.717.41 1.094.576a13.95 13.95 0 0 1-3.735-1.02 13.466 13.466 0 0 1-6.879-6.664 13.726 13.726 0 0 1-1.273-5.9v-.004c0-1.84.913-3.855 2.426-5.419 1.508-1.559 3.566-2.62 5.798-2.62 2.788 0 4.668.529 5.93 1.28 1.253.745 1.93 1.73 2.287 2.713.24.661.335 1.328.355 1.927a3.17 3.17 0 0 0-.06-.075c-.39-.519-.972-.914-1.49-1.176a4.024 4.024 0 0 0-1.787-.435c-.861-.015-1.518.296-1.867.463l-.047.022-.008.003a9.306 9.306 0 0 0-4.922 6.13 9.325 9.325 0 0 0 1.517 7.714 9.143 9.143 0 0 0 2.622 2.463Z" stroke="#222E3A"></path><path d="M18.66 18.366c-.089.116-.36.275-.36.622 0 .287.185.563.515.795 1.573 1.1 4.538.955 4.546.955a6.488 6.488 0 0 0 3.31-.918 6.731 6.731 0 0 0 2.434-2.462 6.776 6.776 0 0 0 .894-3.352c.029-2.464-.875-4.102-1.24-4.828C26.442 4.621 21.44 2 16 2 12.32 2 8.79 3.455 6.17 6.052A14.109 14.109 0 0 0 2 15.875c.052-4.018 4.025-7.262 8.75-7.262.382 0 2.565.037 4.593 1.107 1.787.944 2.723 2.082 3.374 3.212.676 1.173.796 2.655.796 3.245 0 .59-.3 1.466-.853 2.19Z"></path></svg>