<svg width="148" height="29" viewBox="0 0 148 29" fill="none" xmlns="http://www.w3.org/2000/svg">
<path fill-rule="evenodd" clip-rule="evenodd" d="M55.3046 17.501L54.4334 20.4489H45.5136V20.0334L46.6683 19.2393V9.75512L45.5136 8.96104V8.54552H54.8499L55.0582 8.75328L54.4715 11.4178H54.055C53.6761 9.7736 53.1266 9.54736 50.3995 9.54736H49.0927V13.9114L53.3915 13.6471L53.4864 13.7222L53.0884 15.1205L52.975 15.1586L49.0927 14.7811V19.447H50.3238C52.5394 19.447 53.6952 19.1077 54.8881 17.3504L55.3046 17.501ZM147.176 8.96104L146.021 9.75512V20.2971L145.87 20.4489H144.032L137.252 11.0969V19.2393L138.616 20.0334V20.4489H134.865V20.0334L136.021 19.2393V9.7176L134.695 8.96104V8.54552H138.275L144.79 17.5766V9.75512L143.426 8.96104V8.54552H147.176V8.96104ZM127.669 19.2393L129.032 20.0334V20.4489H124.109V20.0334L125.264 19.2393V9.75512L124.109 8.96104V8.54552H129.109C132.593 8.54552 134.392 9.73608 134.392 12.022C134.392 14.6294 131.855 16.4057 128.086 16.4057C127.915 16.4057 127.764 16.4057 127.669 16.3861V19.2393ZM123.162 8.96104L121.988 9.73608L118.086 20.4489H115.832L111.685 9.79264L110.473 8.96104V8.54552H115.359V8.96104L114.166 9.7736L117.537 18.4077H117.67L120.511 9.75512L119.298 8.96104V8.54552H123.162V8.96104ZM127.669 15.4044C130.32 15.48 131.93 14.2138 131.93 12.0797C131.93 10.3218 131.022 9.43424 129.203 9.43424C128.692 9.43424 128.105 9.56584 127.669 9.7736V15.4044ZM77.3683 15.5175C77.3683 18.4838 75.3795 20.6001 72.5952 20.6001C71.7813 20.6001 71.0992 20.3918 70.4368 20.109V23.0182L71.8003 23.8117V24.2272H66.9705V23.8117L68.1454 23.0182V12.6649L66.9705 11.9654V11.5494L70.0955 10.9261L70.4368 11.1534V12.4756C71.1756 11.5309 72.3493 10.9457 73.5618 10.9457C75.8151 10.9457 77.3683 12.9102 77.3683 15.5175ZM85.0004 13.0238H84.5839C84.2808 12.8346 83.9586 12.7399 83.6363 12.7399C82.9363 12.7399 82.2734 13.0048 81.6862 13.5144V19.2393L83.0879 20.0334V20.4489H78.2014V20.0334L79.3757 19.2393V12.6649L78.2014 11.9654V11.5494L81.3449 10.9261L81.6862 11.1534V12.6453C82.2919 11.663 83.3529 10.9642 84.4132 10.9642C84.9061 10.9642 85.3226 11.0969 85.6634 11.3416L85.0004 13.0238ZM92.1211 15.6306C90.8525 15.6306 89.4323 15.5931 87.8796 15.5366C88.0878 17.6528 89.2425 18.8803 91.1365 18.8803C92.2727 18.8803 93.0114 18.597 93.6362 18.0683L94.0342 18.3707C93.4094 19.8626 92.0077 20.6751 90.1895 20.6751C87.4058 20.6751 85.5309 18.7672 85.5309 15.8574C85.5309 13.0804 87.3867 10.9261 90.2086 10.9261C91.5154 10.9261 92.5 11.3416 93.2011 12.1547C93.9017 12.9673 94.2424 14.0246 94.2239 15.3282L93.9393 15.6122C93.561 15.6306 92.9547 15.6306 92.1211 15.6306ZM95.8709 17.7659H96.2689C97.0076 18.975 98.0871 19.6738 99.015 19.6738C99.8486 19.6738 100.36 19.2393 100.36 18.5594C100.36 17.7844 99.9053 17.3689 98.7686 16.9349L97.9165 16.6134C96.3071 16.0086 95.341 15.0454 95.341 13.7793C95.341 12.2113 96.8185 11.0022 99.015 11.0022C100.284 11.0022 101.496 11.3046 102.386 11.8333L101.477 13.3828H101.098C100.473 12.419 99.697 11.9279 98.7877 11.9279C97.9737 11.9279 97.4432 12.381 97.4432 13.0048C97.4432 13.6846 97.9355 14.1002 99.3939 14.6674L100.36 15.0454C101.837 15.6122 102.481 16.5003 102.481 17.6528C102.481 19.4661 101.022 20.6001 98.8067 20.6001C97.4432 20.6001 96.0606 20.2411 95.0569 19.6178L95.8709 17.7659ZM104.185 17.7659H104.583C105.322 18.975 106.401 19.6738 107.329 19.6738C108.162 19.6738 108.674 19.2393 108.674 18.5594C108.674 17.7844 108.219 17.3689 107.083 16.9349L106.231 16.6134C104.621 16.0086 103.655 15.0454 103.655 13.7793C103.655 12.2113 105.132 11.0022 107.329 11.0022C108.598 11.0022 109.81 11.3046 110.7 11.8333L109.791 13.3828H109.412C108.787 12.419 108.011 11.9279 107.102 11.9279C106.287 11.9279 105.757 12.381 105.757 13.0048C105.757 13.6846 106.25 14.1002 107.708 14.6674L108.674 15.0454C110.151 15.6122 110.795 16.5003 110.795 17.6528C110.795 19.4661 109.337 20.6001 107.12 20.6001C105.757 20.6001 104.375 20.2411 103.37 19.6178L104.185 17.7659ZM62.2176 15.6687L65.0013 19.2393L66.0426 20.0334V20.4489H61.3273V20.0334L62.3124 19.2958L60.4179 16.7271L58.5997 19.2958L59.6983 20.0334V20.4489H55.9485V20.0334L57.1043 19.2583L59.8122 15.9336L57.047 12.419L55.9866 11.588V11.1725H60.6829V11.588L59.7173 12.3244L61.5922 14.8752L63.4104 12.3244L62.3124 11.588V11.1725H66.0617V11.588L64.9064 12.3625L62.2176 15.6687ZM91.818 14.4026C91.6097 12.7399 90.8339 11.9464 89.7921 11.9464C88.6559 11.9464 87.8981 13.0614 87.8414 14.649L91.818 14.4026ZM75.0954 16.4807C75.0954 14.3841 74.0732 12.6453 72.4251 12.6453C71.7436 12.6453 71.0807 12.8726 70.4368 13.3447V18.3136C70.9673 19.1262 71.7812 19.5232 72.7468 19.5232C74.1866 19.5232 75.0954 18.3892 75.0954 16.4807ZM9.89441 28.5C5.97452 28.5 3.47428 26.3031 3.47428 23.25C3.47428 22.2442 3.77291 21.0162 4.92985 18.5214H0.824158L4.5936 10.4781H30.8327C31.4299 10.4781 31.8403 10.0318 31.8403 9.51096C31.8403 8.98904 31.4299 8.54216 30.8327 8.54216H9.59521L11.4617 4.55832C12.6186 2.10104 15.1194 0.5 17.8436 0.5H26.7646C31.9149 0.5 35.722 4.03696 35.722 8.6536C35.722 14.1276 30.6833 18.5214 24.861 18.5214H7.61758C7.09441 19.601 7.69168 20.4578 8.96089 20.4578H22.6959C24.9728 20.4578 26.727 22.0583 26.727 24.1062C26.727 26.4521 24.4507 28.5 21.8747 28.5H9.89441Z" fill="white" fill-opacity="0.5"/>
</svg>
