<svg width="32" height="32" viewBox="0 0 32 32" fill="white" xmlns="http://www.w3.org/2000/svg"><path fill-rule="evenodd" clip-rule="evenodd" d="M27.363 7.461a13.881 13.881 0 0 0-1.313-1.49c-.407-.42-.846-.802-1.31-1.15a9.058 9.058 0 0 0-2.26-1.396 13.363 13.363 0 0 0-5.677-1.41c-3.231-.064-5.463.904-6.726 1.683-.79.487-1.2.899-1.239.938a5.388 5.388 0 0 1 .01-.007c.239-.162 3.194-1.903 7.3-1.366 4.918.644 9.416 4.462 9.416 9.5 0 3.877-3.003 6.836-6.519 6.624-5.223-.313-6.539-5.657-3.823-7.966-.732-.157-2.11.151-3.068 1.581-.86 1.283-.812 3.266-.28 4.672a7.508 7.508 0 0 1-.684-2.198c-.687-4.634 2.431-8.585 5.291-9.563-1.543-1.344-5.409-1.253-8.286.858-1.677 1.231-2.877 2.981-3.51 5.067.093-1.17.537-2.919 1.448-4.704-.963.497-2.19 2.07-2.796 3.527-.873 2.1-1.18 4.612-.903 7.002l.017.153.046.384c1.12 6.573 6.843 11.577 13.734 11.577 7.696 0 13.934-6.239 13.934-13.934 0-3.147-1.043-6.05-2.802-8.382ZM11.955 3.07c-.96.28-1.869.684-2.674 1.238.495-.333 1.388-.846 2.674-1.238ZM9.28 4.31l-.007.004a.533.533 0 0 0 .007-.005Zm10.928 17.703c-.252.036-.505.06-.761.073-3.068.15-5.963-1.287-7.454-4.17 1.491 2.885 4.388 4.356 7.454 4.17.26-.016.514-.04.76-.073Zm-3.856-19.82c-2.134.018-4.571.524-6.26 1.496 1.689-.972 4.126-1.523 6.26-1.496Z"></path></svg>