<svg width="24" height="24" viewBox="0 0 24 24" fill="none" xmlns="http://www.w3.org/2000/svg">
                                <path fill-rule="evenodd" clip-rule="evenodd" d="M7.71427 17.4285H12.6234C11.9242 17.0671 11.2999 16.5811 10.7797 16H7.71427C5.34734 16 3.42857 14.0812 3.42857 11.7143C3.42857 9.34734 5.34734 7.42857 7.71427 7.42857H10.7797C11.2999 6.8474 11.9242 6.36143 12.6233 6H7.71427C4.55837 6 2 8.55837 2 11.7143C2 14.8702 4.55837 17.4285 7.71427 17.4285ZM22.0002 11.7143C22.0002 14.8702 19.4418 17.4285 16.2859 17.4285C13.13 17.4285 10.5716 14.8702 10.5716 11.7143C10.5716 8.55837 13.13 6 16.2859 6L16.3048 6.00003L16.3237 6C19.4528 6 21.9904 8.51682 21.9995 11.6249C21.9999 11.6547 22.0002 11.6844 22.0002 11.7143Z" fill="#222E3A"></path>
                            </svg>