<svg width="32" height="32" viewBox="0 0 32 32" fill="white" xmlns="http://www.w3.org/2000/svg"><path fill-rule="evenodd" clip-rule="evenodd" d="M25.333 2h-18a5 5 0 0 0-5 5v18a5 5 0 0 0 5 5h18a5 5 0 0 0 5-5V7a5 5 0 0 0-5-5Zm-6.806 8.565A3.496 3.496 0 0 0 19.377 8a3.825 3.825 0 0 0-2.444 1.22 3.33 3.33 0 0 0-.872 2.47 3.17 3.17 0 0 0 2.466-1.125Zm2.082 5.944c.016-1.247.694-2.398 1.796-3.051a3.9 3.9 0 0 0-3.042-1.585c-.782-.08-1.55.214-2.178.455-.399.152-.74.283-.994.283-.288 0-.64-.136-1.034-.289-.515-.2-1.103-.427-1.716-.415-1.422.044-2.716.805-3.408 2.004-1.474 2.46-.374 6.076 1.037 8.065.707.974 1.532 2.062 2.612 2.023.49-.02.838-.16 1.197-.306.415-.169.846-.344 1.53-.344.646 0 1.058.17 1.454.332.38.156.744.305 1.283.293 1.134-.017 1.849-.978 2.53-1.96a7.938 7.938 0 0 0 1.157-2.273c-1.347-.55-2.223-1.822-2.224-3.232Z"></path></svg>