<svg width="16" height="16" viewBox="0 0 16 16" fill="#222e3a" xmlns="http://www.w3.org/2000/svg" class="svg-languages">
                                <path d="M14.6134 13.7538L11.9347 7.27041C11.7948 6.93724 11.415 6.77732 11.0818 6.91725C10.9219 6.98388 10.7953 7.11049 10.7287 7.27041L8.05002 13.7538C7.91009 14.087 8.07001 14.4735 8.40317 14.6134C8.73634 14.7533 9.12281 14.5934 9.26274 14.2602L9.80914 12.9409H12.8609L13.4073 14.2602C13.5073 14.5068 13.7472 14.6667 14.0137 14.6667C14.3735 14.6667 14.6667 14.3735 14.6667 14.0137C14.6667 13.9271 14.6467 13.8405 14.6201 13.7672L14.6134 13.7538ZM10.3422 11.6216L11.3284 9.22943L12.3145 11.6216H10.3422ZM8.34987 10.1023C8.56309 9.80914 8.49646 9.40267 8.20327 9.18945C8.20327 9.18945 7.75683 8.85628 7.11715 8.15663C8.29656 6.55743 8.96289 4.745 9.23609 3.88543H10.1956C10.5554 3.88543 10.8486 3.59224 10.8486 3.23242C10.8486 2.8726 10.5554 2.57942 10.1956 2.57942H6.744V1.98638C6.744 1.62656 6.45082 1.33337 6.091 1.33337C5.73117 1.33337 5.43799 1.62656 5.43799 1.98638V2.57942H1.98638C1.62656 2.57942 1.33337 2.8726 1.33337 3.23242C1.33337 3.59224 1.62656 3.88543 1.98638 3.88543H7.85678C7.57026 4.68503 7.05052 5.95107 6.25758 7.11049C5.32471 5.87111 4.97822 5.0715 4.97155 5.06484C4.82496 4.73167 4.44515 4.57842 4.11198 4.72501C3.78548 4.86494 3.63222 5.24475 3.76549 5.57126C3.78548 5.61124 4.19861 6.59075 5.33804 8.07001C5.36469 8.10332 5.39135 8.13664 5.418 8.17662C4.25191 9.49596 3.10582 10.3155 2.62606 10.5754C2.30622 10.7487 2.19294 11.1485 2.36619 11.4616C2.53944 11.7815 2.93924 11.8948 3.25241 11.7215C3.31905 11.6882 4.69836 10.9219 6.27757 9.17612C6.95057 9.89576 7.41034 10.2289 7.43699 10.2489C7.73018 10.4621 8.13664 10.3955 8.34987 10.1023V10.1023Z" fill="#222E3A"></path>
                            </svg>