<svg width="32" height="32" viewBox="0 0 32 32" fill="white" xmlns="http://www.w3.org/2000/svg"><path d="M15.006 8.42c-.304.033-.199.31-.368.316-.166.006-.133-.353.368-.315Zm.916.046c.295-.075.297.22.458.167.157-.053-.002-.375-.458-.167Zm10.187 19.34c-.913.456-2.104 1.467-2.55 1.887-.327.31-1.699.465-2.461.075-.904-.46-.424-1.181-1.82-1.215a57.804 57.804 0 0 0-2.043-.014c-.598.008-1.195.026-1.804.057-2.095.019-2.3 1.377-3.634 1.328-.913-.034-2.066-.748-4.045-1.16-1.39-.287-2.726-.355-3.012-.966-.286-.609.352-1.291.395-1.898.052-.79-.604-1.866-.12-2.283.401-.345 1.278-.092 1.844-.405.601-.331.843-.607.843-1.333.22.742-.01 1.357-.508 1.658-.295.178-.845.271-1.297.226-.358-.034-.58.024-.688.159-.139.176-.094.483.08.892.176.41.387.67.359 1.17-.029.501-.584 1.096-.495 1.517.034.162.194.297.58.405.637.178 1.775.34 2.898.61 1.25.305 2.538.877 3.34.767 2.395-.33 1.03-2.88.641-3.486-2.022-3.158-3.359-5.225-4.43-4.405-.279.213-.29-.537-.277-.826.046-1.038.577-1.401.893-2.21.591-1.513 1.052-3.245 1.967-4.141.68-.864 1.743-2.287 1.946-3.038-.17-1.632-.223-3.35-.25-4.856-.026-1.6.23-3.005 2.052-3.987.445-.24 1.022-.328 1.634-.334 1.094-.012 2.301.292 3.072.859 1.229.904 2.001 2.828 1.911 4.211-.073 1.065.12 2.182.465 3.329.412 1.363 1.064 2.32 2.1 3.41 1.248 1.314 2.219 3.9 2.492 5.54.258 1.53-.078 2.476-.416 2.524-.504.074-.819 1.662-2.398 1.589-1.008-.049-1.106-.64-1.386-1.142-.449-.805-.905-.553-1.089.285-.094.43-.025 1.044.113 1.523.282.98.185 1.91.017 3.037-.322 2.164 1.524 2.573 2.77 1.545 1.229-1.015 1.492-1.177 3.048-1.704 2.345-.797 1.557-1.501.296-1.922-1.131-.377-1.178-2.273-.773-2.63.09 2.035 1.158 2.33 1.611 2.608 1.94 1.195-.733 2.176-1.87 2.744Zm-5.223-5.963c.214-.252.465-.28.797-.286.05-1.24 1.998-1.15 2.636-.63 0-.288-.612-.545-.857-.667.424-1.4.225-1.964-.057-3.287-.213-1.01-1.14-2.369-1.867-2.794.183.16.532.623.9 1.303.633 1.17 1.259 2.9.842 4.353-.16.555-.527.625-.778.653-1.117.115-.46-1.31-.924-3.272-.516-2.181-1.046-2.345-1.179-2.516-.64-2.838-1.351-2.555-1.553-3.627-.18-.948.834-1.732-.545-1.997-.42-.082-1.021-.505-1.261-.535-.238-.032-.354-1.565.517-1.627.871-.064 1.038.976.867 1.385-.248.406.018.557.449.425.352-.107.125-1.018.209-1.153-.227-1.303-.776-1.491-1.348-1.6-2.169.165-1.195 2.548-1.414 2.318-.308-.323-1.232-.018-1.227-.225.02-1.215-.39-1.92-.956-1.934-.63-.019-.89.856-.927 1.349-.036.473.283 1.459.516 1.383.153-.05.415-.355.135-.353-.145.002-.363-.335-.386-.745-.022-.409.129-.82.664-.798.628.024.622 1.24.553 1.287-.2.138-.458.406-.486.452-.2.331-.6.413-.747.558-.28.278-.336.59-.126.711.717.409.484.864 1.488.906.66.025 1.156-.102 1.605-.238.35-.105 1.473-.343 1.71-.752.103-.174.232-.18.318-.13.15.086.183.376-.205.48-.555.149-1.116.443-1.608.638-.49.197-.647.273-1.11.357-1.043.186-1.812-.373-1.113.298.232.223.455.363 1.055.339 1.314-.052 2.786-1.617 2.93-.916.031.143-.415.339-.763.51-1.232.602-2.1 1.789-2.888 1.378-.705-.37-1.407-2.106-1.395-1.328.02 1.2-1.594 2.268-.852 3.633-.48.13-1.577 2.425-1.734 3.62-.086.677.065 1.527-.099 2.002-.237.686-1.315-.654-.97-2.297.061-.29.009-.351-.07-.211-.437.768-.197 1.84.15 2.592.15.325.504.469.766.759.565.626 2.726 2.217 3.118 2.598a.963.963 0 0 1-.668 1.626c.518.968 1.022 1.06 1.014 2.643.585-.312.35-.994.105-1.443-.171-.307-.395-.447-.346-.519.036-.054.337-.311.519-.11.533.593 1.539.699 2.621.565 1.08-.136 2.239-.51 2.774-1.365.251-.4.433-.543.55-.473.114.072.164.355.152.81-.014.505-.227 1.03-.36 1.45-.149.474-.195.811.272.83.139-.879.382-1.743.452-2.617.079-.994-.647-2.844.135-3.766ZM14.266 7.73c-.036.196-.022.318.114.318.023 0 .046-.004.055-.054.066-.39-.137-.672-.22-.695-.192-.048-.168.225-.068.204.06-.012.143.088.118.227Zm3.565-.535c-.197.019-.14.116-.043.144.129.038.25.255.278.491.002.022.165-.034.165-.086.012-.377-.314-.556-.4-.548Z"></path></svg>