<svg width="127" height="42" fill="none" xmlns="http://www.w3.org/2000/svg"><g clip-path="url(#a)" fill="#fff" fill-opacity=".502"><path fill-rule="evenodd" clip-rule="evenodd" d="M11.601 31.943c1 1.806 3.565 1.902 4.699.179l10.576-16.08a2.734 2.734 0 0 0-.693-3.727 2.748 2.748 0 0 0-1.29-.498L4.107 9.44C1.89 9.185.312 11.535 1.39 13.484L11.6 31.943Z"/><path d="m13.135 28.85-.94 1.409a.914.914 0 0 1-1.562-.064l.967 1.75c.164.298.382.563.642.782a2.752 2.752 0 0 0 4.056-.604l10.578-16.081a2.734 2.734 0 0 0-.693-3.727 2.748 2.748 0 0 0-1.29-.498L4.107 9.44C1.89 9.185.312 11.535 1.39 13.484l.081.148 17.691 2.043a1.527 1.527 0 0 1 1.207.867 1.52 1.52 0 0 1-.107 1.48l-7.128 10.829ZM110.355 14.496h-6.101v13.18h2.415v-3.281a1.214 1.214 0 0 1 .354-.852 1.202 1.202 0 0 1 .853-.352h2.476a4.363 4.363 0 0 0 3.081-1.274 4.343 4.343 0 0 0 0-6.148 4.363 4.363 0 0 0-3.081-1.273h.003Zm1.902 4.324a2.059 2.059 0 0 1-2.059 2.054h-3.533v-4.108h3.533a2.059 2.059 0 0 1 2.059 2.066v-.012ZM95.775 27.627l-4.868-13.169h2.75l3.203 9.424c.125.337.216.686.271 1.042h.028c.04-.359.13-.71.271-1.042l3.211-9.424h2.766l-4.89 13.17h-2.742ZM115.603 27.627V14.458h2.117l6.234 8.17c.224.28.419.584.581.905h.038a11.112 11.112 0 0 1-.059-1.196v-7.879h2.497v13.17h-2.117l-6.253-8.17a5.81 5.81 0 0 1-.578-.906h-.023c.035.398.049.797.042 1.196v7.88h-2.479ZM42.794 14.417h-6.1v13.18h2.415v-3.281a1.203 1.203 0 0 1 1.207-1.204h2.475a4.362 4.362 0 0 0 3.081-1.273 4.342 4.342 0 0 0 0-6.149 4.362 4.362 0 0 0-3.08-1.273h.002Zm1.902 4.325c0 .545-.217 1.067-.603 1.452-.386.386-.91.602-1.456.602h-3.536v-4.109h3.533a2.062 2.062 0 0 1 1.906 1.276c.102.251.154.52.153.79l.003-.011ZM47.523 27.604v-5.23c0-2.13 1.25-3.83 3.747-3.83.402-.007.802.036 1.193.13v2.152c-.286-.02-.544-.02-.645-.02-1.322 0-1.901.606-1.901 1.831v4.967h-2.394ZM53.18 23.166c0-2.622 1.987-4.623 4.75-4.623 2.764 0 4.751 2 4.751 4.623 0 2.622-1.983 4.64-4.747 4.64-2.765 0-4.753-2.012-4.753-4.64Zm7.133 0c0-1.492-1.002-2.55-2.383-2.55-1.38 0-2.386 1.058-2.386 2.55 0 1.49 1.003 2.552 2.386 2.552 1.384 0 2.387-1.042 2.387-2.552h-.004ZM69.638 20.637h-2.593v3.305c0 1.152.416 1.678 1.606 1.678.115 0 .4 0 .758-.018v1.943c-.455.13-.925.2-1.399.206-2.005 0-3.37-1.207-3.37-3.492v-3.622h-1.605V18.74h.4a1.207 1.207 0 0 0 1.206-1.204v-1.806h2.404v3.002h2.593v1.906ZM70.357 23.166c0-2.622 1.983-4.623 4.748-4.623 2.764 0 4.749 2 4.749 4.623 0 2.622-1.983 4.64-4.75 4.64-2.766 0-4.747-2.012-4.747-4.64Zm7.133 0c0-1.492-1.003-2.55-2.385-2.55-1.383 0-2.384 1.058-2.384 2.55 0 1.49 1.003 2.552 2.387 2.552 1.385 0 2.382-1.042 2.382-2.552ZM81.101 27.604v-5.051c0-2.342 1.495-4.02 4.163-4.02s4.144 1.688 4.144 4.02v5.04h-2.383V22.75c0-1.301-.587-2.115-1.761-2.115s-1.754.814-1.754 2.115v4.853l-2.409.001Z"/></g><defs><clipPath id="a"><path fill="#fff" d="M0 0h127v42H0z"/></clipPath></defs></svg>