<svg width="16" height="16" viewBox="0 0 16 16" fill="#222e3a" xmlns="http://www.w3.org/2000/svg">
                            <path d="M13.9985 14.665C13.8251 14.665 13.6585 14.5984 13.5252 14.4717L10.7455 11.6921C9.75232 12.4786 8.50581 12.9453 7.14598 12.9453C3.93972 12.9453 1.33337 10.3389 1.33337 7.13932C1.33337 3.93972 3.93972 1.33337 7.13932 1.33337C10.1123 1.33337 12.5786 3.58643 12.9053 6.47273H12.9453V7.13932C12.9519 8.50581 12.4853 9.75899 11.6921 10.7522L14.4717 13.5319C14.7317 13.7918 14.7317 14.2118 14.4717 14.4717C14.3384 14.605 14.1718 14.665 13.9985 14.665ZM7.13932 2.66654C4.67296 2.66654 2.66654 4.67296 2.66654 7.13932C2.66654 9.60567 4.67962 11.6121 7.14598 11.6121C9.61234 11.6121 11.4521 9.76565 11.6121 7.43928V7.13932C11.6121 4.67296 9.60567 2.66654 7.13932 2.66654V2.66654Z" fill="#222E3A"></path>
                        </svg>