<svg width="24" height="24" viewBox="0 0 24 24" fill="none" xmlns="http://www.w3.org/2000/svg">
                                <path fill-rule="evenodd" clip-rule="evenodd" d="M17.7145 9.85714C17.7145 5.51776 14.1968 2 9.85739 2C5.51801 2 2.00024 5.51776 2.00024 9.85714C2.00024 14.1965 5.51801 17.7143 9.85739 17.7143C11.7746 17.7143 13.5314 17.0276 14.8953 15.8869L15.5768 16.5683C15.2031 17.3504 15.3402 18.3155 15.988 18.9633L18.4084 21.3837C19.2301 22.2054 20.5623 22.2054 21.384 21.3837C22.2057 20.5621 22.2057 19.2299 21.384 18.4082L18.9636 15.9878C18.3158 15.34 17.3508 15.2029 16.5688 15.5764L15.8871 14.895C17.0279 13.5311 17.7145 11.7743 17.7145 9.85714ZM3.42858 9.85715C3.42858 6.30675 6.30675 3.42858 9.85716 3.42858C13.4076 3.42858 16.2857 6.30675 16.2857 9.85715C16.2857 13.4076 13.4076 16.2857 9.85716 16.2857C6.30675 16.2857 3.42858 13.4076 3.42858 9.85715ZM8.38157 11.1258C8.40314 11.0783 8.41706 11.0292 8.42384 10.9799C8.70824 11.0347 9.00786 11.0717 9.32233 11.0911C9.32217 11.0964 9.32209 11.1018 9.32209 11.1072V12.1786C9.32209 12.4744 9.56194 12.7143 9.85781 12.7143C10.1537 12.7143 10.3935 12.4744 10.3935 12.1786V11.1072C10.3935 11.1018 10.3934 11.0964 10.3933 11.091C10.7076 11.0716 11.0072 11.0346 11.2915 10.9799C11.2982 11.0292 11.3122 11.0783 11.3337 11.1258L11.7581 12.0596C11.8752 12.3174 12.1739 12.429 12.4252 12.3087C12.6765 12.1885 12.7852 11.882 12.668 11.6242L12.2504 10.7052C12.5531 10.5856 12.8323 10.4391 13.0873 10.2654L13.677 10.7986C13.8918 10.9929 14.2093 10.9664 14.386 10.7394C14.5627 10.5123 14.5317 10.1708 14.3168 9.97651L13.8628 9.56595C13.91 9.50982 13.9559 9.45213 14.0003 9.39288C14.237 9.07729 14.1731 8.62959 13.8575 8.3929C13.5419 8.15621 13.0942 8.22016 12.8575 8.53575L12.8224 8.58136C12.2532 9.30385 11.2872 9.67859 9.85752 9.67859C8.39809 9.67859 7.4218 9.28808 6.85755 8.53575L6.834 8.506C6.59211 8.21635 6.16297 8.16384 5.85756 8.3929C5.54197 8.62959 5.47801 9.07729 5.7147 9.39288C5.75915 9.45214 5.80502 9.50983 5.85231 9.56597L5.39826 9.97651C5.18336 10.1708 5.1524 10.5123 5.32909 10.7394C5.50579 10.9664 5.82323 10.9929 6.03813 10.7986L6.62777 10.2654C6.88278 10.4391 7.16205 10.5856 7.46487 10.7053L7.0473 11.6242C6.93013 11.882 7.03884 12.1885 7.29012 12.3087C7.54139 12.429 7.84008 12.3174 7.95725 12.0596L8.38157 11.1258ZM16.9556 17.9461C16.7061 17.6708 16.7141 17.2452 16.9797 16.9796C17.2536 16.7057 17.6977 16.7057 17.9716 16.9796L20.392 19.4L20.4161 19.4254C20.6656 19.7006 20.6576 20.1263 20.392 20.3918C20.1181 20.6657 19.674 20.6657 19.4001 20.3918L16.9797 17.9714L16.9556 17.9461Z" fill="#222E3A"></path>
                            </svg>