<svg width="74" height="74" viewBox="0 0 74 74" fill="none" xmlns="http://www.w3.org/2000/svg">
<g filter="url(#filter0_ii_413_1615)">
<circle cx="37.5" cy="36.2656" r="29.25" fill="url(#paint0_linear_413_1615)"/>
</g>
<g filter="url(#filter1_dii_413_1615)">
<path d="M30.263 59.0416C21.098 55.5365 14.5874 46.6615 14.5874 36.2656C14.5874 34.0792 14.8775 31.9634 15.4162 29.9476C16.2937 32.3729 18.2583 35.0517 22.5483 36.4606C24.1838 36.9847 25.1637 37.6379 25.4245 38.4228C25.817 39.4685 24.9663 40.909 24.1814 42.3472C23.2015 43.9827 22.2192 45.7475 23.1357 47.2514C23.6598 48.1679 24.5738 48.8212 25.4903 49.5402C27.5817 51.1246 30.1679 53.0795 30.263 59.0392V59.0416ZM59.5617 38.8177C59.0377 38.1644 58.516 38.2302 57.4045 38.2936C55.4423 38.4886 52.8269 38.686 50.4723 33.5843C48.3151 28.8093 51.3888 26.6521 53.4802 25.2798C55.4423 23.9075 55.9006 23.4492 55.2449 22.3377C54.46 20.8996 53.4802 20.8338 51.6472 20.8338C50.3382 20.8996 48.9001 20.8996 47.5278 19.9831C45.6972 18.8058 44.3883 16.5828 43.2768 14.6206C42.7015 13.6773 42.1263 12.7388 41.5827 12.032C40.7198 11.9393 39.8472 11.8906 38.96 11.8906C37.5292 11.8906 36.1276 12.0149 34.765 12.2513C36.5395 14.0624 39.3158 17.5456 38.8942 21.0288C38.6333 23.186 36.0813 24.2975 33.4658 25.4748C31.177 26.5205 28.6274 27.632 28.235 29.3333C27.9742 30.4448 28.6932 31.9488 30.263 33.716C34.6456 38.6202 38.1117 39.7317 40.8563 40.5824C43.211 41.3015 45.1732 41.8913 46.6113 44.5068C48.6393 48.2337 46.2847 50.3275 44.0617 52.2897C41.9167 54.2446 39.4767 56.3872 39.0112 60.643C48.0811 60.626 55.9859 55.6535 60.1687 48.2898C60.7317 45.4208 60.9194 40.5946 59.5617 38.8177Z" fill="white"/>
</g>
<g filter="url(#filter2_dii_413_1615)">
<path fill-rule="evenodd" clip-rule="evenodd" d="M5.46429 30.6406C3.27487 30.6406 1.5 32.4155 1.5 34.6049V68.3013C1.5 70.4908 3.27487 72.2656 5.46429 72.2656H23.3036C25.493 72.2656 27.2679 70.4908 27.2679 68.3013V34.6049C27.2679 32.4155 25.493 30.6406 23.3036 30.6406H5.46429Z" fill="#222E3A"/>
</g>
<g filter="url(#filter3_dii_413_1615)">
<path d="M17.6019 43.5246C17.9961 43.535 18.3683 43.5425 18.6687 43.5962C19.2976 43.7576 19.8901 44.1033 20.1981 44.7951C20.1981 44.7951 20.2673 44.9181 20.3177 45.2727C20.368 45.6273 20.4445 46.6111 20.4445 46.6111C20.55 48.245 20.5614 49.9444 20.5783 51.5457C20.5511 52.1725 20.3778 52.7614 20.1151 53.2997C19.4727 54.6158 18.2954 55.6299 17.4102 56.1576C15.2194 57.2816 13.1006 58.2824 11.3072 59.0886C9.40853 59.8055 8.54675 59.0859 8.26093 58.2317C8.20314 57.9992 8.18311 57.7599 8.19194 57.5388C8.19194 57.5388 8.2094 57.0089 8.34075 56.1386C8.4721 55.2683 9.44003 49.002 10.4796 45.7897C10.7421 45.0475 11.7202 43.654 14.0472 43.5246H17.6019Z" fill="white"/>
</g>
<g filter="url(#filter4_dii_413_1615)">
<path d="M17.2317 46.3083C17.4018 46.3083 17.5396 46.451 17.5396 46.6271V47.7432C17.5396 47.9193 17.4018 48.0621 17.2317 48.0621H17.0778C16.0577 48.0621 15.2307 48.9187 15.2307 49.9753V51.6893C15.2307 53.7145 13.6456 55.3563 11.6903 55.3563H11.5364C11.3663 55.3563 11.2285 55.2135 11.2285 55.0374L11.2285 53.9214C11.2285 53.7453 11.3663 53.6025 11.5364 53.6025H11.6903C12.7104 53.6025 13.5374 52.7459 13.5374 51.6893V49.9753C13.5374 47.9501 15.1225 46.3083 17.0778 46.3083L17.2317 46.3083Z" fill="#222E3A"/>
</g>
<defs>
<filter id="filter0_ii_413_1615" x="7.125" y="5.89062" width="60.75" height="60.75" filterUnits="userSpaceOnUse" color-interpolation-filters="sRGB">
<feFlood flood-opacity="0" result="BackgroundImageFix"/>
<feBlend mode="normal" in="SourceGraphic" in2="BackgroundImageFix" result="shape"/>
<feColorMatrix in="SourceAlpha" type="matrix" values="0 0 0 0 0 0 0 0 0 0 0 0 0 0 0 0 0 0 127 0" result="hardAlpha"/>
<feOffset dx="-1.125" dy="-1.125"/>
<feGaussianBlur stdDeviation="1.125"/>
<feComposite in2="hardAlpha" operator="arithmetic" k2="-1" k3="1"/>
<feColorMatrix type="matrix" values="0 0 0 0 0.121569 0 0 0 0 0.235294 0 0 0 0 0.415686 0 0 0 0.25 0"/>
<feBlend mode="normal" in2="shape" result="effect1_innerShadow_413_1615"/>
<feColorMatrix in="SourceAlpha" type="matrix" values="0 0 0 0 0 0 0 0 0 0 0 0 0 0 0 0 0 0 127 0" result="hardAlpha"/>
<feOffset dx="1.125" dy="1.125"/>
<feGaussianBlur stdDeviation="1.125"/>
<feComposite in2="hardAlpha" operator="arithmetic" k2="-1" k3="1"/>
<feColorMatrix type="matrix" values="0 0 0 0 1 0 0 0 0 1 0 0 0 0 1 0 0 0 0.5 0"/>
<feBlend mode="normal" in2="effect1_innerShadow_413_1615" result="effect2_innerShadow_413_1615"/>
</filter>
<filter id="filter1_dii_413_1615" x="13.4624" y="10.7656" width="50.5068" height="53.2524" filterUnits="userSpaceOnUse" color-interpolation-filters="sRGB">
<feFlood flood-opacity="0" result="BackgroundImageFix"/>
<feColorMatrix in="SourceAlpha" type="matrix" values="0 0 0 0 0 0 0 0 0 0 0 0 0 0 0 0 0 0 127 0" result="hardAlpha"/>
<feOffset dx="1.125" dy="1.125"/>
<feGaussianBlur stdDeviation="1.125"/>
<feComposite in2="hardAlpha" operator="out"/>
<feColorMatrix type="matrix" values="0 0 0 0 0.133333 0 0 0 0 0.180392 0 0 0 0 0.227451 0 0 0 0.25098 0"/>
<feBlend mode="normal" in2="BackgroundImageFix" result="effect1_dropShadow_413_1615"/>
<feBlend mode="normal" in="SourceGraphic" in2="effect1_dropShadow_413_1615" result="shape"/>
<feColorMatrix in="SourceAlpha" type="matrix" values="0 0 0 0 0 0 0 0 0 0 0 0 0 0 0 0 0 0 127 0" result="hardAlpha"/>
<feOffset dx="1.125" dy="1.125"/>
<feGaussianBlur stdDeviation="1.125"/>
<feComposite in2="hardAlpha" operator="arithmetic" k2="-1" k3="1"/>
<feColorMatrix type="matrix" values="0 0 0 0 1 0 0 0 0 1 0 0 0 0 1 0 0 0 0.25 0"/>
<feBlend mode="normal" in2="shape" result="effect2_innerShadow_413_1615"/>
<feColorMatrix in="SourceAlpha" type="matrix" values="0 0 0 0 0 0 0 0 0 0 0 0 0 0 0 0 0 0 127 0" result="hardAlpha"/>
<feOffset dx="-1.125" dy="-1.125"/>
<feGaussianBlur stdDeviation="1.125"/>
<feComposite in2="hardAlpha" operator="arithmetic" k2="-1" k3="1"/>
<feColorMatrix type="matrix" values="0 0 0 0 0 0 0 0 0 0 0 0 0 0 0 0 0 0 0.25 0"/>
<feBlend mode="normal" in2="effect2_innerShadow_413_1615" result="effect3_innerShadow_413_1615"/>
</filter>
<filter id="filter2_dii_413_1615" x="0.9375" y="30.0781" width="28.0181" height="43.875" filterUnits="userSpaceOnUse" color-interpolation-filters="sRGB">
<feFlood flood-opacity="0" result="BackgroundImageFix"/>
<feColorMatrix in="SourceAlpha" type="matrix" values="0 0 0 0 0 0 0 0 0 0 0 0 0 0 0 0 0 0 127 0" result="hardAlpha"/>
<feOffset dx="0.5625" dy="0.5625"/>
<feGaussianBlur stdDeviation="0.5625"/>
<feComposite in2="hardAlpha" operator="out"/>
<feColorMatrix type="matrix" values="0 0 0 0 0.133333 0 0 0 0 0.180392 0 0 0 0 0.227451 0 0 0 0.501961 0"/>
<feBlend mode="normal" in2="BackgroundImageFix" result="effect1_dropShadow_413_1615"/>
<feBlend mode="normal" in="SourceGraphic" in2="effect1_dropShadow_413_1615" result="shape"/>
<feColorMatrix in="SourceAlpha" type="matrix" values="0 0 0 0 0 0 0 0 0 0 0 0 0 0 0 0 0 0 127 0" result="hardAlpha"/>
<feOffset dx="0.5625" dy="0.5625"/>
<feGaussianBlur stdDeviation="0.5625"/>
<feComposite in2="hardAlpha" operator="arithmetic" k2="-1" k3="1"/>
<feColorMatrix type="matrix" values="0 0 0 0 1 0 0 0 0 1 0 0 0 0 1 0 0 0 0.25 0"/>
<feBlend mode="normal" in2="shape" result="effect2_innerShadow_413_1615"/>
<feColorMatrix in="SourceAlpha" type="matrix" values="0 0 0 0 0 0 0 0 0 0 0 0 0 0 0 0 0 0 127 0" result="hardAlpha"/>
<feOffset dx="-0.5625" dy="-0.5625"/>
<feGaussianBlur stdDeviation="0.5625"/>
<feComposite in2="hardAlpha" operator="arithmetic" k2="-1" k3="1"/>
<feColorMatrix type="matrix" values="0 0 0 0 0 0 0 0 0 0 0 0 0 0 0 0 0 0 0.25 0"/>
<feBlend mode="normal" in2="effect2_innerShadow_413_1615" result="effect3_innerShadow_413_1615"/>
</filter>
<filter id="filter3_dii_413_1615" x="7.06494" y="42.3996" width="16.8882" height="20.3571" filterUnits="userSpaceOnUse" color-interpolation-filters="sRGB">
<feFlood flood-opacity="0" result="BackgroundImageFix"/>
<feColorMatrix in="SourceAlpha" type="matrix" values="0 0 0 0 0 0 0 0 0 0 0 0 0 0 0 0 0 0 127 0" result="hardAlpha"/>
<feOffset dx="1.125" dy="1.125"/>
<feGaussianBlur stdDeviation="1.125"/>
<feComposite in2="hardAlpha" operator="out"/>
<feColorMatrix type="matrix" values="0 0 0 0 0.133333 0 0 0 0 0.180392 0 0 0 0 0.227451 0 0 0 0.25098 0"/>
<feBlend mode="normal" in2="BackgroundImageFix" result="effect1_dropShadow_413_1615"/>
<feBlend mode="normal" in="SourceGraphic" in2="effect1_dropShadow_413_1615" result="shape"/>
<feColorMatrix in="SourceAlpha" type="matrix" values="0 0 0 0 0 0 0 0 0 0 0 0 0 0 0 0 0 0 127 0" result="hardAlpha"/>
<feOffset dx="1.125" dy="1.125"/>
<feGaussianBlur stdDeviation="1.125"/>
<feComposite in2="hardAlpha" operator="arithmetic" k2="-1" k3="1"/>
<feColorMatrix type="matrix" values="0 0 0 0 1 0 0 0 0 1 0 0 0 0 1 0 0 0 0.25 0"/>
<feBlend mode="normal" in2="shape" result="effect2_innerShadow_413_1615"/>
<feColorMatrix in="SourceAlpha" type="matrix" values="0 0 0 0 0 0 0 0 0 0 0 0 0 0 0 0 0 0 127 0" result="hardAlpha"/>
<feOffset dx="-1.125" dy="-1.125"/>
<feGaussianBlur stdDeviation="1.125"/>
<feComposite in2="hardAlpha" operator="arithmetic" k2="-1" k3="1"/>
<feColorMatrix type="matrix" values="0 0 0 0 0 0 0 0 0 0 0 0 0 0 0 0 0 0 0.25 0"/>
<feBlend mode="normal" in2="effect2_innerShadow_413_1615" result="effect3_innerShadow_413_1615"/>
</filter>
<filter id="filter4_dii_413_1615" x="10.666" y="45.7458" width="8.56104" height="11.298" filterUnits="userSpaceOnUse" color-interpolation-filters="sRGB">
<feFlood flood-opacity="0" result="BackgroundImageFix"/>
<feColorMatrix in="SourceAlpha" type="matrix" values="0 0 0 0 0 0 0 0 0 0 0 0 0 0 0 0 0 0 127 0" result="hardAlpha"/>
<feOffset dx="0.5625" dy="0.5625"/>
<feGaussianBlur stdDeviation="0.5625"/>
<feComposite in2="hardAlpha" operator="out"/>
<feColorMatrix type="matrix" values="0 0 0 0 0.133333 0 0 0 0 0.180392 0 0 0 0 0.227451 0 0 0 0.501961 0"/>
<feBlend mode="normal" in2="BackgroundImageFix" result="effect1_dropShadow_413_1615"/>
<feBlend mode="normal" in="SourceGraphic" in2="effect1_dropShadow_413_1615" result="shape"/>
<feColorMatrix in="SourceAlpha" type="matrix" values="0 0 0 0 0 0 0 0 0 0 0 0 0 0 0 0 0 0 127 0" result="hardAlpha"/>
<feOffset dx="-0.5625" dy="-0.5625"/>
<feGaussianBlur stdDeviation="0.5625"/>
<feComposite in2="hardAlpha" operator="arithmetic" k2="-1" k3="1"/>
<feColorMatrix type="matrix" values="0 0 0 0 0 0 0 0 0 0 0 0 0 0 0 0 0 0 0.25 0"/>
<feBlend mode="normal" in2="shape" result="effect2_innerShadow_413_1615"/>
<feColorMatrix in="SourceAlpha" type="matrix" values="0 0 0 0 0 0 0 0 0 0 0 0 0 0 0 0 0 0 127 0" result="hardAlpha"/>
<feOffset dx="0.5625" dy="0.5625"/>
<feGaussianBlur stdDeviation="0.5625"/>
<feComposite in2="hardAlpha" operator="arithmetic" k2="-1" k3="1"/>
<feColorMatrix type="matrix" values="0 0 0 0 1 0 0 0 0 1 0 0 0 0 1 0 0 0 0.25 0"/>
<feBlend mode="normal" in2="effect2_innerShadow_413_1615" result="effect3_innerShadow_413_1615"/>
</filter>
<linearGradient id="paint0_linear_413_1615" x1="35.2101" y1="7.01563" x2="35.2101" y2="65.5156" gradientUnits="userSpaceOnUse">
<stop stop-color="white" stop-opacity="0.5"/>
<stop offset="1" stop-color="white" stop-opacity="0.05"/>
</linearGradient>
</defs>
</svg>
