<svg width="16" height="16" viewBox="0 0 16 16" fill="none" xmlns="http://www.w3.org/2000/svg">
                            <path fill-rule="evenodd" clip-rule="evenodd" d="M7.99996 2.66663C6.52663 2.66663 5.33329 3.85996 5.33329 5.33329C5.33329 6.80663 6.52663 7.99996 7.99996 7.99996C9.47329 7.99996 10.6666 6.80663 10.6666 5.33329C10.6666 3.85996 9.47329 2.66663 7.99996 2.66663ZM9.39996 5.33329C9.39996 4.55996 8.77329 3.93329 7.99996 3.93329C7.22663 3.93329 6.59996 4.55996 6.59996 5.33329C6.59996 6.10663 7.22663 6.73329 7.99996 6.73329C8.77329 6.73329 9.39996 6.10663 9.39996 5.33329ZM12.0666 11.3333C12.0666 10.9066 9.97996 9.93329 7.99996 9.93329C6.01996 9.93329 3.93329 10.9066 3.93329 11.3333V12.0666H12.0666V11.3333ZM4.66663 13.3333C3.56206 13.3333 2.66663 12.4379 2.66663 11.3333C2.66663 9.55996 6.21996 8.66663 7.99996 8.66663C9.77996 8.66663 13.3333 9.55996 13.3333 11.3333C13.3333 12.4379 12.4379 13.3333 11.3333 13.3333H4.66663Z" fill="#222E3A"></path>
                        </svg>