<svg width="73" height="73" viewBox="0 0 73 73" fill="none" xmlns="http://www.w3.org/2000/svg">
<g filter="url(#filter0_ii_413_1600)">
<path d="M52.52 65.5156H20.48C19.2373 65.5156 18.23 66.523 18.23 67.7656C18.23 69.0083 19.2373 70.0156 20.48 70.0156H52.52C53.7626 70.0156 54.77 69.0083 54.77 67.7656C54.77 66.523 53.7626 65.5156 52.52 65.5156Z" fill="url(#paint0_linear_413_1600)"/>
</g>
<g filter="url(#filter1_dii_413_1600)">
<path d="M25.1315 17.0788C23.9278 17.9759 23.939 19.7141 24.9994 20.7744C26.0569 21.8263 27.7528 21.7981 28.9959 20.9741C33.524 17.9731 39.4697 17.9731 43.9922 20.9741C45.2353 21.7981 46.934 21.8291 47.9887 20.7744C49.0519 19.7169 49.0603 17.9759 47.8565 17.0816C41.1375 12.0725 31.845 12.0725 25.1259 17.0816L25.1315 17.0788Z" fill="white"/>
<path d="M17.417 9.38657C16.2639 10.3456 16.2695 12.0781 17.3326 13.1356C18.3901 14.1875 20.0917 14.1734 21.2561 13.2425C30.1408 6.14657 42.8589 6.14938 51.7408 13.2425C52.9051 14.1734 54.6067 14.1875 55.6642 13.1356C56.7273 12.0781 56.7329 10.3456 55.5798 9.38657C44.5464 0.22344 28.4448 0.22344 17.417 9.38657Z" fill="white"/>
<path d="M40.4795 27.9097C40.4795 30.0388 38.7526 31.7656 36.6235 31.7656C34.4945 31.7656 32.7676 30.0388 32.7676 27.9097C32.7676 25.7806 34.4945 24.0538 36.6235 24.0538C38.7526 24.0538 40.4795 25.7806 40.4795 27.9097Z" fill="white"/>
</g>
<g filter="url(#filter2_ii_413_1600)">
<path d="M63.5 37.6719H61.25V36.8281C61.25 36.5187 60.9969 36.2656 60.6875 36.2656H12.3125C12.0031 36.2656 11.75 36.5187 11.75 36.8281V41.7247C11.75 53.7762 21.5206 63.5469 33.5722 63.5469H39.4278C45.6322 63.5469 51.2262 60.9538 55.2003 56.7969H57.875C64.6813 56.7969 70.25 51.2281 70.25 44.4219C70.25 40.7094 67.2125 37.6719 63.5 37.6719ZM58.5359 52.2659C60.1953 49.2622 61.1656 45.8281 61.2388 42.1719H63.5C64.7206 42.1719 65.75 43.2013 65.75 44.4219C65.75 48.5422 62.5691 51.9313 58.5359 52.2659Z" fill="url(#paint1_linear_413_1600)"/>
</g>
<defs>
<filter id="filter0_ii_413_1600" x="14.23" y="61.5156" width="44.54" height="12.5" filterUnits="userSpaceOnUse" color-interpolation-filters="sRGB">
<feFlood flood-opacity="0" result="BackgroundImageFix"/>
<feBlend mode="normal" in="SourceGraphic" in2="BackgroundImageFix" result="shape"/>
<feColorMatrix in="SourceAlpha" type="matrix" values="0 0 0 0 0 0 0 0 0 0 0 0 0 0 0 0 0 0 127 0" result="hardAlpha"/>
<feOffset dx="-4" dy="-4"/>
<feGaussianBlur stdDeviation="4"/>
<feComposite in2="hardAlpha" operator="arithmetic" k2="-1" k3="1"/>
<feColorMatrix type="matrix" values="0 0 0 0 0.121569 0 0 0 0 0.235294 0 0 0 0 0.415686 0 0 0 0.25 0"/>
<feBlend mode="normal" in2="shape" result="effect1_innerShadow_413_1600"/>
<feColorMatrix in="SourceAlpha" type="matrix" values="0 0 0 0 0 0 0 0 0 0 0 0 0 0 0 0 0 0 127 0" result="hardAlpha"/>
<feOffset dx="4" dy="4"/>
<feGaussianBlur stdDeviation="4"/>
<feComposite in2="hardAlpha" operator="arithmetic" k2="-1" k3="1"/>
<feColorMatrix type="matrix" values="0 0 0 0 1 0 0 0 0 1 0 0 0 0 1 0 0 0 0.5 0"/>
<feBlend mode="normal" in2="effect1_innerShadow_413_1600" result="effect2_innerShadow_413_1600"/>
</filter>
<filter id="filter1_dii_413_1600" x="15.4185" y="1.38922" width="44.4097" height="33.7514" filterUnits="userSpaceOnUse" color-interpolation-filters="sRGB">
<feFlood flood-opacity="0" result="BackgroundImageFix"/>
<feColorMatrix in="SourceAlpha" type="matrix" values="0 0 0 0 0 0 0 0 0 0 0 0 0 0 0 0 0 0 127 0" result="hardAlpha"/>
<feOffset dx="1.125" dy="1.125"/>
<feGaussianBlur stdDeviation="1.125"/>
<feComposite in2="hardAlpha" operator="out"/>
<feColorMatrix type="matrix" values="0 0 0 0 0.133333 0 0 0 0 0.180392 0 0 0 0 0.227451 0 0 0 0.25098 0"/>
<feBlend mode="normal" in2="BackgroundImageFix" result="effect1_dropShadow_413_1600"/>
<feBlend mode="normal" in="SourceGraphic" in2="effect1_dropShadow_413_1600" result="shape"/>
<feColorMatrix in="SourceAlpha" type="matrix" values="0 0 0 0 0 0 0 0 0 0 0 0 0 0 0 0 0 0 127 0" result="hardAlpha"/>
<feOffset dx="1.125" dy="1.125"/>
<feGaussianBlur stdDeviation="1.125"/>
<feComposite in2="hardAlpha" operator="arithmetic" k2="-1" k3="1"/>
<feColorMatrix type="matrix" values="0 0 0 0 1 0 0 0 0 1 0 0 0 0 1 0 0 0 0.25 0"/>
<feBlend mode="normal" in2="shape" result="effect2_innerShadow_413_1600"/>
<feColorMatrix in="SourceAlpha" type="matrix" values="0 0 0 0 0 0 0 0 0 0 0 0 0 0 0 0 0 0 127 0" result="hardAlpha"/>
<feOffset dx="-1.125" dy="-1.125"/>
<feGaussianBlur stdDeviation="1.125"/>
<feComposite in2="hardAlpha" operator="arithmetic" k2="-1" k3="1"/>
<feColorMatrix type="matrix" values="0 0 0 0 0 0 0 0 0 0 0 0 0 0 0 0 0 0 0.25 0"/>
<feBlend mode="normal" in2="effect2_innerShadow_413_1600" result="effect3_innerShadow_413_1600"/>
</filter>
<filter id="filter2_ii_413_1600" x="7.75" y="32.2656" width="66.5" height="35.2812" filterUnits="userSpaceOnUse" color-interpolation-filters="sRGB">
<feFlood flood-opacity="0" result="BackgroundImageFix"/>
<feBlend mode="normal" in="SourceGraphic" in2="BackgroundImageFix" result="shape"/>
<feColorMatrix in="SourceAlpha" type="matrix" values="0 0 0 0 0 0 0 0 0 0 0 0 0 0 0 0 0 0 127 0" result="hardAlpha"/>
<feOffset dx="-4" dy="-4"/>
<feGaussianBlur stdDeviation="4"/>
<feComposite in2="hardAlpha" operator="arithmetic" k2="-1" k3="1"/>
<feColorMatrix type="matrix" values="0 0 0 0 0.121569 0 0 0 0 0.235294 0 0 0 0 0.415686 0 0 0 0.25 0"/>
<feBlend mode="normal" in2="shape" result="effect1_innerShadow_413_1600"/>
<feColorMatrix in="SourceAlpha" type="matrix" values="0 0 0 0 0 0 0 0 0 0 0 0 0 0 0 0 0 0 127 0" result="hardAlpha"/>
<feOffset dx="4" dy="4"/>
<feGaussianBlur stdDeviation="4"/>
<feComposite in2="hardAlpha" operator="arithmetic" k2="-1" k3="1"/>
<feColorMatrix type="matrix" values="0 0 0 0 1 0 0 0 0 1 0 0 0 0 1 0 0 0 0.5 0"/>
<feBlend mode="normal" in2="effect1_innerShadow_413_1600" result="effect2_innerShadow_413_1600"/>
</filter>
<linearGradient id="paint0_linear_413_1600" x1="35.0697" y1="65.5156" x2="35.0697" y2="70.0156" gradientUnits="userSpaceOnUse">
<stop stop-color="white" stop-opacity="0.5"/>
<stop offset="1" stop-color="white" stop-opacity="0.05"/>
</linearGradient>
<linearGradient id="paint1_linear_413_1600" x1="38.7101" y1="36.2656" x2="38.7101" y2="63.5469" gradientUnits="userSpaceOnUse">
<stop stop-color="white" stop-opacity="0.5"/>
<stop offset="1" stop-color="white" stop-opacity="0.05"/>
</linearGradient>
</defs>
</svg>
