<svg width="32" height="32" viewBox="0 0 32 32" fill="white" xmlns="http://www.w3.org/2000/svg"><path d="M28.266 2.246C23.8 2.881 19.27 3.525 14.821 4.25v11.137c2.512 0 5.05-.026 7.589-.051a755.28 755.28 0 0 1 7.59-.051V2l-1.734.246ZM13.487 4.452C9.59 4.86 5.797 5.372 2 5.985v9.503c1.885 0 3.77-.025 5.667-.05 1.923-.026 3.859-.052 5.82-.052V4.452ZM5.79 16.635c2.54.023 5.095.046 7.697-.022v11.036c-3.872-.507-7.643-1.015-11.414-1.523L2 26.116v-9.503c1.262 0 2.524.011 3.79.022ZM30 16.715H14.82v11.139c1.749.249 3.51.485 5.274.722 3.307.444 6.628.89 9.906 1.424V16.715Z"></path></svg>