<svg width="1600" height="910" viewBox="0 0 1600 910" fill="none" xmlns="http://www.w3.org/2000/svg">
<g opacity="0.3">
<path d="M710.816 158H770.865H877C885.56 158 892.5 151.06 892.5 142.5C892.5 133.94 899.44 127 908 127H1069C1077.56 127 1084.5 133.94 1084.5 142.5C1084.5 151.06 1077.56 158 1069 158H975.045C967.288 158 961 164.288 961 172.045C961 179.802 967.288 186.09 975.045 186.09H1006.79C1014.09 186.09 1020 192.002 1020 199.295C1020 206.588 1014.09 212.5 1006.79 212.5H897.975C888.6 212.5 881 220.1 881 229.475C881 238.85 888.6 246.449 897.975 246.449H922.657C929.198 246.449 934.5 251.752 934.5 258.292C934.5 264.833 929.198 270.135 922.657 270.135H770.865H713.961C707.421 270.135 702.118 264.833 702.118 258.292C702.118 251.752 707.421 246.449 713.961 246.449H724.267C731.862 246.449 738.019 240.292 738.019 232.697C738.019 225.101 731.862 218.944 724.267 218.944H619.244C610.172 218.944 602.817 211.589 602.817 202.517C602.817 193.444 610.172 186.09 619.244 186.09H682.726C690.483 186.09 696.771 179.802 696.771 172.045C696.771 164.288 703.06 158 710.816 158Z" fill="white" fill-opacity="0.27"/>
<path d="M551.923 608.607H670.363C690.798 608.607 707.363 625.172 707.363 645.607V661C707.363 681.435 690.798 698 670.363 698H468.281C459.841 698 453 691.159 453 682.719C453 674.28 459.841 667.438 468.281 667.438H581.324C588.919 667.438 595.077 661.281 595.077 653.685C595.077 646.09 588.919 639.933 581.324 639.933H551.923C543.272 639.933 536.26 632.92 536.26 624.27C536.26 615.619 543.272 608.607 551.923 608.607Z" fill="white" fill-opacity="0.27"/>
<path d="M106.166 307.5H133.75C141.62 307.5 148 301.12 148 293.25C148 285.38 141.62 279 133.75 279H106.166C98.2955 279 91.9155 285.38 91.9155 293.25C91.9155 301.12 98.2955 307.5 106.166 307.5Z" fill="white" fill-opacity="0.27"/>
<path d="M1185.03 246.449H1089.97C1080.6 246.449 1073 238.85 1073 229.475C1073 220.1 1080.6 212.5 1089.97 212.5H1185.03C1194.4 212.5 1202 220.1 1202 229.475C1202 238.85 1194.4 246.449 1185.03 246.449Z" fill="white" fill-opacity="0.27"/>
<path d="M497.5 158H520.76C529.32 158 536.26 151.06 536.26 142.5C536.26 133.94 529.32 127 520.76 127H497.5C488.94 127 482 133.94 482 142.5C482 151.06 488.94 158 497.5 158Z" fill="white" fill-opacity="0.27"/>
</g>
<path d="M1248.3 499.106L1260.63 547.815H1235.96L1248.3 499.106Z" fill="#139BA5"/>
<path d="M1346.29 568.609L1358.62 617.317H1333.95L1346.29 568.609Z" fill="#139BA5"/>
<path d="M967.563 284.869L979.897 333.578H955.228L967.563 284.869Z" fill="#139BA5"/>
<path d="M954.737 296.626L967.072 345.334H942.403L954.737 296.626Z" fill="#139BA5"/>
<path d="M1211.84 454.671L1231.08 530.724H1192.6L1211.84 454.671Z" fill="#139BA5"/>
<path d="M778.874 529.3C768.392 546.163 742.224 585.32 730.45 602.79C724.753 602.79 712.562 605.183 709.372 614.754C706.181 624.325 678.039 723.185 664.366 771.418H1203.29L1485 765.5C1479.3 746.89 1522.37 750.956 1485 750.5C1438.29 749.93 1353.12 609.627 1334.32 597.663C1315.52 585.7 1272.23 539.555 1260.83 533.288C1249.44 527.022 1211.27 528.161 1208.42 523.603C1205.57 519.046 1168.54 455.81 1163.41 445.556C1158.29 435.301 1115.56 428.465 1101.32 424.477C1087.08 420.49 1067.14 369.787 1063.15 358.963C1059.16 348.139 1038.08 296.297 1031.82 296.297C1025.55 296.297 997.635 295.728 989.659 296.297C981.683 296.867 977.696 305.412 973.708 309.4C969.72 313.388 960.605 309.97 949.211 313.388C937.817 316.806 864.897 429.605 841.54 462.647C818.182 495.689 791.977 508.222 778.874 529.3Z" fill="#11B4B7"/>
<path d="M778.874 529.3C768.392 546.163 742.224 585.32 730.45 602.79C724.753 602.79 712.562 605.183 709.372 614.754C706.181 624.325 678.039 723.185 664.366 771.418H1203.29L1485 765.5C1479.3 746.89 1522.37 750.956 1485 750.5C1438.29 749.93 1353.12 609.627 1334.32 597.663C1315.52 585.7 1272.23 539.555 1260.83 533.288C1249.44 527.022 1211.27 528.161 1208.42 523.603C1205.57 519.046 1168.54 455.81 1163.41 445.556C1158.29 435.301 1115.56 428.465 1101.32 424.477C1087.08 420.49 1067.14 369.787 1063.15 358.963C1059.16 348.139 1038.08 296.297 1031.82 296.297C1025.55 296.297 997.635 295.728 989.659 296.297C981.683 296.867 977.696 305.412 973.708 309.4C969.72 313.388 960.605 309.97 949.211 313.388C937.817 316.806 864.897 429.605 841.54 462.647C818.182 495.689 791.977 508.222 778.874 529.3Z" fill="url(#paint0_linear_25_2758)" fill-opacity="0.63"/>
<g style="mix-blend-mode:soft-light" opacity="0.6">
<path fill-rule="evenodd" clip-rule="evenodd" d="M1033.21 296.923C1034.41 301.205 1034.62 305.261 1032.96 308.26C1027.26 318.515 1022.7 322.503 1010.74 322.503H987.381C981.684 322.503 976.557 327.63 971.43 343.012C971.094 344.018 970.764 345.026 970.433 346.035C965.71 360.448 960.973 374.903 941.806 382.89C926.763 389.158 921.834 395.425 914.431 404.841L914.43 404.841L914.43 404.841C911.74 408.262 908.723 412.099 904.776 416.502C889.964 433.023 859.77 464.355 831.286 493.41C816.049 508.952 805.702 515.365 797.281 520.584C789.96 525.122 784.094 528.758 777.735 536.706C774.601 540.624 771.36 543.638 768.22 545.934C772.465 539.418 776.186 533.626 778.875 529.3C784.995 519.455 793.973 511.474 804.184 502.398C815.836 492.04 829.093 480.256 841.541 462.647C847.527 454.178 856.768 440.472 867.395 424.711C898.233 378.972 940.738 315.93 949.212 313.388C954.635 311.761 959.541 311.683 963.624 311.618C968.121 311.546 971.619 311.49 973.709 309.4C974.736 308.373 975.763 307.043 976.858 305.626C980.015 301.539 983.739 296.72 989.66 296.297C995.614 295.872 1012.68 296.082 1023.56 296.215C1027.25 296.261 1030.23 296.297 1031.82 296.297C1032.22 296.297 1032.69 296.514 1033.21 296.923ZM1298.56 566.889L1294.26 564.358L1369.08 646.12L1379.03 626.767C1364.69 617.703 1352.38 609.558 1343.91 603.953C1339.68 601.158 1336.41 598.994 1334.32 597.663C1325.73 592.192 1312.01 579.573 1298.56 566.889Z" fill="white"/>
</g>
<path opacity="0.2" d="M831.285 580.003C801.661 582.737 708.042 707.233 664.936 769.139L659.809 781.673H974.847L1100.18 810.157C1105.31 774.267 1425.6 778.611 1428.89 769.139C1461.93 674.001 1349.7 692.232 1251.72 562.912C1245.51 554.726 1176.61 532.448 1170.25 530.44C1116.13 513.349 1116 511.64 1089.92 463.216C1086.49 456.84 1040.93 366.939 1035.23 364.09C1029.54 361.242 993.905 388.312 990.229 389.726C982.823 392.575 896.799 549.239 883.127 550.948C869.454 552.658 868.315 576.584 831.285 580.003Z" fill="url(#paint1_linear_25_2758)"/>
<g style="mix-blend-mode:soft-light">
<path d="M1154.3 448.974C1154.3 440.429 1102.46 428.465 1100.18 434.162C1097.9 439.859 1154.3 460.368 1154.3 448.974Z" fill="#CFF0F1"/>
</g>
<path fill-rule="evenodd" clip-rule="evenodd" d="M867.394 424.711C898.232 378.972 940.737 315.93 949.211 313.388C949.674 313.249 950.134 313.121 950.589 313.004L954.736 296.626L958.575 311.785C959.327 311.737 960.06 311.704 960.773 311.68L967.563 284.869L973.761 309.347C974.77 308.327 975.781 307.019 976.857 305.626C979.62 302.05 982.816 297.914 987.538 296.652C988.213 296.472 988.919 296.35 989.659 296.297L989.66 296.297C990.404 296.244 991.322 296.201 992.379 296.166C999.783 295.923 1014.04 296.098 1023.55 296.215L1023.56 296.215C1027.25 296.261 1030.23 296.297 1031.82 296.297C1032.22 296.297 1032.69 296.514 1033.21 296.923L1033.21 296.924C1040.74 302.837 1059.42 348.84 1063.15 358.963C1067.14 369.787 1087.08 420.49 1101.32 424.477C1104.58 425.392 1109.35 426.456 1114.81 427.676C1133.18 431.779 1159.46 437.652 1163.41 445.556C1167.02 452.771 1186.42 486.216 1198.6 506.995L1211.84 454.671L1230.31 527.701C1233.76 528.024 1237.32 528.362 1240.79 528.762L1248.3 499.107L1256.52 531.571C1258.2 532.074 1259.66 532.642 1260.83 533.288C1266.16 536.222 1278.49 547.893 1292.02 560.707L1292.02 560.708L1292.02 560.709L1292.02 560.71C1296.4 564.858 1300.91 569.126 1305.35 573.256L1305.35 573.256C1316.48 583.62 1327.17 593.113 1334.32 597.663C1335.36 598.323 1336.69 599.188 1338.28 600.234L1346.29 568.609L1357.5 612.909C1363.99 617.151 1371.42 621.962 1379.49 627.058L1379.49 627.058C1422.25 654.051 1482.79 689.005 1513.77 689.383C1551.15 689.839 1571.88 727.173 1577.58 745.782L1432.77 755.701C1431.83 759.919 1430.54 764.388 1428.89 769.139C1427.78 772.344 1390.37 773.967 1341.16 776.103C1244.93 780.278 1103.57 786.411 1100.18 810.157L974.847 781.673H659.809L664.936 769.139L665.065 768.954C678.974 719.9 706.235 624.164 709.372 614.754C712.562 605.183 724.753 602.79 730.45 602.79C742.224 585.32 768.392 546.163 778.874 529.3C784.994 519.455 793.972 511.475 804.183 502.398C815.835 492.04 829.092 480.256 841.54 462.647C847.526 454.179 856.767 440.472 867.394 424.711L867.394 424.711Z" fill="#11B4B7" fill-opacity="0.33"/>
<path d="M1322.36 641.529L1334.69 686.819H1310.02L1322.36 641.529Z" fill="#139BA5"/>
<path d="M1302.99 652.923L1314.34 693.086H1291.64L1302.99 652.923Z" fill="#139BA5"/>
<g filter="url(#filter0_d_25_2758)">
<path d="M817.613 500.246L832.907 555.791H802.318L817.613 500.246Z" fill="#139BA5"/>
<path d="M796.534 526.452L806.402 563.197H786.667L796.534 526.452Z" fill="#139BA5"/>
<path d="M552.707 721.286C533.11 737.237 462.886 787.559 430.224 810.727H1439.14C1439.14 807.712 1379.33 793.066 1367.36 783.951C1361.1 779.177 1246.49 759.422 1244.88 756.606C1242.6 752.618 1232.92 744.073 1219.24 742.934C1205.57 741.794 1141.2 724.134 1123.54 720.716C1105.88 717.298 1093.91 700.777 1090.49 696.219C1087.08 691.662 1075.68 691.092 1064.86 688.813C1054.03 686.534 1032.39 662.038 1018.71 650.644C1005.04 639.25 887.115 495.119 883.127 495.119H867.176C860.909 495.119 829.006 541.833 817.043 547.53C805.079 553.227 732.159 572.027 724.184 574.306C716.208 576.584 647.275 679.129 635.312 688.244C623.348 697.359 577.204 701.346 552.707 721.286Z" fill="#11B4B7"/>
<path d="M552.707 721.286C533.11 737.237 462.886 787.559 430.224 810.727H1439.14C1439.14 807.712 1379.33 793.066 1367.36 783.951C1361.1 779.177 1246.49 759.422 1244.88 756.606C1242.6 752.618 1232.92 744.073 1219.24 742.934C1205.57 741.794 1141.2 724.134 1123.54 720.716C1105.88 717.298 1093.91 700.777 1090.49 696.219C1087.08 691.662 1075.68 691.092 1064.86 688.813C1054.03 686.534 1032.39 662.038 1018.71 650.644C1005.04 639.25 887.115 495.119 883.127 495.119H867.176C860.909 495.119 829.006 541.833 817.043 547.53C805.079 553.227 732.159 572.027 724.184 574.306C716.208 576.584 647.275 679.129 635.312 688.244C623.348 697.359 577.204 701.346 552.707 721.286Z" fill="url(#paint2_linear_25_2758)" fill-opacity="0.6"/>
<path d="M750.389 754.328C741.274 759.455 694.56 783.382 663.796 791.357L678.608 809.018L957.756 806.169L1296.15 799.333C1303.37 801.422 1304.81 800.7 1252.86 781.103C1187.91 756.606 1117.27 736.667 1103.03 732.679C1088.78 728.692 1085.37 720.716 1079.67 713.88C1073.97 707.043 1033.52 711.601 1013.02 684.825C992.507 658.05 893.951 521.894 884.266 525.882C874.582 529.87 866.606 631.275 856.352 638.681C846.097 646.087 821.6 655.202 821.6 662.608C821.6 670.014 823.309 703.056 821.6 720.716C819.891 738.376 796.534 737.237 790.268 746.922C784.001 756.606 759.504 749.2 750.389 754.328Z" fill="#1BB4B7" fill-opacity="0.22"/>
<g style="mix-blend-mode:soft-light" opacity="0.5">
<path fill-rule="evenodd" clip-rule="evenodd" d="M884.147 495.8C882.624 498.525 878.926 499.316 875.721 500.002C873.447 500.488 871.421 500.922 870.594 501.955C870.021 502.671 867.576 505.871 864.146 510.361C853.931 523.731 834.98 548.536 830.716 553.227C827.554 556.705 800.173 564.747 775.165 572.091C755.117 577.978 736.594 583.418 733.299 585.699C729.979 587.998 714.753 613.765 697.577 642.832C676.438 678.606 652.344 719.38 643.858 727.552C635.937 735.18 624.542 736.009 613.562 736.808C603.219 737.561 593.244 738.287 586.889 744.643C579.769 751.762 565.25 770.15 551.646 787.378C544.868 795.961 538.318 804.256 533.024 810.727H430.224C462.886 787.559 533.11 737.237 552.707 721.286C567.427 709.304 589.964 703.082 608.204 698.047C620.318 694.702 630.537 691.881 635.312 688.244C641.038 683.881 659.813 658.118 678.709 632.188C699.295 603.94 720.025 575.494 724.184 574.306C725.769 573.853 729.918 572.747 735.645 571.222C758.735 565.072 807.457 552.095 817.043 547.53C823.243 544.578 834.797 530.61 845.364 517.836C855.187 505.961 864.157 495.119 867.176 495.119H883.127C883.287 495.119 883.632 495.352 884.147 495.8Z" fill="white"/>
</g>
</g>
<path fill-rule="evenodd" clip-rule="evenodd" d="M996.854 739.8L981.484 699.637L966.113 739.8H969.31L958.665 769.709H1003.68L993.033 739.8H996.854Z" fill="#139BA5"/>
<path fill-rule="evenodd" clip-rule="evenodd" d="M980.702 706.795C979.36 714.306 978.161 721.016 982.163 725.746C985.434 729.611 990.618 732.495 994.73 734.252L981.75 700.335C981.463 702.533 981.077 704.695 980.702 706.795ZM996.793 739.64H976.285C983.054 743.737 994.882 754.817 988.041 766.36C987.325 767.569 986.973 768.683 986.935 769.709H1003.68L993.033 739.801H996.854L996.793 739.64ZM967.181 745.781L972.544 740.174L973.078 739.64H966.175L966.113 739.801H969.309L967.181 745.781Z" fill="#0E8B9A"/>
<path d="M955.458 744.449V761.55C955.458 762.14 954.98 762.619 954.39 762.619H914.31C913.72 762.619 913.241 762.14 913.241 761.55V744.449H911.012C910.06 744.449 909.583 743.298 910.256 742.625L918.807 734.074C919.007 733.874 919.279 733.761 919.562 733.761H949.137C949.421 733.761 949.693 733.874 949.893 734.074L958.443 742.625C959.117 743.298 958.64 744.449 957.688 744.449H955.458Z" fill="#149CA5"/>
<path fill-rule="evenodd" clip-rule="evenodd" d="M955.458 761.016V744.449L913.241 744.449V744.683L953.321 748.19V761.016H955.458Z" fill="#0E8B9A"/>
<g style="mix-blend-mode:soft-light" opacity="0.5">
<rect x="941.563" y="747.656" width="7.48154" height="6.41275" rx="0.801593" fill="white"/>
</g>
<g style="mix-blend-mode:soft-light" opacity="0.5">
<rect x="929.807" y="747.656" width="7.48154" height="6.41275" rx="0.801593" fill="white"/>
</g>
<path d="M848.376 764.582C835.273 771.418 768.05 802.182 704.814 802.751L709.058 810.727H1211.66C1181.55 799.264 1151.99 789.719 1141.77 783.951C1119.55 771.418 1087.08 768.57 1075.11 768C1063.15 767.43 1041.5 752.049 1027.83 752.049H986.811C981.114 752.049 958.896 757.176 952.629 758.315C946.363 759.455 914.46 755.467 895.091 752.049C875.721 748.631 861.479 757.746 848.376 764.582Z" fill="#11B4B7"/>
<path d="M848.376 764.582C835.273 771.418 768.05 802.182 704.814 802.751L709.058 810.727H1211.66C1181.55 799.264 1151.99 789.719 1141.77 783.951C1119.55 771.418 1087.08 768.57 1075.11 768C1063.15 767.43 1041.5 752.049 1027.83 752.049H986.811C981.114 752.049 958.896 757.176 952.629 758.315C946.363 759.455 914.46 755.467 895.091 752.049C875.721 748.631 861.479 757.746 848.376 764.582Z" fill="url(#paint3_linear_25_2758)"/>
<path fill-rule="evenodd" clip-rule="evenodd" d="M1162.99 792.893C1122.48 786.259 1054.64 774.483 1038.29 769.032C1028.34 765.714 1014.39 768.702 997.983 772.217C977.399 776.627 952.948 781.866 927.669 776.513C908.027 772.353 893.68 774.989 873.395 778.716C854.333 782.218 830.026 786.684 791.153 787.379C766.406 795.185 736.717 802.032 707.681 802.705L742.084 810.727H1107.39L1170.29 795.581C1167.75 794.656 1165.31 793.759 1162.99 792.893Z" fill="#1BB4B7" fill-opacity="0.25"/>
<path fill-rule="evenodd" clip-rule="evenodd" d="M866.85 764.224C870.781 762.846 874.522 761.535 877.97 760.481C888.066 757.396 898.897 759.021 908.688 760.489C917.555 761.819 925.569 763.021 931.41 760.481C932.761 759.894 933.818 758.876 934.626 757.524C922.311 756.281 906.519 754.065 895.091 752.049C877.63 748.967 864.336 756.07 852.288 762.508C850.97 763.212 849.668 763.908 848.376 764.582C845.124 766.279 838.537 769.45 829.504 773.267C841.86 772.985 855.192 768.311 866.85 764.224ZM975.473 753.669C980.407 752.739 984.721 752.049 986.811 752.049H1027.83C1031.64 752.049 1036.08 753.247 1040.76 754.988C1032.53 758.68 1018.82 760.481 1004.62 760.481C988.559 760.481 979.411 758.385 975.473 753.669Z" fill="#A6E9EA"/>
<circle cx="903.621" cy="747.121" r="2.67198" fill="#A9EAEB"/>
<circle cx="903.622" cy="752.465" r="3.74077" fill="#A9EAEB"/>
<path d="M1488.02 381.75L1493.54 779.395C1493.61 784.408 1489.56 788.509 1484.55 788.509C1479.54 788.509 1475.49 784.408 1475.56 779.395L1481.08 381.75C1481.11 379.855 1482.65 378.332 1484.55 378.332C1486.45 378.332 1487.99 379.855 1488.02 381.75Z" fill="#01657F"/>
<path d="M1480.06 435.097C1481.82 432.114 1486.14 432.114 1487.9 435.097L1534.87 514.51C1536.06 516.521 1533.81 518.806 1531.78 517.651L1486.23 491.726C1484.84 490.93 1483.12 490.93 1481.73 491.726L1436.18 517.651C1434.14 518.806 1431.9 516.521 1433.09 514.51L1480.06 435.097Z" fill="#01657F"/>
<path fill-rule="evenodd" clip-rule="evenodd" d="M1440.82 501.436C1449.06 491.997 1454.94 485.962 1469.74 482.016C1482.83 478.524 1493.53 467.416 1500.78 456.874L1487.9 435.097C1486.14 432.114 1481.82 432.114 1480.06 435.097L1440.82 501.436Z" fill="url(#paint4_linear_25_2758)"/>
<path fill-rule="evenodd" clip-rule="evenodd" d="M1475.86 757.581L1477.97 605.75L1491.24 614.18L1493.14 750.935L1475.86 757.581Z" fill="url(#paint5_linear_25_2758)"/>
<path d="M1480.07 368.873C1481.85 365.929 1486.11 365.929 1487.88 368.873L1523.42 427.947C1524.63 429.949 1522.4 432.251 1520.36 431.11L1486.2 411.999C1484.82 411.226 1483.14 411.226 1481.75 411.999L1447.6 431.11C1445.56 432.251 1443.33 429.949 1444.54 427.947L1480.07 368.873Z" fill="#01657F"/>
<path fill-rule="evenodd" clip-rule="evenodd" d="M1444.62 430.426C1451 427.296 1457.79 421.923 1463.47 413.083C1475.25 394.764 1489.7 393.476 1503.24 394.39L1487.89 368.873C1486.11 365.929 1481.85 365.929 1480.07 368.873L1444.54 427.947C1444.01 428.82 1444.14 429.749 1444.62 430.426Z" fill="url(#paint6_linear_25_2758)"/>
<path d="M1480.08 515.799C1481.86 512.87 1486.1 512.87 1487.88 515.799L1541.71 604.698C1542.92 606.687 1540.72 608.991 1538.67 607.88L1486.16 579.325C1484.8 578.587 1483.16 578.587 1481.8 579.325L1429.29 607.88C1427.24 608.991 1425.04 606.687 1426.25 604.698L1480.08 515.799Z" fill="#01657F"/>
<path fill-rule="evenodd" clip-rule="evenodd" d="M1454.02 584.56C1460.14 578.038 1465.58 572.238 1470.31 570.888C1470.88 570.724 1471.46 570.56 1472.05 570.393C1483.81 567.067 1498.79 562.829 1498.79 549.809C1498.79 545.1 1499.78 540.996 1501.11 537.652L1487.88 515.799C1486.11 512.87 1481.86 512.87 1480.08 515.799L1426.25 604.698C1426.05 605.023 1425.95 605.357 1425.92 605.683C1436.44 603.306 1445.84 593.287 1454.02 584.56Z" fill="url(#paint7_linear_25_2758)"/>
<path d="M1295.04 535L1298.79 805.132C1298.85 808.92 1295.79 812.02 1292 812.02C1288.21 812.02 1285.15 808.92 1285.21 805.132L1288.96 535C1288.98 533.337 1290.34 532 1292 532C1293.66 532 1295.02 533.337 1295.04 535Z" fill="#01657F"/>
<path d="M1287.58 582.633C1289.34 579.649 1293.66 579.649 1295.42 582.633L1335.63 650.616C1336.82 652.627 1334.57 654.912 1332.54 653.757L1293.75 631.679C1292.36 630.884 1290.64 630.884 1289.25 631.679L1250.46 653.757C1248.43 654.912 1246.18 652.627 1247.37 650.616L1287.58 582.633Z" fill="#01657F"/>
<path fill-rule="evenodd" clip-rule="evenodd" d="M1253.62 640.044C1260.85 631.761 1266.01 626.464 1279 623C1290.49 619.936 1299.88 610.186 1306.25 600.934L1295.42 582.633C1293.66 579.649 1289.34 579.649 1287.58 582.633L1253.62 640.044Z" fill="url(#paint8_linear_25_2758)"/>
<path fill-rule="evenodd" clip-rule="evenodd" d="M1284.38 864.856L1286.23 731.598L1297.87 738.997L1299.54 859.023L1284.38 864.856Z" fill="url(#paint9_linear_25_2758)"/>
<path d="M1287.59 524.492C1289.37 521.548 1293.63 521.548 1295.41 524.492L1325.58 574.646C1326.78 576.648 1324.55 578.95 1322.51 577.809L1293.73 561.701C1292.34 560.927 1290.66 560.927 1289.27 561.701L1260.49 577.809C1258.45 578.95 1256.22 576.648 1257.42 574.646L1287.59 524.492Z" fill="#01657F"/>
<path fill-rule="evenodd" clip-rule="evenodd" d="M1257.69 577.351C1263.07 574.558 1268.73 569.921 1273.5 562.5C1283.84 546.423 1296.52 545.292 1308.4 546.094L1295.4 524.493C1293.63 521.548 1289.37 521.548 1287.59 524.493L1257.42 574.646C1256.84 575.621 1257.06 576.666 1257.69 577.351Z" fill="url(#paint10_linear_25_2758)"/>
<path d="M1287.6 653.438C1289.38 650.509 1293.62 650.509 1295.4 653.438L1341.64 729.793C1342.84 731.783 1340.64 734.087 1338.6 732.976L1293.68 708.55C1292.32 707.812 1290.68 707.812 1289.32 708.55L1244.4 732.976C1242.36 734.087 1240.16 731.783 1241.36 729.793L1287.6 653.438Z" fill="#01657F"/>
<path fill-rule="evenodd" clip-rule="evenodd" d="M1265.21 713C1270.58 707.276 1275.35 702.186 1279.5 701C1280 700.857 1280.51 700.713 1281.03 700.567C1291.35 697.647 1304.5 693.928 1304.5 682.5C1304.5 678.367 1305.36 674.765 1306.54 671.831L1295.4 653.438C1293.62 650.509 1289.38 650.509 1287.6 653.438L1241.36 729.793C1241.04 730.335 1240.96 730.9 1241.07 731.413C1250.09 729.118 1258.16 720.513 1265.21 713Z" fill="url(#paint11_linear_25_2758)"/>
<g style="mix-blend-mode:soft-light" opacity="0.4">
<path d="M1396.29 499.109C1402 504.789 1394.06 521.884 1385.28 516.817C1372.37 509.361 1390.57 493.429 1396.29 499.109Z" fill="white"/>
</g>
<g style="mix-blend-mode:soft-light" opacity="0.4">
<path d="M1332.38 760.212C1339.49 756.416 1353.5 769.028 1346.08 775.93C1335.16 786.088 1325.27 764.008 1332.38 760.212Z" fill="white"/>
</g>
<g style="mix-blend-mode:soft-light" opacity="0.4">
<path d="M1334.12 531.367C1341.23 527.571 1355.24 540.183 1347.82 547.085C1336.9 557.243 1327.02 535.163 1334.12 531.367Z" fill="white"/>
</g>
<g style="mix-blend-mode:soft-light" opacity="0.4">
<path d="M1447.1 643.473C1454.58 640.484 1467.11 654.565 1458.97 660.606C1447 669.497 1439.61 646.461 1447.1 643.473Z" fill="white"/>
</g>
<g style="mix-blend-mode:soft-light" opacity="0.4">
<path d="M1514.99 677.44C1518.8 680.301 1515.54 690.949 1509.99 688.695C1501.82 685.378 1511.19 674.579 1514.99 677.44Z" fill="white"/>
</g>
<g style="mix-blend-mode:soft-light" opacity="0.4">
<path d="M1517.66 770.662C1521.47 773.524 1518.2 784.172 1512.66 781.918C1504.49 778.6 1513.86 767.801 1517.66 770.662Z" fill="white"/>
</g>
<path d="M667.215 659.247L684.337 710.77H681.141L692.602 740.409H687.573L699.688 774.203H634.743L646.858 740.409H641.828L653.289 710.77H650.093L667.215 659.247Z" fill="#139BA5"/>
<path opacity="0.3" fill-rule="evenodd" clip-rule="evenodd" d="M667.826 662.763C668.32 670.671 668.914 680.191 667.42 688.407C665.591 698.466 676.672 703.83 682.588 705.504L667.699 660.702C667.74 661.375 667.783 662.063 667.826 662.763L667.826 662.763ZM681.981 710.77C679.057 710.71 675.797 710.627 672.706 710.548L672.706 710.548H672.706H672.706L672.705 710.548C667.996 710.427 663.679 710.317 661.541 710.317C659.246 710.317 659.721 710.48 661.598 711.124C664.529 712.129 670.876 714.307 675.436 718.867C677.641 721.073 679.986 723.985 682.388 726.968C685.328 730.62 688.353 734.377 691.314 737.076L681.141 710.77H681.981ZM688.188 740.409C679.475 740.217 669.046 740.231 662.521 740.24H662.513H662.506H662.499H662.493C661.327 740.242 660.287 740.243 659.404 740.243C655.075 740.243 658.661 741.73 663.811 743.865C670.105 746.474 678.736 750.052 678.108 753.069C676.217 762.142 652.456 766.869 636.759 768.581L636.52 769.249L698.521 770.948L687.573 740.409H688.188ZM644.707 746.411C649.029 743.414 653.359 740.243 652.457 740.243C651.983 740.243 648.944 740.316 645.11 740.408L645.11 740.408L645.109 740.408L645.103 740.408C645.093 740.408 645.083 740.409 645.073 740.409H646.859L644.707 746.411ZM651.291 715.939C653.895 714.106 656.648 711.817 658.335 710.317L652.224 710.77H653.29L651.291 715.939Z" fill="#01657F"/>
<path fill-rule="evenodd" clip-rule="evenodd" d="M635.333 746.776L619.963 706.613L604.592 746.776H607.788L597.143 776.685H642.157L631.512 746.776H635.333Z" fill="#139BA5"/>
<path fill-rule="evenodd" clip-rule="evenodd" d="M618.997 717.003L618.997 717.003C619.594 714.44 620.247 711.638 620.619 708.329L630.508 734.168C629.677 733.916 628.812 733.675 627.942 733.433C623.06 732.073 618.011 730.668 617.72 726.883C617.466 723.578 618.179 720.515 618.997 717.003ZM635.287 746.656H613.445C618.433 751.287 626.912 762.153 620.927 768.566C614.941 774.979 629.833 771.238 638.027 768.566V765.082L631.512 746.776H635.333L635.287 746.656ZM606.254 751.087C607.913 749.246 609.825 747.397 611.308 746.656C610.274 746.656 608.607 746.686 607.073 746.776H607.789L606.254 751.087Z" fill="#0E8B9A"/>
<path d="M378.062 797.287C336.518 807.445 279.69 820.566 256.469 825.857C270.401 827.127 307.893 829.666 346.397 829.666C394.528 829.666 487.623 825.857 521.822 825.857C556.02 825.857 595.284 829.666 635.182 825.857C675.08 822.048 683.946 825.857 739.677 825.857C795.407 825.857 875.203 832.206 911.301 825.857C940.18 820.778 1001.02 815.275 1027.83 813.159C1023.4 801.096 824.539 797.287 807.44 795.382C764.139 790.559 730.386 765.542 683.946 765.542C658.795 765.542 627.518 754.266 606.051 771.256C591.824 771.256 569.942 757.348 559.82 759.193C552.853 760.463 527.521 763.003 505.356 765.542C483.19 768.082 429.993 784.589 378.062 797.287Z" fill="#11B4B7"/>
<path d="M378.062 797.287C336.518 807.445 279.69 820.566 256.469 825.857C270.401 827.127 307.893 829.666 346.397 829.666C394.528 829.666 487.623 825.857 521.822 825.857C556.02 825.857 595.284 829.666 635.182 825.857C675.08 822.048 683.946 825.857 739.677 825.857C795.407 825.857 875.203 832.206 911.301 825.857C940.18 820.778 1001.02 815.275 1027.83 813.159C1023.4 801.096 824.539 797.287 807.44 795.382C764.139 790.559 730.386 765.542 683.946 765.542C658.795 765.542 627.518 754.266 606.051 771.256C591.824 771.256 569.942 757.348 559.82 759.193C552.853 760.463 527.521 763.003 505.356 765.542C483.19 768.082 429.993 784.589 378.062 797.287Z" fill="url(#paint12_linear_25_2758)"/>
<path fill-rule="evenodd" clip-rule="evenodd" d="M974.735 803.789C962.956 806.063 950.605 808.961 938.57 811.785C924.183 815.161 910.247 818.431 898.278 820.403C869.115 825.206 811.978 821.198 758.261 817.431C728.309 815.33 699.421 813.304 677.038 812.921C645.658 812.385 638.238 814.271 630.323 816.284C622.467 818.281 614.123 820.403 581.381 820.403H361.745H280.231C270.641 822.616 262.443 824.496 256.469 825.857C270.401 827.127 307.893 829.666 346.397 829.666C372.514 829.666 411.869 828.545 447.87 827.519C478.217 826.654 506.18 825.857 521.822 825.857C532.848 825.857 544.401 826.253 556.332 826.662C581.405 827.521 608.148 828.438 635.182 825.857C659.499 823.535 672.289 824.043 691.187 824.795C703.296 825.276 717.913 825.857 739.677 825.857C758.092 825.857 779.135 826.55 800.361 827.249C843.371 828.666 887.131 830.108 911.301 825.857C940.18 820.778 1001.02 815.275 1027.83 813.159C1026.39 809.235 1004.37 806.185 974.735 803.789Z" fill="white" fill-opacity="0.2"/>
<g style="mix-blend-mode:soft-light">
<path fill-rule="evenodd" clip-rule="evenodd" d="M611.648 767.555C612.23 767.633 612.829 767.71 613.445 767.787C638.566 770.927 682.138 772.025 703.504 766.995C697.208 766.073 690.712 765.542 683.946 765.542C676.898 765.542 669.369 764.657 661.709 763.756C644.327 761.711 626.274 759.588 611.648 767.555ZM262.335 826.352C260.077 826.174 258.11 826.006 256.469 825.857C279.69 820.566 336.518 807.445 378.062 797.287C397.95 792.424 418.024 787.002 436.469 782.021C466.187 773.994 491.679 767.109 505.356 765.542C512.413 764.734 519.791 763.925 526.796 763.157C541.79 761.514 555.071 760.059 559.82 759.193C561.065 758.966 562.488 758.978 564.053 759.172C564.292 763.293 562.688 766.753 558.553 767.787C558.039 767.915 557.472 768.059 556.855 768.214C545.301 771.127 516.361 778.425 497.123 776.02C484.524 774.445 452.835 785.598 422.596 796.24C404.193 802.716 386.328 809.003 373.629 812.118C354.709 816.759 304.701 822.301 262.335 826.352Z" fill="white"/>
</g>
<path d="M1139.39 797.456C1099.63 807.666 1045.23 820.854 1023 826.171C1036.34 827.448 1072.22 830 1109.08 830C1155.16 830 1244.27 826.171 1277 826.171C1309.74 826.171 1347.33 830 1385.52 826.171C1423.71 822.343 1432.2 826.171 1485.54 826.171C1538.89 826.171 1544.71 830.381 1579.27 824C1606.91 818.895 1589.72 814.5 1589.72 812.5C1574.29 798.5 1566.78 797.456 1550.41 795.542C1508.96 790.694 1476.65 765.551 1432.2 765.551C1408.12 765.551 1378.18 754.217 1357.63 771.294C1344.01 771.294 1323.07 757.315 1313.38 759.169C1306.71 760.446 1282.46 762.998 1261.24 765.551C1240.03 768.103 1189.1 784.694 1139.39 797.456Z" fill="#11B4B7"/>
<path d="M1139.39 797.456C1099.63 807.666 1045.23 820.854 1023 826.171C1036.34 827.448 1072.22 830 1109.08 830C1155.16 830 1244.27 826.171 1277 826.171C1309.74 826.171 1347.33 830 1385.52 826.171C1423.71 822.343 1432.2 826.171 1485.54 826.171C1538.89 826.171 1544.71 830.381 1579.27 824C1606.91 818.895 1589.72 814.5 1589.72 812.5C1574.29 798.5 1566.78 797.456 1550.41 795.542C1508.96 790.694 1476.65 765.551 1432.2 765.551C1408.12 765.551 1378.18 754.217 1357.63 771.294C1344.01 771.294 1323.07 757.315 1313.38 759.169C1306.71 760.446 1282.46 762.998 1261.24 765.551C1240.03 768.103 1189.1 784.694 1139.39 797.456Z" fill="url(#paint13_linear_25_2758)"/>
<path d="M1353.58 800.64C1348.46 797.963 1300.38 781.566 1270.83 781.566C1241.28 781.566 1217.33 795.964 1227.85 800.64C1239.4 807.088 1341.49 815.685 1353.58 800.64Z" fill="url(#paint14_linear_25_2758)" fill-opacity="0.5"/>
<g filter="url(#filter1_d_25_2758)">
<path fill-rule="evenodd" clip-rule="evenodd" d="M534.051 799.148C534.017 798.53 534 797.908 534 797.282C534 778.587 549.155 763.432 567.85 763.432C586.545 763.432 601.7 778.587 601.7 797.282C601.7 801.699 600.854 805.917 599.316 809.785C593.879 809.884 587.825 809.753 582.626 809.103C579.369 808.696 575.53 808.546 571.403 808.384C559.186 807.907 544.445 807.33 534.806 799.7C534.564 799.508 534.312 799.324 534.051 799.148Z" fill="white"/>
<ellipse rx="1.61191" ry="1.88056" transform="matrix(-0.991167 0.132616 0.132616 0.991167 577.529 783.241)" fill="#1F3C6A"/>
<ellipse rx="1.61191" ry="1.88056" transform="matrix(-0.999673 0.02558 0.02558 0.999673 578.906 793.647)" fill="#1F3C6A"/>
<ellipse rx="1.61191" ry="1.88056" transform="matrix(-0.999765 -0.0216585 -0.0216585 0.999765 579.093 803.162)" fill="#1F3C6A"/>
<path fill-rule="evenodd" clip-rule="evenodd" d="M594.281 776.133C598.924 781.927 601.7 789.28 601.7 797.282C601.7 801.698 600.854 805.917 599.316 809.785C593.879 809.884 587.825 809.752 582.626 809.103C579.369 808.696 575.53 808.545 571.402 808.384C560.5 807.958 547.586 807.453 538.083 801.926C548.75 798.624 558.722 798.852 567.273 799.049C578.816 799.314 587.768 799.519 592.339 790.899C595.557 784.83 595.23 779.74 594.281 776.133Z" fill="#1BB4B7" fill-opacity="0.1"/>
<path fill-rule="evenodd" clip-rule="evenodd" d="M546.942 774.509C544.863 770.938 543.672 766.787 543.672 762.358C543.672 749.004 554.497 738.179 567.85 738.179C581.204 738.179 592.029 749.004 592.029 762.358C592.029 766.712 590.878 770.797 588.864 774.325C585.273 776.553 577.998 779.527 565.164 779.014C555.024 778.608 549.715 776.502 546.942 774.509Z" fill="white"/>
<ellipse rx="1.61191" ry="1.88056" transform="matrix(-0.991167 0.132616 0.132616 0.991167 574.835 750.805)" fill="#1F3C6A"/>
<ellipse rx="1.61191" ry="1.88056" transform="matrix(-0.999673 0.02558 0.02558 0.999673 576.212 761.211)" fill="#1F3C6A"/>
<ellipse rx="1.61191" ry="1.88056" transform="matrix(-0.999765 -0.0216585 -0.0216585 0.999765 576.4 770.726)" fill="#1F3C6A"/>
<path fill-rule="evenodd" clip-rule="evenodd" d="M588.184 749.269C588.321 753.488 586.9 757.753 583.25 760.047C579.736 762.255 575.173 761.988 570.218 761.698C562.005 761.218 552.717 760.674 545.353 771.233C545.493 771.588 545.641 771.938 545.797 772.285C547.929 774.169 555.246 779.242 571.698 778.584C580.297 778.24 585.422 776.673 588.472 774.989C590.728 771.313 592.029 766.987 592.029 762.358C592.029 757.535 590.617 753.042 588.184 749.269Z" fill="#1BB4B7" fill-opacity="0.1"/>
<path d="M552.269 729.582C552.269 738.188 559.245 745.164 567.85 745.164C576.456 745.164 583.432 738.188 583.432 729.582C583.432 720.976 576.456 714 567.85 714C559.245 714 552.269 720.976 552.269 729.582Z" fill="white"/>
<path fill-rule="evenodd" clip-rule="evenodd" d="M553.691 736.096C554.499 736.215 555.568 736.442 556.967 736.819C563.952 738.699 572.783 737.698 576.041 735.207C580.608 731.714 579.802 722.043 576.041 718.819C573.923 717.004 571.759 715.448 569.666 714.105C577.416 715.005 583.432 721.591 583.432 729.582C583.432 738.14 576.533 745.086 567.994 745.163L561.613 743.866C558.115 742.336 555.287 739.558 553.691 736.096Z" fill="#1BB4B7" fill-opacity="0.1"/>
<ellipse rx="1.61191" ry="1.88056" transform="matrix(-1 0 0 1 566.238 726.627)" fill="#1F3C6A"/>
<ellipse rx="1.61191" ry="1.88056" transform="matrix(-1 0 0 1 577.521 726.627)" fill="#1F3C6A"/>
<path d="M590.417 731.352L572.881 728.508C570.581 730.556 571.923 732.585 572.881 733.343L590.417 731.352Z" fill="#FF576F"/>
<path fill-rule="evenodd" clip-rule="evenodd" d="M589.935 731.274C584.006 731.634 574.091 732.13 573.492 731.731C572.847 731.301 572.202 729.84 572.521 728.86C570.734 730.784 571.978 732.628 572.881 733.343L590.417 731.352L589.935 731.274Z" fill="#1F3C6A" fill-opacity="0.1"/>
<path d="M571.074 735.761C569.418 736.388 565.743 736.621 564.292 732.537" stroke="#1F3C6A" stroke-width="1.13938" stroke-linecap="round"/>
<path d="M565.433 771.492C564.573 762.25 566.686 748.477 567.851 742.746L559.791 743.283C556.567 749.946 556.119 764.507 556.836 770.686L565.433 771.492Z" fill="#108C9B"/>
<path fill-rule="evenodd" clip-rule="evenodd" d="M564.463 771.401C563.82 764.804 563.11 752.852 564.601 748.75L558.596 746.499C558.943 745.302 559.34 744.215 559.791 743.283L565.666 742.892L567.719 743.405C566.536 749.476 564.604 762.587 565.432 771.492L564.463 771.401Z" fill="#1F3C6A" fill-opacity="0.2"/>
<path d="M583.701 744.089C583.916 742.585 582.537 738.627 581.82 736.836C574.029 740.06 559.343 739.164 553.612 736.836C552.752 739.415 552.537 742.746 552.537 744.089C563.552 749.462 583.432 745.97 583.701 744.089Z" fill="#108C9B"/>
<path fill-rule="evenodd" clip-rule="evenodd" d="M553.31 737.867C553.4 737.514 553.501 737.169 553.612 736.836C559.343 739.164 574.029 740.06 581.82 736.836C582.537 738.627 583.916 742.585 583.701 744.089C583.432 745.97 563.552 749.462 552.537 744.089C552.537 744.022 552.538 743.95 552.539 743.873C555.157 744.523 558.783 744.999 563.552 744.895C572.427 744.702 576.591 741.322 577.736 738.736C575.63 739.247 572.62 739.645 568.388 739.791C560.993 740.046 556.196 739.053 553.31 737.867Z" fill="#1F3C6A" fill-opacity="0.1"/>
</g>
<path d="M1287.17 736.797C1304.08 731.677 1332.24 729.043 1354.82 732.877C1382.65 743.354 1248.43 760.404 1247.15 754.035C1245.88 747.666 1270.25 741.917 1287.17 736.797Z" fill="url(#paint15_linear_25_2758)"/>
<path d="M1237.7 755.655C1226.68 749.774 1217.26 762.246 1225.14 763.929C1233.02 765.612 1245.31 761.302 1237.7 755.655Z" fill="url(#paint16_linear_25_2758)"/>
<g filter="url(#filter2_d_25_2758)">
<path fill-rule="evenodd" clip-rule="evenodd" d="M1449.88 774.64C1449.95 773.33 1449.98 772.01 1449.98 770.683C1449.98 731.039 1417.85 698.902 1378.2 698.902C1338.56 698.902 1306.42 731.039 1306.42 770.683C1306.42 780.048 1308.22 788.994 1311.48 797.197C1323.01 797.406 1335.85 797.127 1346.87 795.749C1353.78 794.886 1361.92 794.568 1370.67 794.225C1396.58 793.213 1427.84 791.991 1448.28 775.81C1448.79 775.403 1449.32 775.013 1449.88 774.64Z" fill="white"/>
<ellipse cx="1357.68" cy="740.907" rx="3.41814" ry="3.98783" transform="rotate(7.62078 1357.68 740.907)" fill="#1F3C6A"/>
<ellipse cx="1354.76" cy="762.974" rx="3.41814" ry="3.98783" transform="rotate(1.46579 1354.76 762.974)" fill="#1F3C6A"/>
<ellipse cx="1354.36" cy="783.15" rx="3.41814" ry="3.98783" transform="rotate(-1.24104 1354.36 783.15)" fill="#1F3C6A"/>
<path fill-rule="evenodd" clip-rule="evenodd" d="M1449.88 774.64C1449.95 773.33 1449.98 772.01 1449.98 770.683C1449.98 731.039 1417.85 698.902 1378.2 698.902C1338.56 698.902 1306.42 731.039 1306.42 770.683C1306.42 780.048 1308.22 788.994 1311.48 797.197C1323.01 797.406 1335.85 797.127 1346.87 795.749C1353.78 794.886 1361.92 794.568 1370.67 794.225C1396.58 793.213 1427.84 791.991 1448.28 775.81C1448.79 775.403 1449.32 775.013 1449.88 774.64Z" fill="#1BB4B7" fill-opacity="0.1"/>
<path fill-rule="evenodd" clip-rule="evenodd" d="M1422.54 722.391C1426.95 714.82 1429.48 706.016 1429.48 696.623C1429.48 668.306 1406.52 645.351 1378.2 645.351C1349.89 645.351 1326.93 668.306 1326.93 696.623C1326.93 705.856 1329.37 714.518 1333.64 722.001C1341.26 726.724 1356.68 733.032 1383.9 731.944C1405.4 731.084 1416.66 726.617 1422.54 722.391Z" fill="white"/>
<ellipse cx="1363.39" cy="672.126" rx="3.41814" ry="3.98783" transform="rotate(7.62078 1363.39 672.126)" fill="#1F3C6A"/>
<ellipse cx="1360.47" cy="694.193" rx="3.41814" ry="3.98783" transform="rotate(1.46579 1360.47 694.193)" fill="#1F3C6A"/>
<ellipse cx="1360.07" cy="714.37" rx="3.41814" ry="3.98783" transform="rotate(-1.24104 1360.07 714.37)" fill="#1F3C6A"/>
<path fill-rule="evenodd" clip-rule="evenodd" d="M1422.54 722.393C1426.95 714.821 1429.48 706.017 1429.48 696.623C1429.48 684.565 1425.31 673.48 1418.35 664.725C1420.13 675.143 1417.61 686.846 1408.4 692.635C1400.95 697.318 1391.27 696.752 1380.76 696.137C1364.03 695.158 1345.19 694.055 1329.89 713.83C1330.9 716.678 1332.16 719.41 1333.64 722.001C1341.26 726.724 1356.68 733.033 1383.9 731.944C1405.4 731.084 1416.66 726.618 1422.54 722.393Z" fill="#1BB4B7" fill-opacity="0.1"/>
<path d="M1369.97 559.82L1364.42 601.644L1398.19 607.607L1408.91 565.685C1397.41 556.39 1378.16 557.902 1369.97 559.82Z" fill="#11B4B7"/>
<g style="mix-blend-mode:soft-light" opacity="0.6">
<path d="M1370.23 577.558L1372.51 562.176C1382.53 558.986 1393.78 562.366 1398.14 564.455C1393.02 563.316 1387.32 567.304 1383.9 573.57C1381.17 578.583 1373.65 578.318 1370.23 577.558Z" fill="white"/>
</g>
<path fill-rule="evenodd" clip-rule="evenodd" d="M1371.23 583.897C1374.7 585.208 1378.57 586.671 1383.33 587.243C1397.08 588.893 1403.93 571.954 1405.92 563.606C1406.96 564.23 1407.96 564.921 1408.91 565.685L1398.49 606.448L1364.87 598.197L1366.97 582.383C1368.34 582.806 1369.75 583.338 1371.23 583.897Z" fill="#1F3C6A" fill-opacity="0.1"/>
<path d="M1384.2 588.507C1366.78 585.838 1352.12 587.204 1351.46 591.558L1350.86 596.358L1357.7 597.583C1363.2 600.256 1371.87 602.755 1381.78 604.274C1394.58 606.234 1405.88 606.018 1411.25 604.039L1413.52 605.473L1414.52 601.223C1415.19 596.869 1401.61 591.176 1384.2 588.507Z" fill="#11B4B7"/>
<path d="M1384.2 588.507C1366.78 585.838 1352.12 587.204 1351.46 591.558L1350.86 596.358L1357.7 597.583C1363.2 600.256 1371.87 602.755 1381.78 604.274C1394.58 606.234 1405.88 606.018 1411.25 604.039L1413.52 605.473L1414.52 601.223C1415.19 596.869 1401.61 591.176 1384.2 588.507Z" fill="white" fill-opacity="0.27"/>
<g style="mix-blend-mode:soft-light">
<path d="M1352.57 592.37L1352.57 590.661C1358.27 587.243 1367.76 588.002 1370.8 588.382C1362.14 588.838 1354.85 591.231 1352.57 592.37Z" fill="white"/>
</g>
<ellipse cx="1382.1" cy="600.613" rx="31.9026" ry="7.97566" transform="rotate(8.71271 1382.1 600.613)" fill="#12A8AF"/>
<path fill-rule="evenodd" clip-rule="evenodd" d="M1360.87 598.988C1351.44 604.808 1345.16 615.231 1345.16 627.121C1345.16 645.369 1359.96 660.163 1378.2 660.163C1396.45 660.163 1411.25 645.369 1411.25 627.121C1411.25 617.857 1407.43 609.483 1401.29 603.483C1382.17 595.514 1367.94 596.66 1360.87 598.988Z" fill="white"/>
<path fill-rule="evenodd" clip-rule="evenodd" d="M1347.87 640.253C1349.68 640.434 1352.29 640.938 1355.99 641.933C1370.8 645.921 1389.53 643.797 1396.43 638.515C1406.12 631.109 1404.41 610.6 1396.43 603.764C1394.98 602.516 1393.51 601.326 1392.04 600.19C1394.98 601.054 1398.07 602.139 1401.29 603.483C1407.43 609.483 1411.25 617.857 1411.25 627.121C1411.25 644.326 1398.1 658.46 1381.3 660.02L1362.49 656.194C1356 652.682 1350.83 647.062 1347.87 640.253Z" fill="#1BB4B7" fill-opacity="0.1"/>
<ellipse cx="1381.62" cy="620.854" rx="3.41814" ry="3.98783" fill="#1F3C6A"/>
<ellipse cx="1357.7" cy="620.854" rx="3.41814" ry="3.98783" fill="#1F3C6A"/>
<path d="M1330.35 630.874L1367.54 624.842C1372.41 629.185 1369.57 633.488 1367.54 635.097L1330.35 630.874Z" fill="#FF576F"/>
<path fill-rule="evenodd" clip-rule="evenodd" d="M1331.37 630.708C1343.94 631.471 1364.97 632.525 1366.24 631.678C1367.61 630.767 1368.98 627.667 1368.3 625.589C1372.09 629.67 1369.45 633.58 1367.54 635.097L1330.35 630.874L1331.37 630.708Z" fill="#1F3C6A" fill-opacity="0.1"/>
<path d="M1371.37 640.224C1374.88 641.553 1382.67 642.047 1385.75 633.388" stroke="#1F3C6A" stroke-width="1.13938" stroke-linecap="round"/>
<path d="M1385.25 721.4L1384.77 712.413L1387.67 712.256L1388.15 721.243M1391.05 721.086L1390.57 712.099L1393.46 711.942L1393.95 720.928M1397.33 720.745L1396.85 711.758L1399.75 711.601L1400.23 720.588" stroke="#0B94A1" stroke-linecap="round"/>
<path d="M1383.33 715.992C1385.15 696.395 1380.67 667.189 1378.2 655.036L1395.29 656.175C1402.13 670.303 1403.08 701.181 1401.56 714.283L1383.33 715.992Z" fill="#11B4B7"/>
<path fill-rule="evenodd" clip-rule="evenodd" d="M1383.5 713.905C1383.45 714.612 1383.4 715.308 1383.33 715.993L1401.56 714.283C1402.99 701.946 1402.23 673.849 1396.43 658.815L1378.82 658.228C1379.29 660.721 1379.79 663.644 1380.29 666.868C1391 667.956 1396.67 670.232 1398 680.001C1399.02 687.496 1398.67 702.779 1398.23 712.501L1383.5 713.905Z" fill="#01657F" fill-opacity="0.4"/>
<path fill-rule="evenodd" clip-rule="evenodd" d="M1379.93 664.611C1382.29 664.422 1384.96 664.32 1387.65 664.276C1391.31 664.215 1395.05 664.26 1398.2 664.345C1398.29 664.678 1398.38 665.013 1398.46 665.353C1395.27 665.263 1391.42 665.213 1387.67 665.275C1385 665.32 1382.39 665.421 1380.09 665.601C1380.04 665.267 1379.99 664.937 1379.93 664.611ZM1383.74 704.005C1383.74 703.671 1383.74 703.336 1383.73 703C1388.49 702.42 1395.52 701.734 1402.18 701.549C1402.18 701.885 1402.18 702.218 1402.18 702.549C1395.51 702.736 1388.48 703.427 1383.74 704.005ZM1401.81 689.127C1397.92 689.259 1393.3 689.481 1388.98 689.811C1386.91 689.969 1384.91 690.152 1383.09 690.362C1383.06 690.029 1383.04 689.697 1383.01 689.364C1384.84 689.154 1386.84 688.972 1388.9 688.814C1393.23 688.483 1397.85 688.262 1401.75 688.128C1401.77 688.462 1401.79 688.794 1401.81 689.127ZM1381.78 677.538C1381.74 677.206 1381.7 676.875 1381.66 676.546C1383.61 676.313 1385.73 676.096 1387.9 675.927C1392.21 675.592 1396.73 675.447 1400.47 675.764C1400.52 676.101 1400.56 676.44 1400.61 676.78C1396.92 676.445 1392.36 676.583 1387.98 676.924C1385.82 677.092 1383.72 677.307 1381.78 677.538Z" fill="#01657F" fill-opacity="0.4"/>
<path d="M1344.59 657.884C1344.14 654.694 1347.06 646.3 1348.58 642.502C1365.1 649.339 1396.24 647.44 1408.4 642.502C1410.22 647.971 1410.68 655.036 1410.68 657.884C1387.32 669.278 1345.16 661.872 1344.59 657.884Z" fill="#11B4B7"/>
<path fill-rule="evenodd" clip-rule="evenodd" d="M1344.66 655.651C1350.1 657.805 1359.5 659.901 1373.65 659.593C1392.47 659.184 1401.3 652.017 1403.72 646.533C1399.26 647.616 1392.88 648.46 1383.9 648.769C1364.7 649.431 1353.75 646.125 1348.4 642.956C1348.46 642.798 1348.52 642.647 1348.58 642.502C1365.1 649.339 1396.24 647.44 1408.4 642.502C1410.22 647.971 1410.68 655.036 1410.68 657.884C1387.32 669.278 1345.16 661.872 1344.59 657.884C1344.51 657.296 1344.54 656.531 1344.66 655.651Z" fill="#1F3C6A" fill-opacity="0.1"/>
<path fill-rule="evenodd" clip-rule="evenodd" d="M1349.41 660.501C1349.36 654.244 1351.29 648.34 1353.29 644.118C1353.61 644.209 1353.94 644.298 1354.27 644.385C1352.27 648.573 1350.3 654.524 1350.42 660.79C1350.07 660.694 1349.73 660.598 1349.41 660.501ZM1408.42 658.902C1408.1 659.037 1407.77 659.169 1407.45 659.298C1407.09 653.12 1405.67 647.652 1404.31 643.861C1404.64 643.771 1404.96 643.679 1405.27 643.585C1406.63 647.388 1408.03 652.794 1408.42 658.902ZM1393.81 645.899C1394.04 647.834 1394.14 650.296 1394.15 652.948C1394.17 656.126 1394.07 659.597 1393.91 662.799C1393.58 662.851 1393.24 662.901 1392.91 662.95C1393.06 659.708 1393.17 656.177 1393.15 652.953C1393.14 650.318 1393.04 647.903 1392.81 646.025C1393.15 645.984 1393.48 645.942 1393.81 645.899ZM1379 663.95C1378.67 663.953 1378.33 663.955 1378 663.955V663.932V663.88V663.829V663.777V663.725V663.673V663.621V663.569V663.517V663.465V663.413V663.361V663.308V663.256V663.203V663.15V663.098V663.045V662.992V662.939V662.886V662.833V662.78V662.726V662.673V662.62V662.566V662.513V662.459V662.405V662.352V662.298V662.244V662.19V662.136V662.082V662.028V661.974V661.919V661.865V661.811V661.756V661.702V661.647V661.592V661.538V661.483V661.428V661.373V661.319V661.264V661.209V661.154V661.098V661.043V660.988V660.933V660.877V660.822V660.767V660.711V660.656V660.6V660.545V660.489V660.433V660.377V660.322V660.266V660.21V660.154V660.098V660.042V659.986V659.93V659.874V659.818V659.762V659.705V659.649V659.593V659.537V659.48V659.424V659.368V659.311V659.255V659.198V659.142V659.085V659.028V658.972V658.915V658.859V658.802V658.745V658.688V658.632V658.575V658.518V658.461V658.405V658.348V658.291V658.234V658.177V658.12V658.063V658.006V657.949V657.892V657.835V657.778V657.721V657.664V657.607V657.55V657.493V657.436V657.379V657.322V657.265V657.207V657.15V657.093V657.036V656.979V656.922V656.865V656.808V656.75V656.693V656.636V656.579V656.522V656.465V656.408V656.351V656.294V656.236V656.179V656.122V656.065V656.008V655.951V655.894V655.837V655.78V655.723V655.666V655.609V655.552V655.495V655.438V655.381V655.324V655.267V655.21V655.153V655.096V655.04V654.983V654.926V654.869V654.813V654.756V654.699V654.642V654.586V654.529V654.472V654.416V654.359V654.303V654.246V654.19V654.133V654.077V654.021V653.964V653.908V653.852V653.796V653.739V653.683V653.627V653.571V653.515V653.459V653.403V653.347V653.291V653.235V653.179V653.124V653.068V653.012V652.956V652.901V652.845V652.79V652.734V652.679V652.624V652.568V652.513V652.458V652.403V652.347V652.292V652.237V652.182V652.128V652.073V652.018V651.963V651.908V651.854V651.799V651.745V651.69V651.636V651.582V651.527V651.473V651.419V651.365V651.311V651.257V651.203V651.149V651.096V651.042V650.988V650.935V650.881V650.828V650.775V650.721V650.668V650.615V650.562V650.509V650.456V650.403V650.351V650.298V650.245V650.193V650.14V650.088V650.036V649.984V649.932V649.88V649.828V649.776V649.724V649.672V649.621V649.569V649.518V649.467V649.415V649.364V649.313V649.262V649.211V649.16V649.11V649.059V649.009V648.958V648.908V648.858V648.808V648.757V648.708V648.658V648.608V648.558V648.509V648.459V648.41V648.361V648.312V648.263V648.214V648.165V648.116V648.068V648.019V647.971V647.922V647.874V647.826V647.778V647.73V647.683V647.635V647.588V647.54V647.493V647.446V647.399V647.352V647.305V647.258V647.212V647.165V647.119V647.073V647.027V646.981V646.945C1378.33 646.943 1378.67 646.94 1379 646.936V646.981V647.027V647.073V647.119V647.165V647.212V647.258V647.305V647.352V647.399V647.446V647.493V647.54V647.588V647.635V647.683V647.73V647.778V647.826V647.874V647.922V647.971V648.019V648.068V648.116V648.165V648.214V648.263V648.312V648.361V648.41V648.459V648.509V648.558V648.608V648.658V648.708V648.757V648.808V648.858V648.908V648.958V649.009V649.059V649.11V649.16V649.211V649.262V649.313V649.364V649.415V649.467V649.518V649.569V649.621V649.672V649.724V649.776V649.828V649.88V649.932V649.984V650.036V650.088V650.14V650.193V650.245V650.298V650.351V650.403V650.456V650.509V650.562V650.615V650.668V650.721V650.775V650.828V650.881V650.935V650.988V651.042V651.096V651.149V651.203V651.257V651.311V651.365V651.419V651.473V651.527V651.582V651.636V651.69V651.745V651.799V651.854V651.908V651.963V652.018V652.073V652.128V652.182V652.237V652.292V652.347V652.403V652.458V652.513V652.568V652.624V652.679V652.734V652.79V652.845V652.901V652.956V653.012V653.068V653.124V653.179V653.235V653.291V653.347V653.403V653.459V653.515V653.571V653.627V653.683V653.739V653.796V653.852V653.908V653.964V654.021V654.077V654.133V654.19V654.246V654.303V654.359V654.416V654.472V654.529V654.586V654.642V654.699V654.756V654.813V654.869V654.926V654.983V655.04V655.096V655.153V655.21V655.267V655.324V655.381V655.438V655.495V655.552V655.609V655.666V655.723V655.78V655.837V655.894V655.951V656.008V656.065V656.122V656.179V656.236V656.294V656.351V656.408V656.465V656.522V656.579V656.636V656.693V656.75V656.808V656.865V656.922V656.979V657.036V657.093V657.15V657.207V657.265V657.322V657.379V657.436V657.493V657.55V657.607V657.664V657.721V657.778V657.835V657.892V657.949V658.006V658.063V658.12V658.177V658.234V658.291V658.348V658.405V658.461V658.518V658.575V658.632V658.688V658.745V658.802V658.859V658.915V658.972V659.028V659.085V659.142V659.198V659.255V659.311V659.368V659.424V659.48V659.537V659.593V659.649V659.705V659.762V659.818V659.874V659.93V659.986V660.042V660.098V660.154V660.21V660.266V660.322V660.377V660.433V660.489V660.545V660.6V660.656V660.711V660.767V660.822V660.877V660.933V660.988V661.043V661.098V661.154V661.209V661.264V661.319V661.373V661.428V661.483V661.538V661.592V661.647V661.702V661.756V661.811V661.865V661.919V661.974V662.028V662.082V662.136V662.19V662.244V662.298V662.352V662.405V662.459V662.513V662.566V662.62V662.673V662.726V662.78V662.833V662.886V662.939V662.992V663.045V663.098V663.15V663.203V663.256V663.308V663.361V663.413V663.465V663.517V663.569V663.621V663.673V663.725V663.777V663.829V663.88V663.932V663.95ZM1365.16 646.316C1365.04 646.671 1364.91 647.069 1364.78 647.506C1364.26 649.299 1363.78 651.677 1363.34 654.282C1362.88 657.089 1362.48 660.143 1362.15 662.987C1361.82 662.946 1361.49 662.903 1361.16 662.86C1361.49 660.005 1361.89 656.939 1362.36 654.119C1362.79 651.499 1363.28 649.077 1363.82 647.227C1363.93 646.864 1364.03 646.52 1364.14 646.2C1364.48 646.24 1364.82 646.279 1365.16 646.316Z" fill="#1F3C6A" fill-opacity="0.22"/>
</g>
<g opacity="0.25">
<path d="M1353.6 554.31C1380.5 541.458 1549 456.917 1549 355.7V78.4974C1549 72.3323 1543.02 67.8936 1537.1 69.6238C1507.17 78.3758 1425.71 99.9492 1350 99.9492C1274.29 99.9492 1192.83 78.3758 1162.9 69.6238C1156.98 67.8936 1151 72.3323 1151 78.4974V355.7C1151 456.917 1319.5 541.458 1346.4 554.31C1348.76 555.437 1351.24 555.437 1353.6 554.31Z" fill="white" fill-opacity="0.101961"/>
<path d="M1353.65 497.286C1377.85 485.706 1514 416.896 1514 334.672V109.48C1514 103.32 1508 98.8863 1502.08 100.585C1475.86 108.108 1410.69 124.852 1350 124.852C1289.31 124.852 1224.14 108.108 1197.92 100.585C1192 98.8863 1186 103.32 1186 109.48V334.672C1186 416.896 1322.15 485.706 1346.35 497.286C1348.69 498.41 1351.31 498.41 1353.65 497.286Z" fill="white" fill-opacity="0.101961"/>
<path d="M1353.67 447.258C1374.4 437.174 1476 384.562 1476 321.871V150.507C1476 144.339 1469.98 139.897 1464.04 141.572C1442.35 147.696 1394.6 159.547 1350 159.547C1305.4 159.547 1257.65 147.696 1235.96 141.572C1230.02 139.897 1224 144.339 1224 150.507V321.871C1224 384.562 1325.6 437.174 1346.33 447.258C1348.69 448.404 1351.31 448.404 1353.67 447.258Z" fill="white" fill-opacity="0.101961"/>
<path d="M1353.68 408.244C1371.16 399.661 1445 360.659 1445 314.346V181.681C1445 178.879 1442.28 176.862 1439.59 177.651C1425.53 181.778 1386.37 192.212 1350 192.212C1313.63 192.212 1274.47 181.778 1260.41 177.651C1257.72 176.862 1255 178.879 1255 181.681V314.346C1255 360.659 1328.84 399.661 1346.32 408.244C1348.67 409.397 1351.33 409.397 1353.68 408.244Z" fill="white" fill-opacity="0.142"/>
</g>
<g filter="url(#filter3_d_25_2758)">
<path d="M1354.97 380.325C1371.53 371.98 1423.75 342.95 1423.75 308.771V204.859C1423.75 203.346 1422.29 202.258 1420.84 202.691C1411.22 205.561 1379.44 214.33 1350 214.33C1320.56 214.33 1288.77 205.561 1279.16 202.691C1277.71 202.258 1276.25 203.346 1276.25 204.859V308.771C1276.25 342.95 1328.47 371.98 1345.03 380.325C1348.17 381.909 1351.83 381.909 1354.97 380.325Z" fill="white" fill-opacity="0.8" shape-rendering="crispEdges"/>
</g>
<g filter="url(#filter4_d_25_2758)">
<path d="M1354.97 362.588C1369.19 355.269 1409 332.379 1409 305.541V222.565C1409 221.051 1407.53 219.964 1406.07 220.394C1397.73 222.866 1372.97 229.578 1350 229.578C1327.02 229.578 1302.27 222.866 1293.92 220.394C1292.47 219.964 1291 221.051 1291 222.565V305.541C1291 332.379 1330.81 355.269 1345.03 362.588C1348.17 364.207 1351.83 364.207 1354.97 362.588Z" fill="white" fill-opacity="0.8" shape-rendering="crispEdges"/>
</g>
<path d="M1330.11 269.262L1323.01 289.646L1315.92 269.262C1315.79 268.903 1315.46 268.663 1315.08 268.663H1308.6C1308.31 268.663 1308.04 268.806 1307.87 269.047C1307.71 269.287 1307.67 269.594 1307.77 269.869L1319.01 300.53C1319.14 300.881 1319.47 301.115 1319.84 301.115H1325.93C1326.3 301.115 1326.63 300.882 1326.76 300.531L1338.04 269.87C1338.14 269.595 1338.1 269.288 1337.94 269.047C1337.77 268.807 1337.5 268.663 1337.21 268.663H1330.95C1330.57 268.663 1330.23 268.903 1330.11 269.262Z" fill="url(#paint17_linear_25_2758)"/>
<path fill-rule="evenodd" clip-rule="evenodd" d="M1340.81 268.663C1340.32 268.663 1339.93 269.064 1339.93 269.558V300.219C1339.93 300.714 1340.32 301.115 1340.81 301.115H1346.73C1347.22 301.115 1347.62 300.714 1347.62 300.219V289.568H1352.18C1355.38 289.568 1358.11 288.505 1360.04 286.632C1361.98 284.757 1363.06 282.128 1363.06 279.116C1363.06 276.124 1361.98 273.495 1360.04 271.616C1358.11 269.739 1355.38 268.663 1352.18 268.663H1340.81ZM1347.66 282.631V275.643H1351.45C1352.77 275.643 1353.72 276.016 1354.34 276.59C1354.95 277.156 1355.32 278.004 1355.32 279.159C1355.32 280.264 1354.95 281.104 1354.34 281.674C1353.72 282.25 1352.76 282.631 1351.45 282.631H1347.66Z" fill="url(#paint18_linear_25_2758)"/>
<path d="M1391.4 301.115C1391.89 301.115 1392.28 300.714 1392.28 300.219V269.558C1392.28 269.064 1391.89 268.663 1391.4 268.663H1385.48C1384.99 268.663 1384.59 269.064 1384.59 269.558V286.736L1373.58 269.082C1373.41 268.821 1373.13 268.663 1372.83 268.663H1365.45C1364.96 268.663 1364.56 269.064 1364.56 269.558V300.219C1364.56 300.714 1364.96 301.115 1365.45 301.115H1371.37C1371.86 301.115 1372.25 300.714 1372.25 300.219V281.526L1384.43 300.702C1384.59 300.959 1384.87 301.115 1385.18 301.115H1391.4Z" fill="url(#paint19_linear_25_2758)"/>
<g opacity="0.4">
<path d="M872.438 348.845C877.786 354.159 870.354 370.154 862.143 365.413C850.057 358.437 867.09 343.53 872.438 348.845Z" fill="#4FC7CA"/>
<path d="M674.208 613.622C672.237 617.474 662.195 616.206 663.351 610.889C665.054 603.063 676.179 609.77 674.208 613.622Z" fill="#17C9CC"/>
<path d="M596.018 652.429C594.047 656.281 584.004 655.013 585.161 649.696C586.863 641.87 597.989 648.577 596.018 652.429Z" fill="#17C9CC"/>
<path d="M489.601 679.911C486.256 686.449 469.211 684.298 471.174 675.272C474.063 661.989 492.946 673.373 489.601 679.911Z" fill="#17C9CC"/>
<path d="M187.7 680.911C184.355 687.449 167.31 685.298 169.273 676.272C172.162 662.99 191.045 674.373 187.7 680.911Z" fill="#17C9CC"/>
<path d="M66.7003 513.911C63.3553 520.449 46.3101 518.298 48.2732 509.272C51.1623 495.989 70.0453 507.373 66.7003 513.911Z" fill="#17C9CC"/>
<path d="M66.7003 513.911C63.3553 520.449 46.3101 518.298 48.2732 509.272C51.1623 495.989 70.0453 507.373 66.7003 513.911Z" fill="#11B4B7"/>
<path d="M91.7118 592.253C82.8841 580.63 101.422 551.956 115.895 563.248C137.195 579.865 100.539 603.877 91.7118 592.253Z" fill="#17C9CC"/>
<path d="M91.7118 592.253C82.8841 580.63 101.422 551.956 115.895 563.248C137.195 579.865 100.539 603.877 91.7118 592.253Z" fill="#11B4B7"/>
<path d="M42.7003 646.911C39.3553 653.449 22.3101 651.298 24.2732 642.272C27.1623 628.99 46.0453 640.373 42.7003 646.911Z" fill="#17C9CC"/>
<path d="M789.017 608.429C787.046 612.281 777.004 611.013 778.16 605.695C779.863 597.87 790.988 604.577 789.017 608.429Z" fill="#A5E9EA"/>
<path d="M796.856 651.524C799.751 659.573 784.352 672.351 778.242 663.496C769.25 650.465 793.961 643.475 796.856 651.524Z" fill="#A5E9EA"/>
<g style="mix-blend-mode:soft-light" opacity="0.4">
<path d="M1548.53 721.713C1562.04 735.139 1543.26 775.548 1522.52 763.571C1491.99 745.946 1535.02 708.287 1548.53 721.713Z" fill="white"/>
</g>
<g style="mix-blend-mode:soft-light" opacity="0.4">
<path d="M952.217 364.979C958.867 361.427 971.975 373.227 965.032 379.685C954.815 389.19 945.566 368.531 952.217 364.979Z" fill="white"/>
</g>
<path d="M890.576 288.249C897.577 285.453 909.303 298.628 901.69 304.28C890.487 312.599 883.574 291.046 890.576 288.249Z" fill="#4FC7CA"/>
<path d="M958.435 286.425C961.996 289.102 958.942 299.065 953.752 296.956C946.114 293.852 954.875 283.748 958.435 286.425Z" fill="#5CCBCE"/>
<g style="mix-blend-mode:soft-light" opacity="0.4">
<path d="M904.948 444.992C908.508 447.669 905.455 457.632 900.265 455.523C892.627 452.419 901.388 442.315 904.948 444.992Z" fill="white"/>
</g>
<path opacity="0.4" d="M763.391 439.946C767.497 438.219 774.565 445.875 770.129 449.296C763.6 454.331 759.285 441.673 763.391 439.946Z" fill="#B5ECED"/>
<path opacity="0.4" d="M404.391 732.946C408.497 731.219 415.566 738.875 411.13 742.296C404.6 747.331 400.285 734.673 404.391 732.946Z" fill="#B5ECED"/>
<path opacity="0.4" d="M174.391 729.946C178.497 728.219 185.566 735.875 181.13 739.296C174.6 744.331 170.285 731.673 174.391 729.946Z" fill="#B5ECED"/>
</g>
<defs>
<filter id="filter0_d_25_2758" x="404.224" y="473.119" width="1060.92" height="367.608" filterUnits="userSpaceOnUse" color-interpolation-filters="sRGB">
<feFlood flood-opacity="0" result="BackgroundImageFix"/>
<feColorMatrix in="SourceAlpha" type="matrix" values="0 0 0 0 0 0 0 0 0 0 0 0 0 0 0 0 0 0 127 0" result="hardAlpha"/>
<feOffset dy="4"/>
<feGaussianBlur stdDeviation="13"/>
<feComposite in2="hardAlpha" operator="out"/>
<feColorMatrix type="matrix" values="0 0 0 0 1 0 0 0 0 1 0 0 0 0 1 0 0 0 0.26 0"/>
<feBlend mode="normal" in2="BackgroundImageFix" result="effect1_dropShadow_25_2758"/>
<feBlend mode="normal" in="SourceGraphic" in2="effect1_dropShadow_25_2758" result="shape"/>
</filter>
<filter id="filter1_d_25_2758" x="524" y="695" width="87.7002" height="115.814" filterUnits="userSpaceOnUse" color-interpolation-filters="sRGB">
<feFlood flood-opacity="0" result="BackgroundImageFix"/>
<feColorMatrix in="SourceAlpha" type="matrix" values="0 0 0 0 0 0 0 0 0 0 0 0 0 0 0 0 0 0 127 0" result="hardAlpha"/>
<feOffset dy="-9"/>
<feGaussianBlur stdDeviation="5"/>
<feComposite in2="hardAlpha" operator="out"/>
<feColorMatrix type="matrix" values="0 0 0 0 1 0 0 0 0 1 0 0 0 0 1 0 0 0 0.48 0"/>
<feBlend mode="soft-light" in2="BackgroundImageFix" result="effect1_dropShadow_25_2758"/>
<feBlend mode="normal" in="SourceGraphic" in2="effect1_dropShadow_25_2758" result="shape"/>
</filter>
<filter id="filter2_d_25_2758" x="1271.1" y="491.155" width="214.203" height="309.522" filterUnits="userSpaceOnUse" color-interpolation-filters="sRGB">
<feFlood flood-opacity="0" result="BackgroundImageFix"/>
<feColorMatrix in="SourceAlpha" type="matrix" values="0 0 0 0 0 0 0 0 0 0 0 0 0 0 0 0 0 0 127 0" result="hardAlpha"/>
<feOffset dy="-31.9026"/>
<feGaussianBlur stdDeviation="17.6604"/>
<feComposite in2="hardAlpha" operator="out"/>
<feColorMatrix type="matrix" values="0 0 0 0 1 0 0 0 0 1 0 0 0 0 1 0 0 0 0.48 0"/>
<feBlend mode="soft-light" in2="BackgroundImageFix" result="effect1_dropShadow_25_2758"/>
<feBlend mode="normal" in="SourceGraphic" in2="effect1_dropShadow_25_2758" result="shape"/>
</filter>
<filter id="filter3_d_25_2758" x="1230.59" y="161.395" width="238.815" height="270.227" filterUnits="userSpaceOnUse" color-interpolation-filters="sRGB">
<feFlood flood-opacity="0" result="BackgroundImageFix"/>
<feColorMatrix in="SourceAlpha" type="matrix" values="0 0 0 0 0 0 0 0 0 0 0 0 0 0 0 0 0 0 127 0" result="hardAlpha"/>
<feOffset dy="4.45406"/>
<feGaussianBlur stdDeviation="22.827"/>
<feComposite in2="hardAlpha" operator="out"/>
<feColorMatrix type="matrix" values="0 0 0 0 1 0 0 0 0 1 0 0 0 0 1 0 0 0 0.6 0"/>
<feBlend mode="soft-light" in2="BackgroundImageFix" result="effect1_dropShadow_25_2758"/>
<feBlend mode="normal" in="SourceGraphic" in2="effect1_dropShadow_25_2758" result="shape"/>
</filter>
<filter id="filter4_d_25_2758" x="1245.34" y="179.099" width="209.314" height="234.812" filterUnits="userSpaceOnUse" color-interpolation-filters="sRGB">
<feFlood flood-opacity="0" result="BackgroundImageFix"/>
<feColorMatrix in="SourceAlpha" type="matrix" values="0 0 0 0 0 0 0 0 0 0 0 0 0 0 0 0 0 0 127 0" result="hardAlpha"/>
<feOffset dy="4.45406"/>
<feGaussianBlur stdDeviation="22.827"/>
<feComposite in2="hardAlpha" operator="out"/>
<feColorMatrix type="matrix" values="0 0 0 0 1 0 0 0 0 1 0 0 0 0 1 0 0 0 0.6 0"/>
<feBlend mode="soft-light" in2="BackgroundImageFix" result="effect1_dropShadow_25_2758"/>
<feBlend mode="normal" in="SourceGraphic" in2="effect1_dropShadow_25_2758" result="shape"/>
</filter>
<linearGradient id="paint0_linear_25_2758" x1="1102.46" y1="389.726" x2="857.491" y2="849.466" gradientUnits="userSpaceOnUse">
<stop stop-color="white"/>
<stop offset="1" stop-color="white" stop-opacity="0"/>
</linearGradient>
<linearGradient id="paint1_linear_25_2758" x1="1047.3" y1="398.656" x2="1047.3" y2="810.157" gradientUnits="userSpaceOnUse">
<stop stop-color="#12AEB2"/>
<stop offset="1" stop-color="#12AEB2" stop-opacity="0"/>
</linearGradient>
<linearGradient id="paint2_linear_25_2758" x1="900.218" y1="456.95" x2="988.52" y2="1265.34" gradientUnits="userSpaceOnUse">
<stop stop-color="white"/>
<stop offset="1" stop-color="white" stop-opacity="0"/>
</linearGradient>
<linearGradient id="paint3_linear_25_2758" x1="832.547" y1="401.902" x2="992.331" y2="1067.76" gradientUnits="userSpaceOnUse">
<stop stop-color="white"/>
<stop offset="1" stop-color="white" stop-opacity="0"/>
</linearGradient>
<linearGradient id="paint4_linear_25_2758" x1="1470.8" y1="432.86" x2="1470.8" y2="501.436" gradientUnits="userSpaceOnUse">
<stop stop-color="#11B4B7"/>
<stop offset="1" stop-color="#11B4B7" stop-opacity="0"/>
</linearGradient>
<linearGradient id="paint5_linear_25_2758" x1="1482.84" y1="602.674" x2="1482.84" y2="769.191" gradientUnits="userSpaceOnUse">
<stop stop-color="#11B4B7"/>
<stop offset="1" stop-color="#11B4B7" stop-opacity="0"/>
</linearGradient>
<linearGradient id="paint6_linear_25_2758" x1="1473.72" y1="366.665" x2="1473.72" y2="430.426" gradientUnits="userSpaceOnUse">
<stop stop-color="#11B4B7"/>
<stop offset="1" stop-color="#11B4B7" stop-opacity="0"/>
</linearGradient>
<linearGradient id="paint7_linear_25_2758" x1="1461.48" y1="501.955" x2="1461.48" y2="606.208" gradientUnits="userSpaceOnUse">
<stop stop-color="#1BB4B7"/>
<stop offset="1" stop-color="#1BB4B7" stop-opacity="0"/>
</linearGradient>
<linearGradient id="paint8_linear_25_2758" x1="1279.93" y1="580.395" x2="1279.93" y2="640.044" gradientUnits="userSpaceOnUse">
<stop stop-color="#11B4B7"/>
<stop offset="1" stop-color="#11B4B7" stop-opacity="0"/>
</linearGradient>
<linearGradient id="paint9_linear_25_2758" x1="1290.5" y1="728.899" x2="1290.5" y2="875.046" gradientUnits="userSpaceOnUse">
<stop stop-color="#11B4B7"/>
<stop offset="1" stop-color="#11B4B7" stop-opacity="0"/>
</linearGradient>
<linearGradient id="paint10_linear_25_2758" x1="1282.74" y1="522.284" x2="1282.74" y2="577.351" gradientUnits="userSpaceOnUse">
<stop stop-color="#11B4B7"/>
<stop offset="1" stop-color="#11B4B7" stop-opacity="0"/>
</linearGradient>
<linearGradient id="paint11_linear_25_2758" x1="1272.01" y1="641.101" x2="1272.01" y2="731.87" gradientUnits="userSpaceOnUse">
<stop stop-color="#1BB4B7"/>
<stop offset="1" stop-color="#1BB4B7" stop-opacity="0"/>
</linearGradient>
<linearGradient id="paint12_linear_25_2758" x1="731.546" y1="528.622" x2="620.682" y2="1105.52" gradientUnits="userSpaceOnUse">
<stop stop-color="white"/>
<stop offset="1" stop-color="white" stop-opacity="0"/>
</linearGradient>
<linearGradient id="paint13_linear_25_2758" x1="1477.76" y1="527.429" x2="1361.19" y2="1105.14" gradientUnits="userSpaceOnUse">
<stop stop-color="white"/>
<stop offset="1" stop-color="white" stop-opacity="0"/>
</linearGradient>
<linearGradient id="paint14_linear_25_2758" x1="1245.31" y1="758.999" x2="1310.86" y2="860.012" gradientUnits="userSpaceOnUse">
<stop stop-color="white"/>
<stop offset="1" stop-color="white" stop-opacity="0"/>
</linearGradient>
<linearGradient id="paint15_linear_25_2758" x1="1424.11" y1="602.286" x2="1180.39" y2="816.817" gradientUnits="userSpaceOnUse">
<stop stop-color="white"/>
<stop offset="1" stop-color="white" stop-opacity="0"/>
</linearGradient>
<linearGradient id="paint16_linear_25_2758" x1="1424.11" y1="602.286" x2="1180.39" y2="816.817" gradientUnits="userSpaceOnUse">
<stop stop-color="white"/>
<stop offset="1" stop-color="white" stop-opacity="0"/>
</linearGradient>
<linearGradient id="paint17_linear_25_2758" x1="1349.87" y1="238.883" x2="1349.87" y2="341.935" gradientUnits="userSpaceOnUse">
<stop stop-color="#38434E"/>
<stop offset="1" stop-color="#38434E" stop-opacity="0.13"/>
</linearGradient>
<linearGradient id="paint18_linear_25_2758" x1="1349.87" y1="238.883" x2="1349.87" y2="341.935" gradientUnits="userSpaceOnUse">
<stop stop-color="#38434E"/>
<stop offset="1" stop-color="#38434E" stop-opacity="0.13"/>
</linearGradient>
<linearGradient id="paint19_linear_25_2758" x1="1349.87" y1="238.883" x2="1349.87" y2="341.935" gradientUnits="userSpaceOnUse">
<stop stop-color="#38434E"/>
<stop offset="1" stop-color="#38434E" stop-opacity="0.13"/>
</linearGradient>
</defs>
</svg>
