<svg width="375" height="470" viewBox="0 0 375 470" fill="none" xmlns="http://www.w3.org/2000/svg">
<g opacity="0.3">
<path d="M166.598 279.25H180.672H205.547C207.553 279.25 209.18 277.624 209.18 275.617C209.18 273.611 210.806 271.984 212.813 271.984H250.547C252.553 271.984 254.18 273.611 254.18 275.617C254.18 277.624 252.553 279.25 250.547 279.25H228.526C226.708 279.25 225.235 280.724 225.235 282.542C225.235 284.36 226.708 285.834 228.526 285.834H235.968C237.677 285.834 239.063 287.219 239.063 288.929C239.063 290.638 237.677 292.023 235.968 292.023H210.463C208.266 292.023 206.485 293.805 206.485 296.002C206.485 298.199 208.266 299.98 210.463 299.98H216.248C217.781 299.98 219.024 301.223 219.024 302.756C219.024 304.289 217.781 305.532 216.248 305.532H180.672H167.335C165.802 305.532 164.559 304.289 164.559 302.756C164.559 301.223 165.802 299.98 167.335 299.98H169.75C171.53 299.98 172.974 298.537 172.974 296.757C172.974 294.977 171.53 293.534 169.75 293.534H145.136C143.009 293.534 141.286 291.81 141.286 289.684C141.286 287.557 143.009 285.834 145.136 285.834H160.014C161.832 285.834 163.306 284.36 163.306 282.542C163.306 280.724 164.78 279.25 166.598 279.25Z" fill="white" fill-opacity="0.27"/>
<path d="M129.357 384.861H155.313C161.098 384.861 165.788 389.551 165.788 395.337C165.788 401.122 161.098 405.812 155.313 405.812H109.754C107.776 405.812 106.172 404.209 106.172 402.231C106.172 400.253 107.776 398.65 109.754 398.65H136.248C138.028 398.65 139.471 397.206 139.471 395.426C139.471 393.646 138.028 392.203 136.248 392.203H129.357C127.33 392.203 125.686 390.559 125.686 388.532C125.686 386.505 127.33 384.861 129.357 384.861Z" fill="white" fill-opacity="0.27"/>
<path d="M24.8828 314.289H31.3479C33.1925 314.289 34.6878 312.794 34.6878 310.949C34.6878 309.105 33.1925 307.609 31.3479 307.609H24.8828C23.0383 307.609 21.543 309.105 21.543 310.949C21.543 312.794 23.0383 314.289 24.8828 314.289Z" fill="white" fill-opacity="0.27"/>
<path d="M277.741 299.98H255.463C253.266 299.98 251.485 298.199 251.485 296.002C251.485 293.805 253.266 292.023 255.463 292.023H277.741C279.938 292.023 281.719 293.805 281.719 296.002C281.719 298.199 279.938 299.98 277.741 299.98Z" fill="white" fill-opacity="0.27"/>
<path d="M116.602 279.25H122.053C124.06 279.25 125.686 277.624 125.686 275.617C125.686 273.611 124.06 271.984 122.053 271.984H116.602C114.595 271.984 112.969 273.611 112.969 275.617C112.969 277.624 114.595 279.25 116.602 279.25Z" fill="white" fill-opacity="0.27"/>
</g>
<path d="M292.57 359.197L295.461 370.613H289.68L292.57 359.197Z" fill="#139BA5"/>
<path d="M315.536 375.486L318.427 386.902H312.645L315.536 375.486Z" fill="#139BA5"/>
<path d="M226.774 308.985L229.664 320.401H223.883L226.774 308.985Z" fill="#139BA5"/>
<path d="M223.768 311.74L226.659 323.157H220.877L223.768 311.74Z" fill="#139BA5"/>
<path d="M284.026 348.782L288.535 366.607H279.516L284.026 348.782Z" fill="#139BA5"/>
<path d="M182.55 366.274C180.093 370.226 173.96 379.403 171.2 383.498C169.865 383.498 167.008 384.059 166.26 386.302C165.512 388.545 158.916 411.715 155.712 423.02H282.023L348.048 426C346.713 421.638 352 419 348.048 418.117C337.362 415.73 317.139 385.1 312.733 382.296C308.326 379.492 298.179 368.677 295.508 367.208C292.838 365.739 283.892 366.006 283.224 364.938C282.557 363.87 273.878 349.049 272.676 346.646C271.475 344.243 261.461 342.64 258.123 341.706C254.785 340.771 250.111 328.888 249.177 326.351C248.242 323.814 243.302 311.663 241.833 311.663C240.364 311.663 233.822 311.53 231.952 311.663C230.083 311.797 229.148 313.8 228.214 314.734C227.279 315.669 225.143 314.868 222.472 315.669C219.802 316.47 202.711 342.907 197.237 350.652C191.763 358.396 185.621 361.333 182.55 366.274Z" fill="#11B4B7"/>
<path d="M182.55 366.274C180.093 370.226 173.96 379.403 171.2 383.498C169.865 383.498 167.008 384.059 166.26 386.302C165.512 388.545 158.916 411.715 155.712 423.02H282.023L348.048 426C346.713 421.638 352 419 348.048 418.117C337.362 415.73 317.139 385.1 312.733 382.296C308.326 379.492 298.179 368.677 295.508 367.208C292.838 365.739 283.892 366.006 283.224 364.938C282.557 363.87 273.878 349.049 272.676 346.646C271.475 344.243 261.461 342.64 258.123 341.706C254.785 340.771 250.111 328.888 249.177 326.351C248.242 323.814 243.302 311.663 241.833 311.663C240.364 311.663 233.822 311.53 231.952 311.663C230.083 311.797 229.148 313.8 228.214 314.734C227.279 315.669 225.143 314.868 222.472 315.669C219.802 316.47 202.711 342.907 197.237 350.652C191.763 358.396 185.621 361.333 182.55 366.274Z" fill="url(#paint0_linear_112_14465)" fill-opacity="0.63"/>
<g style="mix-blend-mode:soft-light" opacity="0.6">
<path fill-rule="evenodd" clip-rule="evenodd" d="M242.16 311.81C242.441 312.814 242.491 313.764 242.1 314.467C240.765 316.871 239.697 317.805 236.893 317.805H231.418C230.083 317.805 228.881 319.007 227.68 322.612C227.601 322.848 227.524 323.084 227.446 323.321C226.339 326.699 225.229 330.087 220.737 331.959C217.211 333.428 216.056 334.897 214.321 337.103L214.321 337.103C213.69 337.905 212.983 338.804 212.058 339.836C208.586 343.708 201.51 351.052 194.834 357.862C191.262 361.504 188.837 363.007 186.864 364.231C185.148 365.294 183.773 366.146 182.283 368.009C181.548 368.928 180.789 369.634 180.053 370.172C181.048 368.645 181.92 367.287 182.55 366.273C183.984 363.966 186.088 362.096 188.482 359.968C191.212 357.541 194.32 354.779 197.237 350.652C198.64 348.667 200.806 345.454 203.297 341.76C210.524 331.04 220.487 316.265 222.473 315.669C223.743 315.288 224.893 315.269 225.85 315.254C226.904 315.237 227.724 315.224 228.214 314.734C228.455 314.494 228.695 314.182 228.952 313.85C229.692 312.892 230.565 311.763 231.953 311.663C233.348 311.564 237.348 311.613 239.897 311.644C240.762 311.655 241.461 311.663 241.833 311.663C241.928 311.663 242.038 311.714 242.16 311.81ZM304.35 375.083L303.344 374.49L320.879 393.653L323.212 389.117C319.85 386.993 316.965 385.084 314.979 383.77C313.989 383.115 313.223 382.608 312.733 382.296C310.718 381.014 307.502 378.056 304.35 375.083Z" fill="white"/>
</g>
<path opacity="0.2" d="M194.833 378.157C187.89 378.798 165.948 407.977 155.845 422.486L154.644 425.423H228.481L257.855 432.099C259.057 423.687 334.126 424.706 334.897 422.486C342.641 400.188 316.338 404.461 293.372 374.151C291.918 372.233 275.769 367.011 274.278 366.541C261.594 362.535 261.563 362.134 255.452 350.785C254.647 349.291 243.969 328.22 242.634 327.552C241.299 326.885 232.947 333.229 232.086 333.561C230.35 334.228 210.188 370.947 206.984 371.347C203.779 371.748 203.512 377.356 194.833 378.157Z" fill="url(#paint1_linear_112_14465)"/>
<g style="mix-blend-mode:soft-light">
<path d="M270.54 347.447C270.54 345.444 258.39 342.64 257.856 343.975C257.322 345.311 270.54 350.117 270.54 347.447Z" fill="#CFF0F1"/>
</g>
<path fill-rule="evenodd" clip-rule="evenodd" d="M222.472 315.669C222.581 315.636 222.689 315.606 222.796 315.579L222.807 315.536L224.552 314.839L224.636 315.169L222.472 315.669ZM228.644 314.243L239.897 311.644L239.897 311.644C240.763 311.655 241.461 311.663 241.833 311.663C241.928 311.663 242.038 311.714 242.16 311.81L242.16 311.81C243.925 313.197 248.302 323.978 249.177 326.351C250.111 328.888 254.784 340.771 258.122 341.706C258.888 341.92 260.004 342.169 261.284 342.455L261.284 342.455C265.589 343.417 271.75 344.794 272.676 346.646C273.522 348.337 278.069 356.176 280.923 361.046L284.026 348.782L288.356 365.899C289.162 365.974 289.998 366.054 290.81 366.147L292.57 359.197L294.497 366.806C294.89 366.924 295.233 367.057 295.508 367.208C296.758 367.896 299.647 370.631 302.818 373.634L302.82 373.636C303.846 374.608 304.902 375.608 305.941 376.575L305.942 376.576C308.551 379.005 311.057 381.23 312.733 382.296C312.976 382.451 313.287 382.653 313.659 382.898L315.536 375.486L318.165 385.869C319.685 386.863 321.428 387.991 323.32 389.185L322.666 391.704C332.473 401.387 346.628 414.91 354 415C361.837 415.096 364.188 423.537 365.552 428.437L365.552 428.438L365.553 428.439C365.713 429.015 365.86 429.542 366 430L302.004 424.681C281.361 425.711 258.514 427.489 257.855 432.099L228.481 425.423H154.644L155.845 422.486L155.876 422.442C159.136 410.945 165.525 388.507 166.26 386.302C167.008 384.059 169.865 383.498 171.2 383.498C173.96 379.403 180.093 370.226 182.55 366.274C183.984 363.966 186.088 362.096 188.481 359.968C191.212 357.541 194.319 354.779 197.237 350.652C198.64 348.667 200.806 345.454 203.296 341.76L203.296 341.76L203.297 341.76C210.524 331.04 220.486 316.265 222.472 315.669L222.807 315.536L223.768 311.74L224.552 314.839L225.374 314.511L225.243 315.029L224.636 315.169L224.667 315.293C224.843 315.282 225.015 315.274 225.182 315.269L225.243 315.029L228.135 314.361L228.226 314.722C228.364 314.582 228.503 314.42 228.644 314.243ZM229.929 312.694C229.565 313.056 229.248 313.466 228.952 313.85L228.952 313.85L228.952 313.85C228.847 313.986 228.745 314.118 228.644 314.243L228.135 314.361L227.916 313.497L229.929 312.694ZM229.929 312.694C230.416 312.209 230.986 311.814 231.698 311.694C231.781 311.68 231.866 311.67 231.952 311.663L231.953 311.663C232.127 311.651 232.342 311.641 232.59 311.633L229.929 312.694ZM227.916 313.497L225.374 314.511L226.773 308.985L227.916 313.497Z" fill="#11B4B7" fill-opacity="0.33"/>
<path d="M309.928 392.577L312.819 403.192H307.037L309.928 392.577Z" fill="#139BA5"/>
<path d="M305.388 395.248L308.048 404.661H302.729L305.388 395.248Z" fill="#139BA5"/>
<g filter="url(#filter0_d_112_14465)">
<path d="M191.628 359.464L195.213 372.482H188.044L191.628 359.464Z" fill="#139BA5"/>
<path d="M186.688 365.606L189.001 374.218H184.375L186.688 365.606Z" fill="#139BA5"/>
<path d="M129.541 411.27C124.948 415.009 108.489 426.803 100.834 432.233H337.3C337.3 431.526 323.28 428.094 320.476 425.957C319.007 424.838 292.146 420.208 291.769 419.548C291.235 418.614 288.965 416.611 285.761 416.344C282.556 416.077 267.468 411.938 263.329 411.137C259.19 410.335 256.386 406.463 255.585 405.395C254.784 404.327 252.113 404.193 249.576 403.659C247.039 403.125 241.966 397.384 238.761 394.713C235.557 392.043 207.918 358.262 206.983 358.262H203.245C201.776 358.262 194.299 369.211 191.495 370.546C188.691 371.881 171.6 376.288 169.731 376.822C167.862 377.356 151.705 401.389 148.902 403.526C146.098 405.662 135.282 406.597 129.541 411.27Z" fill="#11B4B7"/>
<path d="M129.541 411.27C124.948 415.009 108.489 426.803 100.834 432.233H337.3C337.3 431.526 323.28 428.094 320.476 425.957C319.007 424.838 292.146 420.208 291.769 419.548C291.235 418.614 288.965 416.611 285.761 416.344C282.556 416.077 267.468 411.938 263.329 411.137C259.19 410.335 256.386 406.463 255.585 405.395C254.784 404.327 252.113 404.193 249.576 403.659C247.039 403.125 241.966 397.384 238.761 394.713C235.557 392.043 207.918 358.262 206.983 358.262H203.245C201.776 358.262 194.299 369.211 191.495 370.546C188.691 371.881 171.6 376.288 169.731 376.822C167.862 377.356 151.705 401.389 148.902 403.526C146.098 405.662 135.282 406.597 129.541 411.27Z" fill="url(#paint2_linear_112_14465)" fill-opacity="0.6"/>
<path d="M175.873 419.014C173.737 420.216 162.788 425.824 155.578 427.693L159.05 431.832L224.475 431.165L303.786 429.562C305.478 430.052 305.816 429.883 293.639 425.29C278.417 419.548 261.861 414.875 258.523 413.94C255.185 413.006 254.384 411.137 253.048 409.534C251.713 407.932 242.233 409 237.426 402.725C232.62 396.449 209.521 364.538 207.251 365.472C204.981 366.407 203.112 390.174 200.708 391.909C198.305 393.645 192.563 395.782 192.563 397.517C192.563 399.253 192.964 406.997 192.563 411.137C192.163 415.276 186.689 415.009 185.22 417.278C183.751 419.548 178.01 417.813 175.873 419.014Z" fill="#1BB4B7" fill-opacity="0.22"/>
<g style="mix-blend-mode:soft-light" opacity="0.5">
<path fill-rule="evenodd" clip-rule="evenodd" d="M207.222 358.422C206.865 359.06 205.999 359.246 205.247 359.407C204.714 359.521 204.24 359.622 204.046 359.864C203.911 360.032 203.338 360.782 202.535 361.835C200.14 364.968 195.699 370.782 194.699 371.881C193.958 372.697 187.541 374.581 181.68 376.303C176.981 377.682 172.64 378.957 171.867 379.492C171.089 380.031 167.521 386.07 163.495 392.882C158.54 401.267 152.893 410.823 150.904 412.739C149.048 414.526 146.377 414.721 143.804 414.908C141.38 415.085 139.042 415.255 137.552 416.744C135.884 418.413 132.481 422.723 129.292 426.76C127.704 428.772 126.169 430.716 124.928 432.233H100.834C108.489 426.803 124.948 415.009 129.541 411.27C132.991 408.462 138.273 407.004 142.548 405.823C145.387 405.04 147.783 404.378 148.902 403.526C150.244 402.503 154.644 396.465 159.073 390.388C163.898 383.767 168.756 377.1 169.731 376.822C170.102 376.715 171.075 376.456 172.417 376.099C177.829 374.658 189.248 371.616 191.495 370.546C192.948 369.854 195.656 366.58 198.133 363.587C200.435 360.803 202.537 358.262 203.245 358.262H206.983C207.021 358.262 207.102 358.317 207.222 358.422Z" fill="white"/>
</g>
</g>
<path fill-rule="evenodd" clip-rule="evenodd" d="M233.64 415.61L230.037 406.196L226.435 415.61H227.183L224.688 422.619H235.239L232.744 415.61H233.64Z" fill="#139BA5"/>
<path fill-rule="evenodd" clip-rule="evenodd" d="M229.854 407.874C229.539 409.634 229.258 411.207 230.196 412.315C230.963 413.221 232.178 413.897 233.142 414.309L230.1 406.36C230.032 406.875 229.942 407.382 229.854 407.874ZM233.625 415.572H228.818C230.405 416.532 233.177 419.129 231.574 421.834C231.406 422.118 231.324 422.379 231.315 422.619H235.238L232.744 415.61H233.639L233.625 415.572ZM226.684 417.012L227.942 415.697L228.067 415.572H226.449L226.435 415.61H227.183L226.684 417.012Z" fill="#0E8B9A"/>
<path d="M223.937 416.699V419.889C223.937 420.479 223.458 420.958 222.868 420.958H215.111C214.521 420.958 214.042 420.479 214.042 419.889V416.699C213.626 416.699 213.418 416.196 213.712 415.902L215.107 414.507C215.307 414.307 215.579 414.194 215.863 414.194H222.116C222.4 414.194 222.672 414.307 222.872 414.507L224.267 415.902C224.561 416.196 224.353 416.699 223.937 416.699Z" fill="#149CA5"/>
<path fill-rule="evenodd" clip-rule="evenodd" d="M223.937 420.582V416.699H225.064L225.064 416.699H213.416L213.416 416.699H214.042V416.754L223.436 417.576V420.582H223.937Z" fill="#0E8B9A"/>
<g style="mix-blend-mode:soft-light" opacity="0.5">
<rect x="220.68" y="417.451" width="1.75349" height="1.50299" rx="0.751494" fill="white"/>
</g>
<g style="mix-blend-mode:soft-light" opacity="0.5">
<rect x="217.925" y="417.451" width="1.75349" height="1.50299" rx="0.751494" fill="white"/>
</g>
<path d="M198.84 421.418C195.769 423.02 180.013 430.23 165.192 430.364L166.187 432.233H283.983C276.928 429.546 269.999 427.309 267.603 425.957C262.396 423.02 254.785 422.352 251.981 422.219C249.177 422.085 244.103 418.48 240.899 418.48H231.285C229.95 418.48 224.743 419.682 223.274 419.949C221.805 420.216 214.328 419.281 209.788 418.48C205.249 417.679 201.911 419.815 198.84 421.418Z" fill="#11B4B7"/>
<path d="M198.84 421.418C195.769 423.02 180.013 430.23 165.192 430.364L166.187 432.233H283.983C276.928 429.546 269.999 427.309 267.603 425.957C262.396 423.02 254.785 422.352 251.981 422.219C249.177 422.085 244.103 418.48 240.899 418.48H231.285C229.95 418.48 224.743 419.682 223.274 419.949C221.805 420.216 214.328 419.281 209.788 418.48C205.249 417.679 201.911 419.815 198.84 421.418Z" fill="url(#paint3_linear_112_14465)"/>
<path fill-rule="evenodd" clip-rule="evenodd" d="M272.577 428.053C263.083 426.498 247.183 423.738 243.35 422.46C241.017 421.683 237.748 422.383 233.904 423.207C229.079 424.241 223.348 425.469 217.424 424.214C212.82 423.239 209.458 423.857 204.703 424.73C200.236 425.551 194.539 426.598 185.428 426.761C179.628 428.59 172.669 430.195 165.864 430.353L173.927 432.233H259.546L274.289 428.683C273.693 428.466 273.121 428.256 272.577 428.053Z" fill="#1BB4B7" fill-opacity="0.25"/>
<path fill-rule="evenodd" clip-rule="evenodd" d="M203.17 421.334L203.17 421.334L203.17 421.334C204.091 421.011 204.968 420.703 205.776 420.456C208.142 419.733 210.681 420.114 212.975 420.458C215.054 420.77 216.932 421.052 218.301 420.456C218.617 420.319 218.865 420.08 219.054 419.763C216.168 419.472 212.467 418.953 209.788 418.48C205.696 417.758 202.58 419.423 199.756 420.932C199.447 421.097 199.142 421.26 198.839 421.418C198.077 421.815 196.533 422.559 194.416 423.453C197.312 423.387 200.437 422.292 203.17 421.334ZM228.628 418.86C229.784 418.642 230.795 418.48 231.285 418.48H240.898C241.793 418.48 242.833 418.761 243.929 419.169C242 420.034 238.787 420.456 235.46 420.456C231.695 420.456 229.551 419.965 228.628 418.86Z" fill="#A6E9EA"/>
<circle cx="211.787" cy="417.325" r="0.626245" fill="#A9EAEB"/>
<circle cx="211.788" cy="418.578" r="0.876743" fill="#A9EAEB"/>
<path d="M348.754 331.691L350.049 424.889C350.065 426.064 349.117 427.026 347.942 427.026C346.767 427.026 345.819 426.064 345.835 424.889L347.13 331.691C347.136 331.247 347.498 330.89 347.942 330.89C348.386 330.89 348.748 331.247 348.754 331.691Z" fill="#01657F"/>
<path d="M343.886 349.273C345.651 346.289 349.967 346.289 351.732 349.273L356.393 357.154C357.583 359.165 355.335 361.45 353.304 360.294L350.063 358.449C348.666 357.654 346.952 357.654 345.555 358.449L342.313 360.294C340.283 361.45 338.035 359.165 339.225 357.154L343.886 349.273Z" fill="#01657F"/>
<path fill-rule="evenodd" clip-rule="evenodd" d="M338.896 358.416C340.319 356.942 341.752 355.916 344.471 355.191C347.54 354.373 350.046 351.769 351.747 349.299L351.731 349.273C349.967 346.289 345.65 346.289 343.886 349.273L339.225 357.154C338.976 357.574 338.877 358.006 338.896 358.416Z" fill="url(#paint4_linear_112_14465)"/>
<path fill-rule="evenodd" clip-rule="evenodd" d="M345.906 419.777L346.401 384.192L349.511 386.167L349.956 418.219L345.906 419.777Z" fill="url(#paint5_linear_112_14465)"/>
<path d="M343.903 333.644C345.674 330.7 349.943 330.7 351.714 333.644L353.665 336.888C354.87 338.891 352.639 341.193 350.6 340.051L350.034 339.735C348.651 338.961 346.966 338.961 345.583 339.735L345.017 340.051C342.978 341.193 340.747 338.891 341.951 336.888L343.903 333.644Z" fill="#01657F"/>
<path fill-rule="evenodd" clip-rule="evenodd" d="M342.455 339.822C342.641 339.574 342.823 339.312 343.001 339.035C345.761 334.742 349.148 334.44 352.321 334.654L351.713 333.644C349.942 330.699 345.674 330.699 343.903 333.644L341.951 336.888C341.295 337.979 341.658 339.159 342.455 339.822Z" fill="url(#paint6_linear_112_14465)"/>
<path d="M343.91 368.038C345.684 365.109 349.933 365.109 351.707 368.038L357.998 378.427C359.203 380.416 357.004 382.72 354.96 381.609L349.986 378.904C348.628 378.166 346.989 378.166 345.632 378.904L340.657 381.609C338.614 382.72 336.414 380.416 337.619 378.427L343.91 368.038Z" fill="#01657F"/>
<path fill-rule="evenodd" clip-rule="evenodd" d="M340.788 379.225C342.221 377.696 343.496 376.337 344.604 376.021C344.738 375.982 344.874 375.944 345.013 375.905C347.769 375.125 351.28 374.132 351.28 371.08C351.28 369.977 351.511 369.015 351.824 368.231L351.707 368.038C349.934 365.109 345.684 365.109 343.91 368.038L337.619 378.427C336.873 379.659 337.432 381.011 338.451 381.599C339.271 380.842 340.05 380.011 340.788 379.225Z" fill="url(#paint7_linear_112_14465)"/>
<path d="M303.525 367.609L304.404 430.922C304.416 431.81 303.7 432.536 302.812 432.536C301.924 432.536 301.207 431.81 301.22 430.922L302.099 367.609C302.104 367.22 302.422 366.906 302.812 366.906C303.202 366.906 303.519 367.22 303.525 367.609Z" fill="#01657F"/>
<path d="M298.773 383.851C300.537 380.868 304.854 380.868 306.618 383.851L309.695 389.053C310.885 391.065 308.637 393.35 306.606 392.194L304.95 391.251C303.552 390.456 301.839 390.456 300.441 391.251L298.784 392.194C296.753 393.35 294.506 391.065 295.696 389.053L298.773 383.851Z" fill="#01657F"/>
<path fill-rule="evenodd" clip-rule="evenodd" d="M295.39 390.554C296.488 389.529 297.707 388.783 299.765 388.235C302.428 387.524 304.608 385.283 306.1 383.137C304.118 380.891 300.382 381.129 298.772 383.851L295.695 389.053C295.398 389.556 295.315 390.075 295.39 390.554Z" fill="url(#paint8_linear_112_14465)"/>
<path fill-rule="evenodd" clip-rule="evenodd" d="M301.026 435L301.46 413.687L304.19 414.87L304.581 434.067L301.026 435Z" fill="url(#paint9_linear_112_14465)"/>
<path d="M298.79 370.117C300.561 367.173 304.829 367.173 306.601 370.117L307.61 371.794C308.728 373.654 306.657 375.792 304.762 374.732V374.732C303.478 374.014 301.913 374.014 300.628 374.732V374.732C298.734 375.792 296.662 373.654 297.781 371.794L298.79 370.117Z" fill="#01657F"/>
<path fill-rule="evenodd" clip-rule="evenodd" d="M298.195 374.473C298.29 374.338 298.384 374.199 298.477 374.055C300.899 370.287 303.871 370.022 306.657 370.21L306.601 370.117C304.83 367.173 300.561 367.173 298.79 370.117L297.781 371.794C297.187 372.783 297.493 373.85 298.195 374.473Z" fill="url(#paint10_linear_112_14465)"/>
<path d="M298.797 400.297C300.571 397.368 304.82 397.368 306.594 400.297L311.104 407.746C312.309 409.736 310.11 412.039 308.067 410.928L304.872 409.192C303.515 408.453 301.876 408.453 300.518 409.192L297.324 410.928C295.281 412.039 293.081 409.736 294.286 407.746L298.797 400.297Z" fill="#01657F"/>
<path fill-rule="evenodd" clip-rule="evenodd" d="M296.533 409.328C297.791 407.987 298.91 406.794 299.883 406.516C300 406.482 300.12 406.448 300.241 406.414C302.66 405.73 305.742 404.858 305.742 402.18C305.742 401.238 305.934 400.414 306.197 399.737C304.25 397.382 300.449 397.569 298.797 400.297L294.286 407.746C293.558 408.948 294.073 410.265 295.045 410.874C295.561 410.365 296.057 409.836 296.533 409.328Z" fill="url(#paint11_linear_112_14465)"/>
<g style="mix-blend-mode:soft-light" opacity="0.4">
<path d="M327.256 359.197C328.595 360.529 326.734 364.535 324.677 363.348C321.649 361.6 325.916 357.866 327.256 359.197Z" fill="white"/>
</g>
<g style="mix-blend-mode:soft-light" opacity="0.4">
<path d="M312.278 420.393C313.944 419.504 317.227 422.46 315.488 424.077C312.929 426.458 310.612 421.283 312.278 420.393Z" fill="white"/>
</g>
<g style="mix-blend-mode:soft-light" opacity="0.4">
<path d="M312.686 366.758C314.352 365.868 317.635 368.824 315.896 370.442C313.337 372.823 311.02 367.648 312.686 366.758Z" fill="white"/>
</g>
<g style="mix-blend-mode:soft-light" opacity="0.4">
<path d="M339.164 393.033C340.918 392.332 343.855 395.632 341.948 397.048C339.141 399.132 337.41 393.733 339.164 393.033Z" fill="white"/>
</g>
<g style="mix-blend-mode:soft-light" opacity="0.4">
<path d="M355.077 400.994C355.969 401.664 355.204 404.16 353.904 403.632C351.991 402.854 354.185 400.323 355.077 400.994Z" fill="white"/>
</g>
<g style="mix-blend-mode:soft-light" opacity="0.4">
<path d="M355.702 422.843C356.594 423.513 355.829 426.009 354.529 425.481C352.616 424.703 354.81 422.172 355.702 422.843Z" fill="white"/>
</g>
<path d="M155.618 396.888L159.599 408.868H158.856L161.521 415.76H160.351L163.168 423.618H148.067L150.884 415.76H149.715L152.38 408.868H151.637L155.618 396.888Z" fill="#139BA5"/>
<path opacity="0.3" fill-rule="evenodd" clip-rule="evenodd" d="M155.76 397.706C155.874 399.545 156.012 401.758 155.665 403.668C155.24 406.008 157.817 407.255 159.192 407.644L155.73 397.226C155.739 397.383 155.749 397.543 155.76 397.706V397.706V397.706ZM159.048 408.868C158.369 408.854 157.612 408.835 156.894 408.817C155.799 408.789 154.795 408.763 154.298 408.763C153.764 408.763 153.875 408.801 154.311 408.951C154.993 409.184 156.469 409.691 157.529 410.751C158.042 411.264 158.587 411.941 159.145 412.635L159.145 412.635L159.145 412.635L159.145 412.635C159.829 413.484 160.533 414.358 161.221 414.985L158.856 408.868H159.048ZM160.491 415.76C158.466 415.715 156.042 415.719 154.526 415.721H154.526L154.522 415.721C154.25 415.721 154.007 415.721 153.801 415.721C152.795 415.721 153.628 416.067 154.826 416.564L154.826 416.564L154.826 416.564C156.289 417.17 158.296 418.002 158.15 418.704C157.711 420.813 152.186 421.913 148.536 422.31L148.48 422.466L162.897 422.861L160.351 415.76H160.491ZM150.384 417.155C151.389 416.459 152.395 415.721 152.186 415.721C152.076 415.721 151.369 415.738 150.478 415.76L150.477 415.76C150.475 415.76 150.473 415.76 150.471 415.76H150.884L150.384 417.155ZM151.915 410.07C152.52 409.644 153.16 409.112 153.553 408.763L152.132 408.868H152.38L151.915 410.07Z" fill="#01657F"/>
<path fill-rule="evenodd" clip-rule="evenodd" d="M148.205 417.241L144.631 407.902L141.057 417.241H141.799L139.324 424.195H149.791L147.316 417.241H148.205Z" fill="#139BA5"/>
<path fill-rule="evenodd" clip-rule="evenodd" d="M144.11 412.615C144.051 411.846 144.217 411.134 144.407 410.318C144.546 409.722 144.698 409.071 144.784 408.302L147.083 414.309C146.89 414.25 146.689 414.194 146.487 414.138C145.352 413.822 144.178 413.495 144.11 412.615ZM148.194 417.212H143.116C144.276 418.289 146.248 420.816 144.856 422.307C143.464 423.798 146.927 422.928 148.832 422.307V421.5L147.316 417.24H148.205L148.194 417.212ZM141.442 418.245C141.828 417.816 142.274 417.385 142.619 417.212C142.379 417.212 141.992 417.219 141.636 417.24H141.8L141.442 418.245Z" fill="#0E8B9A"/>
<path d="M88.3842 428.985C78.7243 431.347 65.5107 434.398 60.1113 435.628C63.3509 435.923 72.0684 436.514 81.0215 436.514C92.2129 436.514 113.859 435.628 121.811 435.628C129.763 435.628 138.893 436.514 148.17 435.628C157.447 434.742 159.508 435.628 172.467 435.628C185.425 435.628 203.979 437.104 212.373 435.628C219.088 434.447 233.234 433.168 239.468 432.676C238.437 429.871 192.199 428.985 188.223 428.542C178.155 427.421 170.306 421.604 159.508 421.604C153.66 421.604 146.387 418.982 141.396 422.933C138.088 422.933 133 419.699 130.646 420.128C129.027 420.423 123.136 421.013 117.982 421.604C112.829 422.194 100.459 426.033 88.3842 428.985Z" fill="#11B4B7"/>
<path d="M88.3842 428.985C78.7243 431.347 65.5107 434.398 60.1113 435.628C63.3509 435.923 72.0684 436.514 81.0215 436.514C92.2129 436.514 113.859 435.628 121.811 435.628C129.763 435.628 138.893 436.514 148.17 435.628C157.447 434.742 159.508 435.628 172.467 435.628C185.425 435.628 203.979 437.104 212.373 435.628C219.088 434.447 233.234 433.168 239.468 432.676C238.437 429.871 192.199 428.985 188.223 428.542C178.155 427.421 170.306 421.604 159.508 421.604C153.66 421.604 146.387 418.982 141.396 422.933C138.088 422.933 133 419.699 130.646 420.128C129.027 420.423 123.136 421.013 117.982 421.604C112.829 422.194 100.459 426.033 88.3842 428.985Z" fill="url(#paint12_linear_112_14465)"/>
<path fill-rule="evenodd" clip-rule="evenodd" d="M227.123 430.497C224.384 431.026 221.512 431.7 218.714 432.356C215.369 433.141 212.128 433.902 209.345 434.36C202.564 435.477 189.279 434.545 176.789 433.669C169.824 433.18 163.107 432.709 157.903 432.62C150.606 432.496 148.881 432.934 147.04 433.402C145.214 433.867 143.274 434.36 135.661 434.36H84.5908H65.6367C63.4068 434.875 61.5004 435.312 60.1113 435.628C63.3509 435.923 72.0684 436.514 81.0215 436.514C87.0941 436.514 96.245 436.253 104.616 436.015C111.672 435.814 118.174 435.628 121.811 435.628C124.375 435.628 127.061 435.72 129.835 435.815C135.665 436.015 141.884 436.228 148.17 435.628C153.824 435.088 156.798 435.207 161.192 435.381C164.007 435.493 167.406 435.628 172.467 435.628C176.749 435.628 181.642 435.789 186.577 435.952C196.578 436.281 206.753 436.617 212.373 435.628C219.088 434.447 233.234 433.168 239.468 432.676C239.132 431.763 234.014 431.054 227.123 430.497Z" fill="white" fill-opacity="0.2"/>
<g style="mix-blend-mode:soft-light">
<path fill-rule="evenodd" clip-rule="evenodd" d="M142.697 422.072C142.833 422.09 142.972 422.108 143.116 422.126C148.957 422.856 159.088 423.111 164.056 421.942C162.592 421.727 161.082 421.604 159.508 421.604C157.869 421.604 156.119 421.398 154.338 421.188C150.296 420.713 146.098 420.219 142.697 422.072ZM61.4757 435.743C60.9506 435.702 60.493 435.663 60.1113 435.628C65.5107 434.398 78.7243 431.347 88.3842 428.985C93.0085 427.854 97.676 426.594 101.965 425.435C108.875 423.569 114.802 421.968 117.982 421.604C119.623 421.416 121.339 421.228 122.968 421.049C126.454 420.667 129.542 420.329 130.646 420.128C130.936 420.075 131.267 420.077 131.631 420.123C131.687 421.081 131.314 421.885 130.352 422.126C130.233 422.156 130.101 422.189 129.957 422.225C127.271 422.903 120.542 424.599 116.069 424.04C113.139 423.674 105.771 426.267 98.7395 428.742L98.7395 428.742C94.4606 430.247 90.3065 431.709 87.3539 432.434C82.9545 433.513 71.3267 434.801 61.4757 435.743Z" fill="white"/>
</g>
<path d="M265.542 429.025C256.25 431.399 243.54 434.465 238.346 435.701C241.462 435.998 249.848 436.592 258.46 436.592C269.225 436.592 290.048 435.701 297.697 435.701C305.346 435.701 314.128 436.592 323.052 435.701C331.976 434.811 333.959 435.701 346.425 435.701C358.89 435.701 360.25 436.68 368.324 435.196C374.783 434.009 370.766 432.988 370.766 432.523C367.162 429.267 365.406 429.025 361.581 428.579C351.896 427.452 344.346 421.606 333.959 421.606C328.334 421.606 321.338 418.971 316.536 422.941C313.354 422.941 308.46 419.691 306.196 420.122C304.638 420.419 298.972 421.012 294.014 421.606C289.056 422.199 277.158 426.057 265.542 429.025Z" fill="#11B4B7"/>
<path d="M265.542 429.025C256.25 431.399 243.54 434.465 238.346 435.701C241.462 435.998 249.848 436.592 258.46 436.592C269.225 436.592 290.048 435.701 297.697 435.701C305.346 435.701 314.128 436.592 323.052 435.701C331.976 434.811 333.959 435.701 346.425 435.701C358.89 435.701 360.25 436.68 368.324 435.196C374.783 434.009 370.766 432.988 370.766 432.523C367.162 429.267 365.406 429.025 361.581 428.579C351.896 427.452 344.346 421.606 333.959 421.606C328.334 421.606 321.338 418.971 316.536 422.941C313.354 422.941 308.46 419.691 306.196 420.122C304.638 420.419 298.972 421.012 294.014 421.606C289.056 422.199 277.158 426.057 265.542 429.025Z" fill="url(#paint13_linear_112_14465)"/>
<path d="M315.211 429.765C314.021 429.142 302.842 425.33 295.971 425.33C289.1 425.33 283.53 428.677 285.976 429.765C288.663 431.264 312.4 433.263 315.211 429.765Z" fill="url(#paint14_linear_112_14465)" fill-opacity="0.5"/>
<g filter="url(#filter1_d_112_14465)">
<path fill-rule="evenodd" clip-rule="evenodd" d="M124.655 429.418C124.647 429.274 124.643 429.129 124.643 428.984C124.643 424.637 128.167 421.113 132.514 421.113C136.861 421.113 140.385 424.637 140.385 428.984C140.385 430.011 140.188 430.992 139.83 431.891C138.566 431.914 137.159 431.884 135.95 431.733C135.193 431.638 134.3 431.603 133.34 431.565C130.5 431.454 127.072 431.32 124.831 429.546C124.775 429.501 124.716 429.459 124.655 429.418Z" fill="white"/>
<ellipse rx="0.374801" ry="0.437267" transform="matrix(-0.991167 0.132616 0.132616 0.991167 134.764 425.719)" fill="#1F3C6A"/>
<ellipse rx="0.374801" ry="0.437267" transform="matrix(-0.999673 0.02558 0.02558 0.999673 135.084 428.139)" fill="#1F3C6A"/>
<ellipse rx="0.374801" ry="0.437267" transform="matrix(-0.999765 -0.0216585 -0.0216585 0.999765 135.129 430.351)" fill="#1F3C6A"/>
<path fill-rule="evenodd" clip-rule="evenodd" d="M138.66 424.067C139.739 425.414 140.385 427.124 140.385 428.984C140.385 430.011 140.188 430.992 139.83 431.891C138.566 431.914 137.159 431.884 135.95 431.733C135.193 431.638 134.3 431.603 133.34 431.565H133.34C130.805 431.466 127.803 431.349 125.593 430.064C128.073 429.296 130.392 429.349 132.38 429.395C135.064 429.456 137.145 429.504 138.208 427.5C138.957 426.089 138.881 424.906 138.66 424.067Z" fill="#1BB4B7" fill-opacity="0.1"/>
<path fill-rule="evenodd" clip-rule="evenodd" d="M127.654 423.69C127.17 422.859 126.893 421.894 126.893 420.863C126.893 417.758 129.41 415.241 132.515 415.241C135.62 415.241 138.137 417.758 138.137 420.863C138.137 421.875 137.869 422.825 137.401 423.645C136.567 424.163 134.875 424.856 131.889 424.736C129.533 424.642 128.299 424.153 127.654 423.69Z" fill="white"/>
<ellipse rx="0.374801" ry="0.437267" transform="matrix(-0.991167 0.132616 0.132616 0.991167 134.14 418.177)" fill="#1F3C6A"/>
<ellipse rx="0.374801" ry="0.437267" transform="matrix(-0.999673 0.02558 0.02558 0.999673 134.459 420.597)" fill="#1F3C6A"/>
<ellipse rx="0.374801" ry="0.437267" transform="matrix(-0.999765 -0.0216585 -0.0216585 0.999765 134.503 422.809)" fill="#1F3C6A"/>
<path fill-rule="evenodd" clip-rule="evenodd" d="M137.242 417.82C137.274 418.801 136.944 419.793 136.095 420.326C135.278 420.84 134.217 420.778 133.065 420.71C131.155 420.598 128.996 420.472 127.283 422.927C127.316 423.01 127.351 423.091 127.387 423.172C127.883 423.61 129.585 424.789 133.409 424.636C135.409 424.556 136.6 424.192 137.31 423.8C137.834 422.946 138.137 421.94 138.137 420.863C138.137 419.742 137.808 418.697 137.242 417.82Z" fill="#1BB4B7" fill-opacity="0.1"/>
<path d="M128.89 413.242C128.89 415.243 130.512 416.866 132.513 416.866C134.514 416.866 136.136 415.243 136.136 413.242C136.136 411.241 134.514 409.619 132.513 409.619C130.512 409.619 128.89 411.241 128.89 413.242Z" fill="white"/>
<path fill-rule="evenodd" clip-rule="evenodd" d="M129.22 414.757C129.408 414.785 129.657 414.838 129.982 414.925C131.606 415.362 133.66 415.13 134.417 414.55C135.479 413.738 135.292 411.489 134.417 410.74C133.925 410.318 133.422 409.956 132.935 409.644C134.737 409.853 136.136 411.384 136.136 413.242C136.136 415.232 134.532 416.847 132.546 416.865L131.062 416.564C130.249 416.208 129.591 415.562 129.22 414.757Z" fill="#1BB4B7" fill-opacity="0.1"/>
<ellipse rx="0.374801" ry="0.437267" transform="matrix(-1 0 0 1 132.139 412.555)" fill="#1F3C6A"/>
<ellipse rx="0.374801" ry="0.437267" transform="matrix(-1 0 0 1 134.762 412.555)" fill="#1F3C6A"/>
<path d="M137.761 413.654L133.683 412.993C133.149 413.469 133.461 413.941 133.683 414.117L137.761 413.654Z" fill="#FF576F"/>
<path fill-rule="evenodd" clip-rule="evenodd" d="M137.649 413.636C136.27 413.72 133.964 413.835 133.824 413.742C133.675 413.642 133.525 413.304 133.598 413.076C133.185 413.523 133.474 413.951 133.683 414.117L137.761 413.654L137.649 413.636Z" fill="#1F3C6A" fill-opacity="0.1"/>
<path d="M133.263 414.679C132.878 414.825 132.023 414.879 131.686 413.93" stroke="#1F3C6A" stroke-width="1.13036" stroke-linecap="round"/>
<path d="M131.951 422.987C131.752 420.838 132.243 417.636 132.514 416.303L130.64 416.428C129.89 417.977 129.786 421.363 129.953 422.8L131.951 422.987Z" fill="#108C9B"/>
<path fill-rule="evenodd" clip-rule="evenodd" d="M131.727 422.966C131.578 421.432 131.413 418.653 131.76 417.699L130.362 417.175C130.443 416.897 130.535 416.645 130.64 416.428L132.007 416.337L132.483 416.456C132.208 417.868 131.759 420.917 131.952 422.987L131.727 422.966Z" fill="#1F3C6A" fill-opacity="0.2"/>
<path d="M136.2 416.616C136.25 416.266 135.929 415.346 135.763 414.929C133.951 415.679 130.536 415.47 129.204 414.929C129.004 415.529 128.954 416.303 128.954 416.616C131.515 417.865 136.137 417.053 136.2 416.616Z" fill="#108C9B"/>
<path fill-rule="evenodd" clip-rule="evenodd" d="M129.133 415.169C129.154 415.087 129.178 415.007 129.204 414.929C130.536 415.47 133.951 415.679 135.763 414.929C135.929 415.346 136.25 416.266 136.2 416.616C136.137 417.053 131.515 417.865 128.954 416.616C128.954 416.6 128.954 416.583 128.954 416.565C129.563 416.717 130.406 416.827 131.515 416.803C133.578 416.758 134.547 415.972 134.813 415.371C134.323 415.49 133.623 415.582 132.639 415.616C130.92 415.675 129.804 415.445 129.133 415.169Z" fill="#1F3C6A" fill-opacity="0.1"/>
</g>
<path d="M302.098 416.184C305.97 414.715 312.513 413.647 317.854 414.181C324.53 416.184 293.42 422.326 293.019 420.857C292.618 419.389 298.226 417.653 302.098 416.184Z" fill="url(#paint15_linear_112_14465)"/>
<path d="M290.835 421.388C288.164 420.19 286.162 423.257 288.031 423.524C289.9 423.791 292.704 422.586 290.835 421.388Z" fill="url(#paint16_linear_112_14465)"/>
<g filter="url(#filter2_d_112_14465)">
<path fill-rule="evenodd" clip-rule="evenodd" d="M339.816 423.775C339.833 423.468 339.842 423.159 339.842 422.848C339.842 413.556 332.309 406.024 323.018 406.024C313.727 406.024 306.194 413.556 306.194 422.848C306.194 425.042 306.615 427.139 307.379 429.062C310.082 429.111 313.091 429.045 315.675 428.722C317.293 428.52 319.201 428.446 321.253 428.365C327.324 428.128 334.651 427.842 339.441 424.049C339.562 423.954 339.687 423.863 339.816 423.775Z" fill="white"/>
<ellipse cx="318.207" cy="415.869" rx="0.801126" ry="0.934647" transform="rotate(7.62078 318.207 415.869)" fill="#1F3C6A"/>
<ellipse cx="317.523" cy="421.041" rx="0.801126" ry="0.934647" transform="rotate(1.46579 317.523 421.041)" fill="#1F3C6A"/>
<ellipse cx="317.43" cy="425.77" rx="0.801126" ry="0.934647" transform="rotate(-1.24104 317.43 425.77)" fill="#1F3C6A"/>
<path fill-rule="evenodd" clip-rule="evenodd" d="M339.816 423.775C339.833 423.468 339.842 423.159 339.842 422.848C339.842 413.556 332.309 406.024 323.018 406.024C313.727 406.024 306.194 413.556 306.194 422.848C306.194 425.042 306.615 427.139 307.379 429.062C310.082 429.111 313.091 429.045 315.675 428.722C317.293 428.52 319.201 428.446 321.253 428.365C327.324 428.128 334.651 427.842 339.441 424.049C339.562 423.954 339.687 423.863 339.816 423.775Z" fill="#1BB4B7" fill-opacity="0.1"/>
<path fill-rule="evenodd" clip-rule="evenodd" d="M333.407 411.53C334.441 409.755 335.033 407.692 335.033 405.49C335.033 398.853 329.653 393.473 323.016 393.473C316.379 393.473 310.999 398.853 310.999 405.49C310.999 407.654 311.571 409.684 312.572 411.437C314.356 412.544 317.972 414.023 324.352 413.768C329.39 413.567 332.029 412.52 333.407 411.53Z" fill="white"/>
<ellipse cx="319.545" cy="399.748" rx="0.801126" ry="0.934647" transform="rotate(7.62078 319.545 399.748)" fill="#1F3C6A"/>
<ellipse cx="318.861" cy="404.92" rx="0.801126" ry="0.934647" transform="rotate(1.46579 318.861 404.92)" fill="#1F3C6A"/>
<ellipse cx="318.767" cy="409.649" rx="0.801126" ry="0.934647" transform="rotate(-1.24104 318.767 409.649)" fill="#1F3C6A"/>
<path fill-rule="evenodd" clip-rule="evenodd" d="M333.407 411.53C334.441 409.755 335.033 407.692 335.033 405.49C335.033 402.664 334.057 400.066 332.425 398.014C332.841 400.455 332.251 403.198 330.093 404.555C328.346 405.653 326.078 405.52 323.616 405.376C319.694 405.146 315.279 404.888 311.692 409.523C311.93 410.19 312.225 410.831 312.572 411.438C314.356 412.545 317.972 414.023 324.351 413.768C329.39 413.567 332.029 412.52 333.407 411.53Z" fill="#1BB4B7" fill-opacity="0.1"/>
<path d="M321.088 373.427L319.785 383.229L327.702 384.627L330.213 374.801C327.517 372.623 323.006 372.977 321.088 373.427Z" fill="#11B4B7"/>
<g style="mix-blend-mode:soft-light" opacity="0.6">
<path d="M321.147 377.584L321.681 373.979C324.031 373.231 326.666 374.023 327.69 374.513C326.488 374.246 325.153 375.181 324.352 376.649C323.711 377.824 321.949 377.762 321.147 377.584Z" fill="white"/>
</g>
<path fill-rule="evenodd" clip-rule="evenodd" d="M321.383 379.07C322.196 379.377 323.103 379.72 324.219 379.854C327.442 380.241 329.047 376.27 329.514 374.314C329.758 374.46 329.992 374.622 330.214 374.801L327.772 384.355L319.893 382.421L320.385 378.715C320.707 378.814 321.036 378.939 321.383 379.07Z" fill="#1F3C6A" fill-opacity="0.1"/>
<path d="M324.421 380.15C320.339 379.524 316.903 379.845 316.747 380.865L316.607 381.99L318.209 382.277C319.5 382.904 321.532 383.489 323.855 383.845C326.853 384.305 329.503 384.254 330.76 383.79L331.294 384.126L331.529 383.13C331.685 382.11 328.503 380.776 324.421 380.15Z" fill="#11B4B7"/>
<path d="M324.421 380.15C320.339 379.524 316.903 379.845 316.747 380.865L316.607 381.99L318.209 382.277C319.5 382.904 321.532 383.489 323.855 383.845C326.853 384.305 329.503 384.254 330.76 383.79L331.294 384.126L331.529 383.13C331.685 382.11 328.503 380.776 324.421 380.15Z" fill="white" fill-opacity="0.27"/>
<g style="mix-blend-mode:soft-light">
<path d="M317.008 381.055L317.008 380.655C318.343 379.854 320.568 380.032 321.28 380.121C319.251 380.228 317.542 380.788 317.008 381.055Z" fill="white"/>
</g>
<ellipse cx="323.929" cy="382.987" rx="7.47718" ry="1.86929" transform="rotate(8.71271 323.929 382.987)" fill="#12A8AF"/>
<path fill-rule="evenodd" clip-rule="evenodd" d="M318.953 382.606C316.744 383.971 315.272 386.413 315.272 389.2C315.272 393.477 318.74 396.944 323.017 396.944C327.294 396.944 330.761 393.477 330.761 389.2C330.761 387.029 329.867 385.066 328.428 383.66C323.947 381.792 320.612 382.061 318.953 382.606Z" fill="white"/>
<path fill-rule="evenodd" clip-rule="evenodd" d="M315.908 392.278C316.332 392.321 316.943 392.439 317.809 392.672C321.281 393.606 325.67 393.109 327.289 391.871C329.559 390.135 329.159 385.328 327.289 383.726C326.948 383.433 326.605 383.155 326.261 382.888C326.949 383.091 327.672 383.345 328.428 383.66C329.867 385.066 330.761 387.029 330.761 389.2C330.761 393.233 327.679 396.545 323.742 396.911L319.334 396.014C317.814 395.191 316.6 393.874 315.908 392.278Z" fill="#1BB4B7" fill-opacity="0.1"/>
<ellipse cx="323.818" cy="387.732" rx="0.801126" ry="0.934647" fill="#1F3C6A"/>
<ellipse cx="318.21" cy="387.732" rx="0.801126" ry="0.934647" fill="#1F3C6A"/>
<path d="M311.801 390.08L320.516 388.666C321.659 389.684 320.992 390.693 320.516 391.07L311.801 390.08Z" fill="#FF576F"/>
<path fill-rule="evenodd" clip-rule="evenodd" d="M312.04 390.041C314.987 390.22 319.915 390.467 320.213 390.268C320.533 390.055 320.854 389.328 320.696 388.841C321.583 389.798 320.965 390.714 320.516 391.069L311.801 390.08L312.04 390.041Z" fill="#1F3C6A" fill-opacity="0.1"/>
<path d="M321.414 392.271C322.237 392.583 324.064 392.698 324.785 390.669" stroke="#1F3C6A" stroke-width="1.13938" stroke-linecap="round"/>
<path d="M324.669 411.297L324.555 409.191L325.234 409.154L325.348 411.26M326.028 411.223L325.914 409.117L326.593 409.08L326.707 411.186M327.5 411.143L327.386 409.037L328.065 409L328.179 411.106" stroke="#0B94A1" stroke-linecap="round"/>
<path d="M324.218 410.029C324.646 405.436 323.595 398.591 323.017 395.743L327.022 396.01C328.624 399.321 328.847 406.558 328.491 409.629L324.218 410.029Z" fill="#11B4B7"/>
<path fill-rule="evenodd" clip-rule="evenodd" d="M324.258 409.54C324.247 409.706 324.233 409.869 324.219 410.029L328.491 409.629C328.826 406.737 328.649 400.152 327.289 396.628L323.162 396.491C323.271 397.075 323.389 397.76 323.506 398.516C326.016 398.771 327.345 399.304 327.657 401.594C327.897 403.351 327.814 406.933 327.711 409.211L324.258 409.54Z" fill="#01657F" fill-opacity="0.4"/>
<path fill-rule="evenodd" clip-rule="evenodd" d="M323.359 397.608C323.938 397.56 324.586 397.536 325.225 397.526C326.043 397.512 326.878 397.521 327.596 397.539C327.69 397.859 327.778 398.197 327.858 398.546C327.093 398.524 326.156 398.51 325.242 398.525C324.623 398.536 324.032 398.559 323.519 398.598C323.466 398.253 323.412 397.922 323.359 397.608ZM324.318 407.605C324.318 407.275 324.312 406.939 324.303 406.6C325.429 406.463 327.074 406.304 328.637 406.261C328.639 406.606 328.637 406.94 328.631 407.262C327.068 407.306 325.414 407.47 324.318 407.605ZM328.572 404.115C327.662 404.146 326.582 404.198 325.571 404.275C325.083 404.312 324.614 404.355 324.19 404.404C324.166 404.071 324.139 403.738 324.11 403.407C324.542 403.357 325.012 403.315 325.494 403.278C326.51 403.2 327.592 403.148 328.507 403.117C328.533 403.451 328.554 403.785 328.572 404.115ZM323.901 401.397C323.861 401.06 323.82 400.729 323.777 400.404C324.24 400.349 324.744 400.298 325.259 400.257C326.239 400.181 327.285 400.145 328.176 400.212C328.229 400.546 328.276 400.886 328.319 401.228C327.476 401.143 326.397 401.172 325.337 401.254C324.837 401.293 324.349 401.343 323.901 401.397Z" fill="#01657F" fill-opacity="0.4"/>
<path d="M315.139 396.41C315.032 395.663 315.718 393.695 316.074 392.805C319.946 394.407 327.245 393.962 330.093 392.805C330.521 394.087 330.628 395.743 330.628 396.41C325.153 399.081 315.273 397.345 315.139 396.41Z" fill="#11B4B7"/>
<path fill-rule="evenodd" clip-rule="evenodd" d="M315.154 395.887C316.429 396.392 318.634 396.883 321.949 396.811C326.36 396.715 328.429 395.035 328.998 393.75C327.952 394.004 326.456 394.201 324.352 394.274C319.851 394.429 317.286 393.654 316.032 392.912C316.046 392.875 316.06 392.839 316.074 392.805C319.946 394.407 327.245 393.962 330.093 392.805C330.521 394.087 330.628 395.743 330.628 396.41C325.153 399.081 315.273 397.345 315.139 396.41C315.119 396.273 315.127 396.093 315.154 395.887Z" fill="#1F3C6A" fill-opacity="0.1"/>
</g>
<g opacity="0.25">
<path d="M312.816 389.84C325.682 383.261 363.047 362.01 363.047 337.062V272.297C363.047 265.09 355.974 259.867 348.965 261.545C338.286 264.102 323.02 266.989 308.523 266.989C294.027 266.989 278.761 264.102 268.082 261.545C261.073 259.867 254 265.09 254 272.297V337.062C254 362.01 291.364 383.261 304.231 389.84C306.953 391.231 310.094 391.231 312.816 389.84Z" fill="white" fill-opacity="0.101961"/>
<path d="M312.812 374.215C324.044 368.412 353.458 351.305 353.458 331.3V280.77C353.458 273.569 346.391 268.342 339.366 269.922C330.773 271.854 319.386 273.812 308.524 273.812C297.661 273.812 286.275 271.854 277.682 269.922C270.656 268.342 263.59 273.569 263.59 280.77V331.3C263.59 351.305 293.004 368.412 304.235 374.215C306.94 375.612 310.107 375.612 312.812 374.215Z" fill="white" fill-opacity="0.101961"/>
<path d="M312.827 360.461C322.082 355.525 343.046 342.699 343.046 327.793V292.035C343.046 284.825 335.956 279.593 328.889 281.023C322.822 282.25 315.531 283.318 308.523 283.318C301.516 283.318 294.224 282.25 288.158 281.023C281.091 279.593 274.001 284.825 274.001 292.035V327.793C274.001 342.699 294.964 355.525 304.219 360.461C306.922 361.903 310.124 361.903 312.827 360.461Z" fill="white" fill-opacity="0.101961"/>
<path d="M312.801 349.753C320.187 345.693 334.553 336.423 334.553 325.731V294.468C334.553 291.191 331.339 288.818 328.155 289.59C323.044 290.83 315.593 292.268 308.524 292.268C301.455 292.268 294.003 290.83 288.893 289.59C285.709 288.818 282.495 291.191 282.495 294.468V325.731C282.495 336.423 296.861 345.693 304.247 349.753C306.927 351.226 310.121 351.226 312.801 349.753Z" fill="white" fill-opacity="0.142"/>
</g>
<g filter="url(#filter3_d_112_14465)">
<path d="M314.224 341.414C320.2 337.825 328.731 331.435 328.731 324.203V298.477C328.731 296.708 327.001 295.429 325.289 295.875C321.39 296.89 314.764 298.328 308.524 298.328C302.283 298.328 295.658 296.89 291.759 295.875C290.047 295.429 288.316 296.708 288.316 298.477V324.203C288.316 331.435 296.848 337.825 302.824 341.414C306.352 343.532 310.696 343.532 314.224 341.414Z" fill="white" fill-opacity="0.8" shape-rendering="crispEdges"/>
</g>
<g filter="url(#filter4_d_112_14465)">
<path d="M314.208 336.463C318.865 333.487 324.689 328.692 324.689 323.319V303.333C324.689 301.562 322.953 300.281 321.236 300.712C318.062 301.508 313.16 302.506 308.523 302.506C303.887 302.506 298.985 301.508 295.811 300.712C294.094 300.281 292.357 301.562 292.357 303.333V323.319C292.357 328.692 298.182 333.487 302.839 336.463C306.324 338.69 310.723 338.69 314.208 336.463Z" fill="white" fill-opacity="0.8" shape-rendering="crispEdges"/>
</g>
<path d="M303.074 313.379L301.129 318.964L299.185 313.379C299.151 313.28 299.059 313.215 298.955 313.215H297.181C297.101 313.215 297.027 313.254 296.981 313.32C296.936 313.386 296.925 313.47 296.953 313.545L300.031 321.946C300.067 322.042 300.158 322.106 300.26 322.106H301.928C302.03 322.106 302.121 322.042 302.156 321.946L305.247 313.545C305.275 313.47 305.264 313.386 305.219 313.32C305.173 313.254 305.099 313.215 305.019 313.215H303.303C303.2 313.215 303.108 313.28 303.074 313.379Z" fill="url(#paint17_linear_112_14465)"/>
<path fill-rule="evenodd" clip-rule="evenodd" d="M306.006 313.215C305.872 313.215 305.763 313.324 305.763 313.46V321.861C305.763 321.996 305.872 322.106 306.006 322.106H307.628C307.763 322.106 307.871 321.996 307.871 321.861V318.942H309.121C309.997 318.942 310.745 318.651 311.275 318.138C311.806 317.624 312.102 316.904 312.102 316.078C312.102 315.259 311.805 314.539 311.275 314.024C310.746 313.509 309.998 313.215 309.121 313.215H306.006ZM307.883 317.042V315.127H308.921C309.281 315.127 309.543 315.229 309.712 315.386C309.879 315.541 309.982 315.774 309.982 316.09C309.982 316.393 309.88 316.623 309.712 316.779C309.542 316.937 309.28 317.042 308.921 317.042H307.883Z" fill="url(#paint18_linear_112_14465)"/>
<path d="M319.866 322.106C320 322.106 320.109 321.996 320.109 321.861V313.46C320.109 313.324 320 313.215 319.866 313.215H318.244C318.109 313.215 318.001 313.324 318.001 313.46V318.166L314.983 313.329C314.939 313.258 314.861 313.215 314.777 313.215H312.756C312.622 313.215 312.513 313.324 312.513 313.46V321.861C312.513 321.996 312.622 322.106 312.756 322.106H314.378C314.512 322.106 314.621 321.996 314.621 321.861V316.739L317.957 321.993C318.001 322.063 318.079 322.106 318.162 322.106H319.866Z" fill="url(#paint19_linear_112_14465)"/>
<g opacity="0.3">
<path d="M300.461 93.6604C303.521 96.7016 299.268 105.855 294.569 103.142C287.653 99.1496 297.4 90.6192 300.461 93.6604Z" fill="#4FC7CA"/>
<path d="M187.022 245.183C185.894 247.387 180.147 246.662 180.809 243.619C181.783 239.141 188.15 242.979 187.022 245.183Z" fill="#17C9CC"/>
<path d="M342.28 339.391C341.152 341.595 335.405 340.87 336.067 337.827C337.041 333.348 343.408 337.187 342.28 339.391Z" fill="#17C9CC"/>
<path d="M87.7011 245.244C85.7869 248.986 76.0325 247.755 77.1559 242.59C78.8093 234.988 89.6153 241.503 87.7011 245.244Z" fill="#17C9CC"/>
<path d="M87.7011 97.2442C85.7869 100.986 76.0325 99.7545 77.1559 94.5895C78.8093 86.9883 89.6153 93.5027 87.7011 97.2442Z" fill="#17C9CC"/>
<path d="M108.612 355.691C106.698 359.432 96.9436 358.201 98.0671 353.036C99.7204 345.435 110.526 351.949 108.612 355.691Z" fill="#17C9CC"/>
<path d="M295.701 21.2442C293.787 24.9857 284.032 23.7545 285.156 18.5895C286.809 10.9882 297.615 17.5026 295.701 21.2442Z" fill="#17C9CC"/>
<path d="M113.7 17.2442C111.786 20.9857 102.032 19.7545 103.155 14.5895C104.808 6.98824 115.614 13.5026 113.7 17.2442Z" fill="#17C9CC"/>
<path d="M39.3681 260.122C37.4539 263.864 27.6995 262.632 28.8229 257.467C30.4763 249.866 41.2823 256.381 39.3681 260.122Z" fill="#17C9CC"/>
<path d="M39.3681 260.122C37.4539 263.864 27.6995 262.632 28.8229 257.467C30.4763 249.866 41.2823 256.381 39.3681 260.122Z" fill="#11B4B7"/>
<path d="M53.6818 304.955C48.6301 298.303 59.2387 281.894 67.5212 288.356C79.7103 297.866 58.7336 311.607 53.6818 304.955Z" fill="#17C9CC"/>
<path d="M53.6818 304.955C48.6301 298.303 59.2387 281.894 67.5212 288.356C79.7103 297.866 58.7336 311.607 53.6818 304.955Z" fill="#11B4B7"/>
<path d="M29.1857 68.9503C24.134 62.2986 34.7426 45.8895 43.0251 52.3513C55.2142 61.8611 34.2375 75.602 29.1857 68.9503Z" fill="#17C9CC"/>
<path d="M29.1857 68.9503C24.134 62.2986 34.7426 45.8895 43.0251 52.3513C55.2142 61.8611 34.2375 75.602 29.1857 68.9503Z" fill="#11B4B7"/>
<path d="M25.6337 336.234C23.7195 339.975 13.9651 338.744 15.0885 333.579C16.7419 325.978 27.548 332.492 25.6337 336.234Z" fill="#17C9CC"/>
<path d="M46.3053 117.679C45.1775 119.883 39.4305 119.158 40.0924 116.115C41.0665 111.636 47.4332 115.475 46.3053 117.679Z" fill="#A5E9EA"/>
<path d="M257.209 266.873C258.866 271.479 250.053 278.792 246.556 273.725C241.411 266.267 255.552 262.267 257.209 266.873Z" fill="#A5E9EA"/>
<g style="mix-blend-mode:soft-light" opacity="0.4">
<path d="M343.814 140.001C347.62 137.969 355.122 144.722 351.148 148.417C345.301 153.856 340.009 142.034 343.814 140.001Z" fill="white"/>
</g>
<path d="M310.84 58.9838C314.847 57.3837 321.557 64.9229 317.201 68.1576C310.789 72.9182 306.833 60.5839 310.84 58.9838Z" fill="#4FC7CA"/>
<path d="M349.675 57.9397C351.713 59.4717 349.965 65.1733 346.995 63.9663C342.624 62.19 347.638 56.4078 349.675 57.9397Z" fill="#5CCBCE"/>
<g style="mix-blend-mode:soft-light" opacity="0.4">
<path d="M72.8265 23.8155C74.8639 25.3474 73.1166 31.049 70.1465 29.842C65.7754 28.0657 70.7891 22.2835 72.8265 23.8155Z" fill="white"/>
</g>
<path opacity="0.4" d="M238.056 145.795C240.406 144.806 244.451 149.188 241.912 151.146C238.176 154.027 235.707 146.783 238.056 145.795Z" fill="#B5ECED"/>
<path opacity="0.4" d="M232.617 385.468C234.967 384.48 239.012 388.861 236.473 390.819C232.737 393.7 230.267 386.457 232.617 385.468Z" fill="#B5ECED"/>
<path opacity="0.4" d="M100.997 383.751C103.346 382.763 107.392 387.145 104.853 389.102C101.116 391.984 98.647 384.74 100.997 383.751Z" fill="#B5ECED"/>
</g>
<defs>
<filter id="filter0_d_112_14465" x="74.834" y="336.262" width="288.466" height="125.971" filterUnits="userSpaceOnUse" color-interpolation-filters="sRGB">
<feFlood flood-opacity="0" result="BackgroundImageFix"/>
<feColorMatrix in="SourceAlpha" type="matrix" values="0 0 0 0 0 0 0 0 0 0 0 0 0 0 0 0 0 0 127 0" result="hardAlpha"/>
<feOffset dy="4"/>
<feGaussianBlur stdDeviation="13"/>
<feComposite in2="hardAlpha" operator="out"/>
<feColorMatrix type="matrix" values="0 0 0 0 1 0 0 0 0 1 0 0 0 0 1 0 0 0 0.26 0"/>
<feBlend mode="normal" in2="BackgroundImageFix" result="effect1_dropShadow_112_14465"/>
<feBlend mode="normal" in="SourceGraphic" in2="effect1_dropShadow_112_14465" result="shape"/>
</filter>
<filter id="filter1_d_112_14465" x="114.723" y="390.77" width="35.5829" height="42.1204" filterUnits="userSpaceOnUse" color-interpolation-filters="sRGB">
<feFlood flood-opacity="0" result="BackgroundImageFix"/>
<feColorMatrix in="SourceAlpha" type="matrix" values="0 0 0 0 0 0 0 0 0 0 0 0 0 0 0 0 0 0 127 0" result="hardAlpha"/>
<feOffset dy="-8.92875"/>
<feGaussianBlur stdDeviation="4.96042"/>
<feComposite in2="hardAlpha" operator="out"/>
<feColorMatrix type="matrix" values="0 0 0 0 1 0 0 0 0 1 0 0 0 0 1 0 0 0 0.48 0"/>
<feBlend mode="soft-light" in2="BackgroundImageFix" result="effect1_dropShadow_112_14465"/>
<feBlend mode="normal" in="SourceGraphic" in2="effect1_dropShadow_112_14465" result="shape"/>
</filter>
<filter id="filter2_d_112_14465" x="270.874" y="305.865" width="104.289" height="126.629" filterUnits="userSpaceOnUse" color-interpolation-filters="sRGB">
<feFlood flood-opacity="0" result="BackgroundImageFix"/>
<feColorMatrix in="SourceAlpha" type="matrix" values="0 0 0 0 0 0 0 0 0 0 0 0 0 0 0 0 0 0 127 0" result="hardAlpha"/>
<feOffset dy="-31.9026"/>
<feGaussianBlur stdDeviation="17.6604"/>
<feComposite in2="hardAlpha" operator="out"/>
<feColorMatrix type="matrix" values="0 0 0 0 1 0 0 0 0 1 0 0 0 0 1 0 0 0 0.48 0"/>
<feBlend mode="soft-light" in2="BackgroundImageFix" result="effect1_dropShadow_112_14465"/>
<feBlend mode="normal" in="SourceGraphic" in2="effect1_dropShadow_112_14465" result="shape"/>
</filter>
<filter id="filter3_d_112_14465" x="234.946" y="247.622" width="147.155" height="153.958" filterUnits="userSpaceOnUse" color-interpolation-filters="sRGB">
<feFlood flood-opacity="0" result="BackgroundImageFix"/>
<feColorMatrix in="SourceAlpha" type="matrix" values="0 0 0 0 0 0 0 0 0 0 0 0 0 0 0 0 0 0 127 0" result="hardAlpha"/>
<feOffset dy="5.20685"/>
<feGaussianBlur stdDeviation="26.6851"/>
<feComposite in2="hardAlpha" operator="out"/>
<feColorMatrix type="matrix" values="0 0 0 0 1 0 0 0 0 1 0 0 0 0 1 0 0 0 0.6 0"/>
<feBlend mode="soft-light" in2="BackgroundImageFix" result="effect1_dropShadow_112_14465"/>
<feBlend mode="normal" in="SourceGraphic" in2="effect1_dropShadow_112_14465" result="shape"/>
</filter>
<filter id="filter4_d_112_14465" x="238.987" y="252.465" width="139.072" height="144.246" filterUnits="userSpaceOnUse" color-interpolation-filters="sRGB">
<feFlood flood-opacity="0" result="BackgroundImageFix"/>
<feColorMatrix in="SourceAlpha" type="matrix" values="0 0 0 0 0 0 0 0 0 0 0 0 0 0 0 0 0 0 127 0" result="hardAlpha"/>
<feOffset dy="5.20685"/>
<feGaussianBlur stdDeviation="26.6851"/>
<feComposite in2="hardAlpha" operator="out"/>
<feColorMatrix type="matrix" values="0 0 0 0 1 0 0 0 0 1 0 0 0 0 1 0 0 0 0.6 0"/>
<feBlend mode="soft-light" in2="BackgroundImageFix" result="effect1_dropShadow_112_14465"/>
<feBlend mode="normal" in="SourceGraphic" in2="effect1_dropShadow_112_14465" result="shape"/>
</filter>
<linearGradient id="paint0_linear_112_14465" x1="258.39" y1="333.561" x2="200.976" y2="441.312" gradientUnits="userSpaceOnUse">
<stop stop-color="white"/>
<stop offset="1" stop-color="white" stop-opacity="0"/>
</linearGradient>
<linearGradient id="paint1_linear_112_14465" x1="245.461" y1="335.654" x2="245.461" y2="432.099" gradientUnits="userSpaceOnUse">
<stop stop-color="#12AEB2"/>
<stop offset="1" stop-color="#12AEB2" stop-opacity="0"/>
</linearGradient>
<linearGradient id="paint2_linear_112_14465" x1="210.989" y1="349.316" x2="231.685" y2="538.783" gradientUnits="userSpaceOnUse">
<stop stop-color="white"/>
<stop offset="1" stop-color="white" stop-opacity="0"/>
</linearGradient>
<linearGradient id="paint3_linear_112_14465" x1="195.13" y1="336.414" x2="232.579" y2="492.475" gradientUnits="userSpaceOnUse">
<stop stop-color="white"/>
<stop offset="1" stop-color="white" stop-opacity="0"/>
</linearGradient>
<linearGradient id="paint4_linear_112_14465" x1="345.32" y1="347.035" x2="345.32" y2="358.416" gradientUnits="userSpaceOnUse">
<stop stop-color="#11B4B7"/>
<stop offset="1" stop-color="#11B4B7" stop-opacity="0"/>
</linearGradient>
<linearGradient id="paint5_linear_112_14465" x1="347.541" y1="383.471" x2="347.541" y2="422.498" gradientUnits="userSpaceOnUse">
<stop stop-color="#11B4B7"/>
<stop offset="1" stop-color="#11B4B7" stop-opacity="0"/>
</linearGradient>
<linearGradient id="paint6_linear_112_14465" x1="346.966" y1="331.436" x2="346.966" y2="339.822" gradientUnits="userSpaceOnUse">
<stop stop-color="#11B4B7"/>
<stop offset="1" stop-color="#11B4B7" stop-opacity="0"/>
</linearGradient>
<linearGradient id="paint7_linear_112_14465" x1="344.156" y1="363.848" x2="344.156" y2="381.688" gradientUnits="userSpaceOnUse">
<stop stop-color="#1BB4B7"/>
<stop offset="1" stop-color="#1BB4B7" stop-opacity="0"/>
</linearGradient>
<linearGradient id="paint8_linear_112_14465" x1="300.732" y1="381.614" x2="300.732" y2="390.554" gradientUnits="userSpaceOnUse">
<stop stop-color="#11B4B7"/>
<stop offset="1" stop-color="#11B4B7" stop-opacity="0"/>
</linearGradient>
<linearGradient id="paint9_linear_112_14465" x1="302.461" y1="413.255" x2="302.461" y2="436.63" gradientUnits="userSpaceOnUse">
<stop stop-color="#11B4B7"/>
<stop offset="1" stop-color="#11B4B7" stop-opacity="0"/>
</linearGradient>
<linearGradient id="paint10_linear_112_14465" x1="302.061" y1="367.909" x2="302.061" y2="374.473" gradientUnits="userSpaceOnUse">
<stop stop-color="#11B4B7"/>
<stop offset="1" stop-color="#11B4B7" stop-opacity="0"/>
</linearGradient>
<linearGradient id="paint11_linear_112_14465" x1="299.738" y1="396.485" x2="299.738" y2="410.946" gradientUnits="userSpaceOnUse">
<stop stop-color="#1BB4B7"/>
<stop offset="1" stop-color="#1BB4B7" stop-opacity="0"/>
</linearGradient>
<linearGradient id="paint12_linear_112_14465" x1="170.576" y1="366.515" x2="144.798" y2="500.655" gradientUnits="userSpaceOnUse">
<stop stop-color="white"/>
<stop offset="1" stop-color="white" stop-opacity="0"/>
</linearGradient>
<linearGradient id="paint13_linear_112_14465" x1="344.606" y1="366.238" x2="317.623" y2="500.619" gradientUnits="userSpaceOnUse">
<stop stop-color="white"/>
<stop offset="1" stop-color="white" stop-opacity="0"/>
</linearGradient>
<linearGradient id="paint14_linear_112_14465" x1="290.037" y1="420.083" x2="305.279" y2="443.57" gradientUnits="userSpaceOnUse">
<stop stop-color="white"/>
<stop offset="1" stop-color="white" stop-opacity="0"/>
</linearGradient>
<linearGradient id="paint15_linear_112_14465" x1="331.959" y1="382.533" x2="278.417" y2="436.609" gradientUnits="userSpaceOnUse">
<stop stop-color="white"/>
<stop offset="1" stop-color="white" stop-opacity="0"/>
</linearGradient>
<linearGradient id="paint16_linear_112_14465" x1="331.959" y1="382.533" x2="278.417" y2="436.609" gradientUnits="userSpaceOnUse">
<stop stop-color="white"/>
<stop offset="1" stop-color="white" stop-opacity="0"/>
</linearGradient>
<linearGradient id="paint17_linear_112_14465" x1="308.489" y1="305.055" x2="308.489" y2="333.29" gradientUnits="userSpaceOnUse">
<stop stop-color="#38434E"/>
<stop offset="1" stop-color="#38434E" stop-opacity="0.13"/>
</linearGradient>
<linearGradient id="paint18_linear_112_14465" x1="308.489" y1="305.055" x2="308.489" y2="333.29" gradientUnits="userSpaceOnUse">
<stop stop-color="#38434E"/>
<stop offset="1" stop-color="#38434E" stop-opacity="0.13"/>
</linearGradient>
<linearGradient id="paint19_linear_112_14465" x1="308.489" y1="305.055" x2="308.489" y2="333.29" gradientUnits="userSpaceOnUse">
<stop stop-color="#38434E"/>
<stop offset="1" stop-color="#38434E" stop-opacity="0.13"/>
</linearGradient>
</defs>
</svg>
